# Blender v2.76 (sub 0) OBJ File: 'Backpanel.blend'
# www.blender.org
mtllib Backpanel.mtl
o Cube
v -20.511593 -15.611784 -5.298363
v 20.511583 -15.611784 -5.298363
v -20.511583 -15.611780 8.599188
v 20.511597 -15.611792 8.599188
v -20.511583 -3.333187 16.468210
v 20.511597 -3.333198 16.468210
vt 0.999915 0.398460
vt 0.000085 0.398460
vt 0.000086 0.000085
vt 0.999915 0.727382
vt 0.000085 0.727382
vt 0.999915 0.000085
vn 0.000000 1.000000 0.000000
vn 0.000000 0.539600 -0.841900
usemtl Material
s off
f 3/1/1 4/2/1 2/3/1
f 3/1/2 5/4/2 6/5/2
f 1/6/1 3/1/1 2/3/1
f 4/2/2 3/1/2 6/5/2
