# Blender v2.76 (sub 0) OBJ File: 'Deco_Crystals_1.blend'
# www.blender.org
mtllib Deco_Crystals_1.mtl
o Cylinder
v -0.543719 0.687847 0.080146
v -1.786692 0.687847 4.112825
v -1.537696 0.687847 0.661182
v -2.281089 0.687847 3.073034
v -1.165602 1.362252 0.775871
v -1.908996 1.362252 3.187723
v -0.421415 1.362252 1.005248
v -1.164809 1.362252 3.417100
v -0.049322 0.687847 1.119937
v -0.792715 0.687847 3.531789
v -0.421415 0.013443 1.005248
v -1.164809 0.013443 3.417100
v -1.165602 0.013443 0.775871
v -1.908996 0.013443 3.187723
v -0.219677 0.442933 -0.793404
v 1.063878 1.837063 3.721143
v -0.363272 0.286968 0.335809
v 0.404392 1.120765 3.035855
v -0.565203 0.875795 0.224828
v 0.202461 1.709592 2.924874
v -0.163663 1.311928 0.002866
v 0.604002 2.145724 2.702912
v 0.439809 1.159232 -0.108115
v 1.207473 1.993029 2.591931
v 0.641740 0.570405 0.002866
v 1.409404 1.404202 2.702912
v 0.240199 0.134273 0.224828
v 1.007864 0.968069 2.924874
v -0.756756 0.414380 -0.211821
v 0.507442 -1.205406 2.555694
v -0.740991 0.369355 0.595626
v 0.015097 -0.599401 2.250812
v -0.324766 0.474435 0.477864
v 0.431322 -0.494321 2.133050
v -0.086476 0.193945 0.226581
v 0.669612 -0.774812 1.881767
v -0.264411 -0.191625 0.093060
v 0.491677 -1.160381 1.748247
v -0.680636 -0.296705 0.210823
v 0.075452 -1.265461 1.866009
v -0.918926 -0.016215 0.462106
v -0.162838 -0.984971 2.117292
v -0.879290 0.745404 -0.453063
v -2.663523 -0.273622 2.314451
v -0.926109 0.736254 0.354384
v -1.993217 0.126797 2.009570
v -0.881761 0.309267 0.236621
v -1.948869 -0.300189 1.891808
v -1.193504 0.113632 -0.014661
v -2.260612 -0.495824 1.640525
v -1.549595 0.344984 -0.148182
v -2.616704 -0.264472 1.507004
v -1.593943 0.771971 -0.030420
v -2.661052 0.162515 1.624766
v -1.282200 0.967606 0.220863
v -2.349308 0.358150 1.876049
v -1.072421 1.057440 0.114984
v -2.165685 2.144120 2.191179
v -1.088389 1.089468 0.720732
v -1.742245 1.739386 1.962456
v -1.388296 0.972113 0.632387
v -2.042151 1.622031 1.874111
v -1.592031 1.158466 0.443874
v -2.245887 1.808384 1.685598
v -1.495861 1.462174 0.343707
v -2.149716 2.112092 1.585430
v -1.195954 1.579529 0.432052
v -1.849810 2.229447 1.673776
v -0.992219 1.393176 0.620565
v -1.646075 2.043094 1.862289
vt 0.254181 0.000196
vt 0.114176 0.143110
vt 0.000196 0.060712
vt 0.230634 0.535965
vt 0.000196 0.453402
vt 0.101359 0.386016
vt 0.484620 0.082759
vt 0.383457 0.150145
vt 0.370640 0.393051
vt 0.484620 0.475449
vt 0.310621 0.172844
vt 0.297030 0.366509
vt 0.249230 0.177540
vt 0.235585 0.358621
vt 0.187785 0.169652
vt 0.174194 0.363317
vt 0.701857 0.000196
vt 0.639182 0.156274
vt 0.573548 0.134652
vt 0.682715 0.581289
vt 0.564209 0.438554
vt 0.629630 0.417664
vt 0.485011 0.080094
vt 0.485011 0.490498
vt 0.902497 0.096939
vt 0.822056 0.146534
vt 0.808912 0.450208
vt 0.895891 0.506767
vt 0.754171 0.163985
vt 0.745971 0.425391
vt 0.695858 0.165421
vt 0.688645 0.415174
vt 0.637671 0.581680
vt 0.593547 0.691560
vt 0.547341 0.676338
vt 0.624194 0.990770
vt 0.540766 0.890285
vt 0.586823 0.875578
vt 0.485011 0.637929
vt 0.485011 0.926853
vt 0.778921 0.649787
vt 0.722291 0.684703
vt 0.713037 0.898489
vt 0.774271 0.938307
vt 0.674500 0.696988
vt 0.668727 0.881018
vt 0.633448 0.697999
vt 0.628369 0.873825
vt 0.152855 0.536356
vt 0.108732 0.646236
vt 0.062526 0.631014
vt 0.139379 0.945446
vt 0.055951 0.844961
vt 0.102007 0.830254
vt 0.000196 0.592605
vt 0.000196 0.881529
vt 0.294106 0.604464
vt 0.237475 0.639379
vt 0.228222 0.853165
vt 0.289455 0.892983
vt 0.189684 0.651664
vt 0.183911 0.835694
vt 0.148632 0.652675
vt 0.143553 0.828501
vt 0.893838 0.581680
vt 0.860736 0.664112
vt 0.826073 0.652693
vt 0.883728 0.888580
vt 0.821140 0.813196
vt 0.855692 0.802163
vt 0.779312 0.623878
vt 0.779312 0.840630
vt 0.999804 0.632774
vt 0.957320 0.658968
vt 0.950378 0.819351
vt 0.996315 0.849222
vt 0.921467 0.668184
vt 0.917136 0.806244
vt 0.890670 0.668943
vt 0.886860 0.800848
vn -0.464400 0.391300 -0.794500
vn -0.831100 0.391300 0.395200
vn -0.827600 0.500000 -0.255100
vn 0.183300 0.782700 -0.594800
vn -0.183300 0.782700 0.594800
vn 0.000000 1.000000 0.000000
vn 0.831100 0.391300 -0.395200
vn 0.464400 0.391300 0.794500
vn 0.827600 0.500000 0.255100
vn 0.831100 -0.391300 -0.395200
vn 0.464400 -0.391300 0.794500
vn 0.827600 -0.500000 0.255100
vn 0.183300 -0.782700 -0.594800
vn -0.183300 -0.782700 0.594800
vn 0.000000 -1.000000 0.000000
vn -0.464400 -0.391300 -0.794500
vn -0.831100 -0.391300 0.395200
vn -0.827600 -0.500000 -0.255100
vn -0.922900 -0.347700 -0.165400
vn -0.668800 -0.090300 0.738000
vn -0.908800 -0.248500 0.335100
vn -0.758300 0.466300 -0.455600
vn -0.527200 0.717300 0.455600
vn -0.735700 0.677300 0.000000
vn 0.034800 0.674000 -0.738000
vn 0.270400 0.948400 0.165400
vn 0.172700 0.926200 -0.335100
vn 0.668800 0.090300 -0.738000
vn 0.922900 0.347700 0.165400
vn 0.908800 0.248500 -0.335100
vn 0.527200 -0.717300 -0.455600
vn 0.758300 -0.466300 0.455600
vn 0.735700 -0.677300 0.000000
vn -0.270400 -0.948400 -0.165400
vn -0.034800 -0.674000 0.738000
vn -0.172700 -0.926200 0.335100
vn -0.228700 0.971700 0.058700
vn 0.109900 0.516500 0.849200
vn -0.065200 0.847900 0.526100
vn 0.505200 0.773000 -0.383700
vn 0.841900 0.339400 0.419500
vn 0.770900 0.636600 0.020400
vn 0.554500 0.032100 -0.831600
vn 0.912500 -0.407100 -0.040500
vn 0.836600 -0.211000 -0.505600
vn -0.109900 -0.516500 -0.849200
vn 0.228700 -0.971700 -0.058700
vn 0.065200 -0.847900 -0.526100
vn -0.841900 -0.339400 -0.419500
vn -0.505200 -0.773000 0.383700
vn -0.770900 -0.636600 -0.020400
vn -0.912500 0.407100 0.040500
vn -0.554500 -0.032100 0.831600
vn -0.836600 0.211000 0.505600
vn 0.994500 0.087100 0.058700
vn 0.495400 -0.182800 0.849200
vn 0.848500 -0.057000 0.526100
vn 0.692600 -0.610800 -0.383700
vn 0.215300 -0.881900 0.419500
vn 0.519600 -0.854200 0.020400
vn -0.047700 -0.553300 -0.831600
vn -0.533600 -0.844700 -0.040500
vn -0.328700 -0.797700 -0.505600
vn -0.495400 0.182800 -0.849200
vn -0.994500 -0.087100 -0.058700
vn -0.848500 0.057000 -0.526100
vn -0.215300 0.881900 -0.419500
vn -0.692600 0.610800 0.383700
vn -0.519600 0.854200 -0.020400
vn 0.533600 0.844700 0.040500
vn 0.047700 0.553300 0.831600
vn 0.328700 0.797700 0.505600
vn 0.348700 -0.935400 0.058700
vn -0.044300 -0.526200 0.849200
vn 0.171000 -0.833100 0.526100
vn -0.404300 -0.830200 -0.383700
vn -0.792700 -0.442300 0.419500
vn -0.685000 -0.728200 0.020400
vn -0.546100 -0.101400 -0.831600
vn -0.956300 0.289500 -0.040500
vn -0.856400 0.104400 -0.505600
vn 0.044300 0.526200 -0.849200
vn -0.348700 0.935400 -0.058600
vn -0.171000 0.833100 -0.526100
vn 0.792700 0.442300 -0.419500
vn 0.404300 0.830200 0.383700
vn 0.685000 0.728200 -0.020400
vn 0.956300 -0.289500 0.040500
vn 0.546100 0.101400 0.831600
vn 0.856400 -0.104400 0.505600
usemtl Material.001
s off
f 1/1/1 3/2/1 5/3/1
f 2/4/2 6/5/2 4/6/2
f 4/6/3 6/5/3 5/3/3
f 1/1/4 5/7/4 7/8/4
f 2/4/5 8/9/5 6/10/5
f 6/10/6 8/9/6 7/8/6
f 1/1/7 7/8/7 9/11/7
f 2/4/8 10/12/8 8/9/8
f 8/9/9 10/12/9 9/11/9
f 1/1/10 9/11/10 11/13/10
f 2/4/11 12/14/11 10/12/11
f 10/12/12 12/14/12 11/13/12
f 1/1/13 11/13/13 13/15/13
f 2/4/14 14/16/14 12/14/14
f 11/13/15 12/14/15 14/16/15
f 1/1/16 13/15/16 3/2/16
f 2/4/17 4/6/17 14/16/17
f 14/16/18 4/6/18 3/2/18
f 15/17/19 17/18/19 19/19/19
f 16/20/20 20/21/20 18/22/20
f 18/22/21 20/21/21 19/19/21
f 15/17/22 19/19/22 21/23/22
f 16/20/23 22/24/23 20/21/23
f 20/21/24 22/24/24 21/23/24
f 15/17/25 21/25/25 23/26/25
f 16/20/26 24/27/26 22/28/26
f 22/28/27 24/27/27 23/26/27
f 15/17/28 23/26/28 25/29/28
f 16/20/29 26/30/29 24/27/29
f 23/26/30 24/27/30 26/30/30
f 15/17/31 25/29/31 27/31/31
f 16/20/32 28/32/32 26/30/32
f 25/29/33 26/30/33 28/32/33
f 15/17/34 27/31/34 17/18/34
f 16/20/35 18/22/35 28/32/35
f 27/31/36 28/32/36 18/22/36
f 29/33/37 31/34/37 33/35/37
f 30/36/38 34/37/38 32/38/38
f 32/38/39 34/37/39 33/35/39
f 29/33/40 33/35/40 35/39/40
f 30/36/41 36/40/41 34/37/41
f 34/37/42 36/40/42 35/39/42
f 29/33/43 35/41/43 37/42/43
f 30/36/44 38/43/44 36/44/44
f 36/44/45 38/43/45 37/42/45
f 29/33/46 37/42/46 39/45/46
f 30/36/47 40/46/47 38/43/47
f 37/42/48 38/43/48 40/46/48
f 29/33/49 39/45/49 41/47/49
f 30/36/50 42/48/50 40/46/50
f 39/45/51 40/46/51 42/48/51
f 29/33/52 41/47/52 31/34/52
f 30/36/53 32/38/53 42/48/53
f 41/47/54 42/48/54 32/38/54
f 43/49/55 45/50/55 47/51/55
f 44/52/56 48/53/56 46/54/56
f 46/54/57 48/53/57 47/51/57
f 43/49/58 47/51/58 49/55/58
f 44/52/59 50/56/59 48/53/59
f 48/53/60 50/56/60 49/55/60
f 43/49/61 49/57/61 51/58/61
f 44/52/62 52/59/62 50/60/62
f 50/60/63 52/59/63 51/58/63
f 43/49/64 51/58/64 53/61/64
f 44/52/65 54/62/65 52/59/65
f 51/58/66 52/59/66 54/62/66
f 43/49/67 53/61/67 55/63/67
f 44/52/68 56/64/68 54/62/68
f 53/61/69 54/62/69 56/64/69
f 43/49/70 55/63/70 45/50/70
f 44/52/71 46/54/71 56/64/71
f 55/63/72 56/64/72 46/54/72
f 57/65/73 59/66/73 61/67/73
f 58/68/74 62/69/74 60/70/74
f 60/70/75 62/69/75 61/67/75
f 57/65/76 61/67/76 63/71/76
f 58/68/77 64/72/77 62/69/77
f 62/69/78 64/72/78 63/71/78
f 57/65/79 63/73/79 65/74/79
f 58/68/80 66/75/80 64/76/80
f 64/76/81 66/75/81 65/74/81
f 57/65/82 65/74/82 67/77/82
f 58/68/83 68/78/83 66/75/83
f 65/74/84 66/75/84 68/78/84
f 57/65/85 67/77/85 69/79/85
f 58/68/86 70/80/86 68/78/86
f 67/77/87 68/78/87 70/80/87
f 57/65/88 69/79/88 59/66/88
f 58/68/89 60/70/89 70/80/89
f 69/79/90 70/80/90 60/70/90
f 3/2/3 4/6/3 5/3/3
f 5/7/6 6/10/6 7/8/6
f 7/8/9 8/9/9 9/11/9
f 9/11/12 10/12/12 11/13/12
f 13/15/15 11/13/15 14/16/15
f 13/15/18 14/16/18 3/2/18
f 17/18/21 18/22/21 19/19/21
f 19/19/24 20/21/24 21/23/24
f 21/25/27 22/28/27 23/26/27
f 25/29/30 23/26/30 26/30/30
f 27/31/33 25/29/33 28/32/33
f 17/18/36 27/31/36 18/22/36
f 31/34/39 32/38/39 33/35/39
f 33/35/42 34/37/42 35/39/42
f 35/41/45 36/44/45 37/42/45
f 39/45/48 37/42/48 40/46/48
f 41/47/51 39/45/51 42/48/51
f 31/34/54 41/47/54 32/38/54
f 45/50/57 46/54/57 47/51/57
f 47/51/60 48/53/60 49/55/60
f 49/57/63 50/60/63 51/58/63
f 53/61/66 51/58/66 54/62/66
f 55/63/69 53/61/69 56/64/69
f 45/50/72 55/63/72 46/54/72
f 59/66/75 60/70/75 61/67/75
f 61/67/78 62/69/78 63/71/78
f 63/73/81 64/76/81 65/74/81
f 67/77/84 65/74/84 68/78/84
f 69/79/87 67/77/87 70/80/87
f 59/66/90 69/79/90 60/70/90
