# Blender v2.76 (sub 0) OBJ File: 'StoneHouse1.blend'
# www.blender.org
mtllib StoneHouse1.mtl
o Cube
v -1.579288 1.000000 0.093069
v 1.364509 1.000000 0.093069
v 1.364508 -1.000000 0.093069
v -1.579288 -1.000000 0.093069
v -1.579287 1.000000 1.543115
v 1.364509 0.999999 1.543115
v 1.364508 -1.000000 1.543115
v -1.579288 -1.000000 1.543115
v -1.689673 1.230392 1.564747
v 1.474895 1.230390 1.564747
v 1.474894 -1.230392 1.564747
v -1.689673 -1.230391 1.564747
v -1.689673 0.000000 2.701187
v 1.474894 -0.000001 2.701187
vt 0.038610 0.892950
vt 0.034298 0.883470
vt 0.162824 0.885809
vt 0.913670 0.944582
vt 0.552867 0.944582
vt 0.552868 0.766860
vt 0.307740 0.944582
vt 0.307741 0.766860
vt 0.304598 0.552106
vt 0.665400 0.552106
vt 0.665400 0.729829
vt 0.910527 0.729829
vt 0.037850 0.976361
vt 0.033366 0.985761
vt 0.032459 0.885804
vt 0.157430 0.976363
vt 0.158170 0.895126
vt 0.161914 0.985762
vt 0.546450 0.528342
vt 0.289796 0.528342
vt 0.289796 0.043424
vt 0.579400 0.043484
vt 0.964982 0.043483
vt 0.772191 0.221553
vt 0.033142 0.043424
vt 0.582980 0.273532
vt 0.968562 0.273532
vt 0.775771 0.451602
vt 0.913670 0.766859
vt 0.304598 0.729829
vt 0.910527 0.552106
vt 0.037113 0.895121
vt 0.546450 0.043424
vt 0.033142 0.528342
vn -0.000000 -0.093500 -0.995600
vn 0.000000 1.000000 0.000000
vn 1.000000 -0.000000 0.000000
vn -0.000000 -1.000000 -0.000000
vn -1.000000 0.000000 0.000000
vn 0.192300 -0.000000 -0.981300
vn -0.192300 0.000000 -0.981300
vn 0.000000 0.093500 -0.995600
vn -0.000000 -0.678500 0.734600
vn 0.000000 0.678500 0.734600
usemtl Material
s off
f 7/1/1 11/2/1 12/3/1
f 5/4/2 6/5/2 2/6/2
f 6/5/3 7/7/3 3/8/3
f 7/9/4 8/10/4 4/11/4
f 1/12/5 4/11/5 8/10/5
f 6/13/6 10/14/6 11/15/6
f 5/16/7 8/17/7 12/3/7
f 5/16/8 9/18/8 10/14/8
f 11/19/9 14/20/9 13/21/9
f 9/22/5 12/23/5 13/24/5
f 9/25/10 13/21/10 14/20/10
f 11/26/3 10/27/3 14/28/3
f 8/17/1 7/1/1 12/3/1
f 1/29/2 5/4/2 2/6/2
f 2/6/3 6/5/3 3/8/3
f 3/30/4 7/9/4 4/11/4
f 5/31/5 1/12/5 8/10/5
f 7/32/6 6/13/6 11/15/6
f 9/18/7 5/16/7 12/3/7
f 6/13/8 5/16/8 10/14/8
f 12/33/9 11/19/9 13/21/9
f 10/34/10 9/25/10 14/20/10
