# Blender v2.76 (sub 0) OBJ File: 'Waystone.blend'
# www.blender.org
mtllib Waystone.mtl
o Cube
v -2.352162 2.352162 -0.534106
v 2.352162 2.352162 -0.534106
v 2.352162 -2.352162 -0.534106
v -2.352163 -2.352161 -0.534106
v -1.594196 1.594198 1.154066
v 1.594199 1.594197 1.154066
v 1.594197 -1.594198 1.154066
v -1.594197 -1.594198 1.154066
v -2.352161 2.352163 1.154066
v 2.352164 2.352161 1.154066
v -2.352162 -2.352162 1.154066
v 2.352161 -2.352163 1.154066
v -1.594196 1.594198 7.622073
v 1.594199 1.594197 7.622073
v 1.594197 -1.594198 7.622073
v -1.594197 -1.594198 7.622073
v -1.068113 1.068115 8.285495
v 1.068115 1.068114 8.285495
v 1.068114 -1.068115 8.285495
v -1.068114 -1.068114 8.285495
v -1.311590 1.594198 6.451276
v -1.342822 1.594198 5.788284
v -1.188286 1.594198 5.177049
v -0.863550 1.594198 4.809389
v -0.404624 1.594197 4.670088
v 0.070312 1.594197 4.567563
v 0.421335 1.594197 4.432117
v 0.511136 1.594197 4.192766
v 0.468432 1.594197 3.828087
v 0.459706 1.594196 3.443182
v 0.401126 1.594197 3.157709
v 0.207770 1.594197 3.094274
v -0.129632 1.594197 3.252234
v -0.485085 1.594198 3.452002
v -0.741347 1.594197 3.548821
v -0.781880 1.594198 3.397841
v -0.887605 1.594198 2.833043
v -1.145511 1.594198 2.109091
v -1.128919 1.594199 1.745503
v -0.412824 1.594199 2.276772
v 0.075260 1.594197 2.470123
v 0.481346 1.594196 2.323811
v 0.773870 1.594198 2.236536
v 0.912632 1.594197 2.604133
v 1.051414 1.594197 3.346631
v 1.244011 1.594197 4.054582
v 1.308552 1.594196 4.624546
v 1.070329 1.594198 4.962742
v 0.561337 1.594196 5.051778
v 0.034828 1.594197 5.063150
v -0.355264 1.594197 5.187410
v -0.455879 1.594197 5.614451
v -0.147574 1.594198 6.067834
v 0.382797 1.594197 6.177000
v 0.878333 1.594196 6.263720
v 1.100090 1.594198 6.642921
v 1.118970 1.594196 7.027845
v 1.060145 1.594196 6.949566
v 0.776174 1.594196 6.693384
v 0.119580 1.594198 6.544596
v -0.492270 1.594198 6.705004
v -0.721447 1.594198 7.012237
v -0.829151 1.594198 7.199220
v -1.081637 1.594198 6.984708
v -1.217628 1.404916 6.322611
v -1.246645 1.404916 5.706642
v -1.103070 1.404916 5.138758
v -0.801365 1.404916 4.797174
v -0.374988 1.404915 4.667752
v 0.066264 1.404915 4.572499
v 0.392391 1.404915 4.446660
v 0.475823 1.404916 4.224284
v 0.436147 1.404915 3.885469
v 0.428041 1.404915 3.527864
v 0.373615 1.404915 3.262637
v 0.193973 1.404915 3.203702
v -0.119499 1.404915 3.350459
v -0.449743 1.404917 3.536058
v -0.687829 1.404915 3.626010
v -0.725487 1.404916 3.485739
v -0.823714 1.404916 2.960998
v -1.063328 1.404916 2.288392
v -1.047913 1.404917 1.950591
v -0.382607 1.404917 2.444181
v 0.070861 1.404916 2.623818
v 0.448145 1.404915 2.487883
v 0.719923 1.404916 2.406798
v 0.848844 1.404915 2.748324
v 0.977782 1.404915 3.438160
v 1.156720 1.404915 4.095901
v 1.216683 1.404915 4.625441
v 0.995355 1.404916 4.939650
v 0.522464 1.404915 5.022371
v 0.033297 1.404916 5.032938
v -0.329129 1.404915 5.148384
v -0.422608 1.404915 5.545138
v -0.136169 1.404916 5.966365
v 0.356586 1.404915 6.067788
v 0.816977 1.404915 6.148357
v 1.023006 1.404916 6.500665
v 1.040546 1.404914 6.858288
v 0.985894 1.404915 6.785561
v 0.722063 1.404915 6.547548
v 0.112038 1.404916 6.409313
v -0.456418 1.404916 6.558344
v -0.669340 1.404916 6.843787
v -0.769406 1.404916 7.017508
v -1.003984 1.404917 6.818210
vt 0.346332 0.000188
vt 0.346332 0.334476
vt 0.181545 0.334476
vt 0.972727 0.960638
vt 0.729592 0.960638
vt 0.729592 0.873387
vt 0.486457 0.960638
vt 0.486457 0.873388
vt 0.243323 0.960638
vt 0.000188 0.873388
vt 0.243323 0.873388
vt 0.933553 0.999812
vt 0.768766 0.999812
vt 0.039362 0.999812
vt 0.000188 0.960638
vt 0.525632 0.999812
vt 0.282497 0.999812
vt 0.198115 0.515833
vt 0.154355 0.488643
vt 0.154355 0.378236
vt 0.100575 0.854522
vt 0.048397 0.847419
vt 0.064516 0.785204
vt 0.181545 0.000188
vt 0.016758 0.334476
vt 0.511118 0.000188
vt 0.511118 0.334476
vt 0.043948 0.488643
vt 0.000188 0.351046
vt 0.043948 0.378236
vt 0.181545 0.532403
vt 0.016758 0.532403
vt 0.385974 0.806047
vt 0.337081 0.848982
vt 0.322725 0.851593
vt 0.291040 0.599419
vt 0.358519 0.634513
vt 0.343498 0.664552
vt 0.585840 0.339484
vt 0.552608 0.329169
vt 0.560324 0.319129
vt 0.303096 0.873011
vt 0.300363 0.867319
vt 0.262930 0.854413
vt 0.002104 0.662871
vt 0.001422 0.606997
vt 0.072552 0.532779
vt 0.156848 0.567084
vt 0.199850 0.598040
vt 0.511494 0.525547
vt 0.548766 0.503035
vt 0.553615 0.514312
vt 0.523998 0.162496
vt 0.533743 0.164278
vt 0.529433 0.183458
vt 0.548283 0.696483
vt 0.554101 0.707663
vt 0.534004 0.712733
vt 0.668856 0.021711
vt 0.684023 0.033573
vt 0.674907 0.040288
vt 0.693498 0.128978
vt 0.683710 0.128926
vt 0.684335 0.110871
vt 0.673487 0.706317
vt 0.670425 0.716800
vt 0.664761 0.711873
vt 0.591199 0.328713
vt 0.616638 0.345307
vt 0.653831 0.293410
vt 0.640986 0.304732
vt 0.634922 0.292216
vt 0.518493 0.260419
vt 0.528629 0.255255
vt 0.535000 0.278556
vt 0.562935 0.068107
vt 0.590183 0.041736
vt 0.595234 0.052083
vt 0.667391 0.701014
vt 0.643689 0.694062
vt 0.681670 0.235748
vt 0.669581 0.267851
vt 0.661489 0.257950
vt 0.569090 0.679068
vt 0.599662 0.644585
vt 0.601836 0.659447
vt 0.691027 0.057575
vt 0.681414 0.062588
vt 0.679921 0.048675
vt 0.646856 0.281697
vt 0.532875 0.328031
vt 0.541990 0.318072
vt 0.528770 0.135700
vt 0.538176 0.139382
vt 0.573432 0.691484
vt 0.617257 0.013611
vt 0.632496 0.000188
vt 0.634546 0.013481
vt 0.651845 0.009273
vt 0.645011 0.017711
vt 0.634922 0.009271
vt 0.692704 0.154077
vt 0.682972 0.152245
vt 0.625718 0.372714
vt 0.628249 0.359586
vt 0.634546 0.367815
vt 0.511494 0.233322
vt 0.522127 0.230080
vt 0.620388 0.025952
vt 0.614978 0.655506
vt 0.616066 0.669593
vt 0.692398 0.077426
vt 0.682688 0.081031
vt 0.534135 0.109538
vt 0.543075 0.090117
vt 0.551467 0.097032
vt 0.691864 0.178850
vt 0.689322 0.204075
vt 0.679830 0.198697
vt 0.527814 0.328014
vt 0.537289 0.318056
vt 0.543161 0.115076
vt 0.519358 0.183141
vt 0.524038 0.203823
vt 0.660816 0.029267
vt 0.682192 0.175261
vt 0.526652 0.701940
vt 0.519922 0.716800
vt 0.694171 0.109544
vt 0.684213 0.098596
vt 0.613220 0.357344
vt 0.513552 0.205060
vt 0.525351 0.285498
vt 0.535422 0.299645
vt 0.694040 0.096332
vt 0.569919 0.076583
vt 0.644710 0.681844
vt 0.672721 0.228124
vt 0.689420 0.042600
vt 0.525805 0.308197
vt 0.632502 0.546405
vt 0.641296 0.575374
vt 0.598361 0.569040
vt 0.641296 0.607245
vt 0.631471 0.633350
vt 0.602571 0.621266
vt 0.619846 0.644209
vt 0.614257 0.635484
vt 0.616096 0.529505
vt 0.592570 0.548785
vt 0.570757 0.520016
vt 0.593769 0.523860
vt 0.573579 0.543706
vt 0.549540 0.466965
vt 0.549991 0.485447
vt 0.520940 0.463671
vt 0.528663 0.636504
vt 0.526018 0.640391
vt 0.526054 0.621886
vt 0.535833 0.603197
vt 0.541704 0.623574
vt 0.559406 0.597917
vt 0.572861 0.614954
vt 0.584598 0.591483
vt 0.607386 0.469318
vt 0.594876 0.465253
vt 0.608989 0.461985
vt 0.612784 0.434656
vt 0.621901 0.381947
vt 0.623519 0.399349
vt 0.588754 0.409047
vt 0.577375 0.456475
vt 0.565781 0.419424
vt 0.531744 0.409799
vt 0.545972 0.413324
vt 0.525919 0.427744
vt 0.551704 0.453140
vt 0.513302 0.498063
vt 0.548300 0.544350
vt 0.523685 0.541230
vt 0.560835 0.449661
vt 0.000188 0.675528
vt 0.020807 0.702171
vt 0.216942 0.828962
vt 0.072722 0.768159
vt 0.047991 0.741959
vt 0.177914 0.813208
vt 0.078880 0.775785
vt 0.020815 0.807127
vt 0.041273 0.795852
vt 0.029207 0.832774
vt 0.016896 0.819270
vt 0.123297 0.834229
vt 0.147293 0.816104
vt 0.080756 0.867319
vt 0.065309 0.863040
vt 0.375630 0.723470
vt 0.377908 0.731419
vt 0.381556 0.736944
vt 0.361855 0.841368
vt 0.391419 0.760851
vt 0.355045 0.691509
vt 0.238443 0.622559
vt 0.266053 0.623201
vt 0.312555 0.571613
vt 0.373718 0.601714
vt 0.334713 0.555611
vt 0.361627 0.567166
vt 0.071706 0.543953
vt 0.035792 0.558793
vt 0.011507 0.573783
vt 0.107891 0.545171
vt 0.972727 0.873387
vt 0.204149 0.999812
vt 0.690418 0.999812
vt 0.447283 0.999812
vt 0.198115 0.351046
vt 0.016758 0.000188
vt 0.000188 0.515833
vt 0.640986 0.000188
vt 0.632495 0.381571
vt 0.511494 0.706317
vn -0.000000 -1.000000 0.000000
vn 0.000000 1.000000 0.000000
vn 1.000000 -0.000000 0.000000
vn -1.000000 0.000000 0.000000
vn 0.000000 0.000000 1.000000
vn -0.000000 -0.783500 0.621300
vn 0.000000 0.783500 0.621300
vn -0.783500 0.000000 0.621300
vn 0.783500 -0.000000 0.621300
vn 0.182100 0.566900 -0.803400
vn -0.300000 0.152700 -0.941600
vn 0.270400 0.603100 0.750500
vn -0.380300 -0.442000 -0.812400
vn 0.359900 0.016600 0.932800
vn 0.952600 0.165000 -0.255700
vn -0.207600 0.574300 -0.791900
vn 0.472700 0.683400 -0.556400
vn -0.151400 -0.478200 0.865100
vn -0.862300 0.448900 0.234600
vn 0.962400 0.203100 -0.180200
vn 0.883400 0.466800 -0.041600
vn -0.507500 0.524000 0.684000
vn 0.949500 -0.246000 -0.194800
vn 0.743500 0.586900 -0.320500
vn 0.626000 0.355700 -0.693900
vn -0.021300 0.157800 -0.987200
vn -0.292700 0.606800 0.739000
vn -0.807800 0.504500 0.304900
vn -0.318400 -0.433800 -0.842900
vn 0.211000 0.021000 0.977300
vn -0.848800 0.201400 -0.488900
vn -0.177600 -0.473200 0.862800
vn -0.889200 0.426300 0.166200
vn 0.901700 0.430500 0.041100
vn 0.984400 -0.174700 -0.022300
vn -0.760600 0.366600 -0.535800
vn 0.734400 0.199400 0.648700
vn 0.782800 0.202600 -0.588300
vn -0.169300 0.185200 -0.968000
vn -0.969700 -0.086800 -0.228500
vn -0.441900 -0.431700 -0.786300
vn 0.290300 0.033700 0.956300
vn 0.225400 0.615300 0.755400
vn 0.930000 -0.115400 0.348900
vn -0.765300 0.297400 -0.570900
vn -0.780200 -0.331400 0.530500
vn -0.862900 -0.027800 0.504600
vn 0.973000 -0.200500 -0.113900
vn -0.894800 0.434800 0.101300
vn 0.938100 0.090700 -0.334200
vn 0.904200 0.360800 0.228600
vn 0.270600 -0.496500 -0.824800
vn -0.936800 0.347000 0.045900
vn 0.472700 0.683300 -0.556400
vn 0.782900 0.202600 -0.588300
usemtl Material
s off
f 7/1/1 15/2/1 16/3/1
f 9/4/2 10/5/2 2/6/2
f 10/5/3 12/7/3 3/8/3
f 3/8/1 12/7/1 11/9/1
f 1/10/4 4/11/4 11/9/4
f 5/12/5 6/13/5 10/5/5
f 5/14/5 9/15/5 11/9/5
f 7/16/5 12/7/5 10/5/5
f 8/17/5 11/9/5 12/7/5
f 15/18/6 19/19/6 20/20/6
f 26/21/2 29/22/2 34/23/2
f 8/24/4 16/3/4 13/25/4
f 6/26/3 14/27/3 15/2/3
f 20/20/5 19/19/5 18/28/5
f 13/29/7 17/30/7 18/28/7
f 16/3/8 20/20/8 17/30/8
f 15/31/9 14/32/9 18/28/9
f 60/33/2 62/34/2 63/35/2
f 49/36/2 54/37/2 55/38/2
f 60/39/10 59/40/10 103/41/10
f 13/42/2 64/43/2 21/44/2
f 39/45/2 40/46/2 6/47/2
f 6/47/2 45/48/2 46/49/2
f 91/50/2 72/51/2 71/52/2
f 50/53/11 94/54/11 95/55/11
f 41/56/12 85/57/12 86/58/12
f 33/59/13 32/60/13 76/61/13
f 26/62/14 70/63/14 71/64/14
f 35/65/15 79/66/15 80/67/15
f 60/39/16 104/68/16 105/69/16
f 64/70/17 63/71/17 107/72/17
f 54/73/18 98/74/18 99/75/18
f 46/76/19 45/77/19 89/78/19
f 36/79/20 80/67/20 81/80/20
f 22/81/21 21/82/21 65/83/21
f 40/84/22 39/85/22 83/86/22
f 30/87/23 74/88/23 75/89/23
f 21/82/24 64/70/24 108/90/24
f 59/40/25 58/91/25 102/92/25
f 50/53/26 49/93/26 93/94/26
f 41/56/27 40/84/27 84/95/27
f 44/96/28 43/97/28 87/98/28
f 34/99/29 78/100/29 79/101/29
f 26/62/30 25/102/30 69/103/30
f 62/104/31 106/105/31 107/106/31
f 53/107/32 97/108/32 98/74/32
f 45/77/33 44/96/33 88/109/33
f 38/110/34 82/111/34 83/86/34
f 29/112/35 73/113/35 74/88/35
f 48/114/36 47/115/36 91/116/36
f 24/117/37 23/118/37 67/119/37
f 58/91/38 57/120/38 101/121/38
f 49/93/39 48/114/39 92/122/39
f 51/123/40 95/55/40 96/124/40
f 34/99/41 33/59/41 77/125/41
f 25/102/42 24/117/42 68/126/42
f 42/127/43 86/58/43 87/128/43
f 27/129/44 71/64/44 72/130/44
f 61/131/45 105/69/45 106/105/45
f 52/132/46 96/124/46 97/108/46
f 55/133/47 99/75/47 100/134/47
f 28/135/48 72/130/48 73/113/48
f 47/115/49 46/76/49 90/136/49
f 37/137/50 81/80/50 82/111/50
f 23/118/51 22/81/51 66/138/51
f 31/139/52 75/89/52 76/61/52
f 56/140/53 100/134/53 101/121/53
f 67/141/2 66/142/2 96/143/2
f 65/144/2 108/145/2 105/146/2
f 108/145/2 107/147/2 106/148/2
f 68/149/2 67/141/2 95/150/2
f 70/151/2 69/152/2 94/153/2
f 69/152/2 68/149/2 95/150/2
f 108/145/2 106/148/2 105/146/2
f 65/144/2 105/146/2 96/143/2
f 74/154/2 73/155/2 89/156/2
f 102/157/2 101/158/2 100/159/2
f 100/159/2 99/160/2 103/161/2
f 99/160/2 98/162/2 103/161/2
f 103/161/2 102/157/2 100/159/2
f 104/163/2 103/161/2 98/162/2
f 104/163/2 98/162/2 97/164/2
f 79/165/2 78/166/2 80/167/2
f 81/168/2 80/167/2 78/166/2
f 83/169/2 82/170/2 84/171/2
f 84/171/2 82/170/2 81/168/2
f 81/168/2 78/166/2 77/172/2
f 81/168/2 77/172/2 84/171/2
f 85/173/2 84/171/2 77/172/2
f 87/174/2 86/175/2 88/176/2
f 89/156/2 88/176/2 75/177/2
f 91/50/2 90/178/2 72/51/2
f 93/179/2 92/180/2 71/52/2
f 94/153/2 93/179/2 70/151/2
f 90/178/2 89/156/2 73/155/2
f 86/175/2 85/173/2 76/181/2
f 85/173/2 77/172/2 76/181/2
f 95/150/2 94/153/2 69/152/2
f 104/163/2 97/164/2 105/146/2
f 105/146/2 97/164/2 96/143/2
f 86/175/2 76/181/2 75/177/2
f 65/144/2 96/143/2 66/142/2
f 86/175/2 75/177/2 88/176/2
f 67/141/2 96/143/2 95/150/2
f 71/52/2 70/151/2 93/179/2
f 89/156/2 75/177/2 74/154/2
f 90/178/2 73/155/2 72/51/2
f 71/52/2 92/180/2 91/50/2
f 39/45/2 5/182/2 38/183/2
f 5/182/2 13/42/2 22/184/2
f 36/185/2 37/186/2 23/187/2
f 38/183/2 5/182/2 23/187/2
f 5/182/2 22/184/2 23/187/2
f 35/188/2 36/185/2 23/187/2
f 32/189/2 33/190/2 30/191/2
f 37/186/2 38/183/2 23/187/2
f 31/192/2 32/189/2 30/191/2
f 34/23/2 35/188/2 25/193/2
f 35/188/2 23/187/2 24/194/2
f 30/191/2 33/190/2 29/22/2
f 27/195/2 28/196/2 26/21/2
f 29/22/2 33/190/2 34/23/2
f 35/188/2 24/194/2 25/193/2
f 25/193/2 26/21/2 34/23/2
f 28/196/2 29/22/2 26/21/2
f 63/35/2 13/42/2 14/197/2
f 57/198/2 58/199/2 60/33/2
f 63/35/2 14/197/2 57/198/2
f 61/200/2 62/34/2 60/33/2
f 59/201/2 60/33/2 58/199/2
f 63/35/2 57/198/2 60/33/2
f 57/198/2 14/197/2 56/202/2
f 14/197/2 47/203/2 56/202/2
f 56/202/2 47/203/2 48/204/2
f 49/36/2 50/205/2 54/37/2
f 56/202/2 48/204/2 55/38/2
f 53/206/2 54/37/2 50/205/2
f 55/38/2 48/204/2 49/36/2
f 50/205/2 51/207/2 52/208/2
f 52/208/2 53/206/2 50/205/2
f 43/209/2 6/47/2 42/210/2
f 5/182/2 39/45/2 6/47/2
f 40/46/2 41/211/2 42/210/2
f 42/210/2 6/47/2 40/46/2
f 47/203/2 14/197/2 6/47/2
f 6/47/2 43/209/2 44/212/2
f 44/212/2 45/48/2 6/47/2
f 46/49/2 47/203/2 6/47/2
f 8/24/1 7/1/1 16/3/1
f 1/213/2 9/4/2 2/6/2
f 2/6/3 10/5/3 3/8/3
f 4/11/1 3/8/1 11/9/1
f 9/15/4 1/10/4 11/9/4
f 9/4/5 5/12/5 10/5/5
f 8/214/5 5/14/5 11/9/5
f 6/215/5 7/16/5 10/5/5
f 7/216/5 8/17/5 12/7/5
f 16/217/6 15/18/6 20/20/6
f 5/218/4 8/24/4 13/25/4
f 7/1/3 6/26/3 15/2/3
f 17/30/5 20/20/5 18/28/5
f 14/219/7 13/29/7 18/28/7
f 13/25/8 16/3/8 17/30/8
f 19/19/9 15/31/9 18/28/9
f 104/68/10 60/39/10 103/41/10
f 21/44/2 22/184/2 13/42/2
f 13/42/2 63/35/2 64/43/2
f 51/123/11 50/53/11 95/55/11
f 42/127/12 41/56/12 86/58/12
f 77/125/13 33/59/13 76/61/13
f 27/129/14 26/62/14 71/64/14
f 36/79/15 35/65/15 80/67/15
f 61/131/16 60/39/16 105/69/16
f 108/90/54 64/70/54 107/72/54
f 55/133/18 54/73/18 99/75/18
f 90/136/19 46/76/19 89/78/19
f 37/137/20 36/79/20 81/80/20
f 66/138/21 22/81/21 65/83/21
f 84/95/22 40/84/22 83/86/22
f 31/139/23 30/87/23 75/89/23
f 65/83/24 21/82/24 108/90/24
f 103/41/25 59/40/25 102/92/25
f 94/54/26 50/53/26 93/94/26
f 85/57/27 41/56/27 84/95/27
f 88/109/28 44/96/28 87/98/28
f 35/220/29 34/99/29 79/101/29
f 70/63/30 26/62/30 69/103/30
f 63/221/31 62/104/31 107/106/31
f 54/73/32 53/107/32 98/74/32
f 89/78/33 45/77/33 88/109/33
f 39/85/34 38/110/34 83/86/34
f 30/87/35 29/112/35 74/88/35
f 92/122/36 48/114/36 91/116/36
f 68/126/37 24/117/37 67/119/37
f 102/92/55 58/91/55 101/121/55
f 93/94/39 49/93/39 92/122/39
f 52/132/40 51/123/40 96/124/40
f 78/100/41 34/99/41 77/125/41
f 69/103/42 25/102/42 68/126/42
f 43/222/43 42/127/43 87/128/43
f 28/135/44 27/129/44 72/130/44
f 62/104/45 61/131/45 106/105/45
f 53/107/46 52/132/46 97/108/46
f 56/140/47 55/133/47 100/134/47
f 29/112/48 28/135/48 73/113/48
f 91/116/49 47/115/49 90/136/49
f 38/110/50 37/137/50 82/111/50
f 67/119/51 23/118/51 66/138/51
f 32/60/52 31/139/52 76/61/52
f 57/120/53 56/140/53 101/121/53
