# Blender v2.76 (sub 0) OBJ File: 'Axis.blend'
# www.blender.org
mtllib Axis.mtl
o Cylinder
v 0.019504 0.232029 0.001284
v 0.019504 1.095960 0.001284
v 0.118273 0.232029 0.073044
v 0.118273 1.095960 0.073044
v 0.080546 0.232029 0.189154
v 0.080546 1.095960 0.189154
v -0.041539 0.232029 0.189154
v -0.041539 1.095960 0.189154
v -0.079266 0.232029 0.073044
v -0.079266 1.095960 0.073044
v 0.019504 1.413065 0.105136
v 0.118273 0.132692 -0.827119
v 0.118273 0.132702 0.036811
v 0.019504 0.060932 -0.827119
v 0.019504 0.060942 0.036812
v 0.080546 0.248812 0.036810
v 0.080546 0.248802 -0.827121
v -0.041539 0.248812 0.036810
v -0.041539 0.248802 -0.827121
v -0.079266 0.132702 0.036811
v -0.079266 0.132692 -0.827119
v 0.019504 0.164781 -1.144225
v 0.918376 0.132692 0.217630
v 0.054445 0.132702 0.217630
v 0.918375 0.060932 0.118861
v 0.054444 0.060942 0.118861
v 0.054446 0.248812 0.179904
v 0.918377 0.248802 0.179904
v 0.054446 0.248812 0.057818
v 0.918377 0.248802 0.057818
v 0.054445 0.132702 0.020092
v 0.918376 0.132692 0.020092
v 1.235482 0.164781 0.118861
vt 0.137813 0.651513
vt 0.161887 0.588398
vt 0.594424 0.602278
vt 0.171622 0.531283
vt 0.595900 0.535239
vt 0.170574 0.476265
vt 0.595900 0.468257
vt 0.158828 0.420036
vt 0.133324 0.359090
vt 0.591133 0.333497
vt 0.594253 0.401068
vt 0.673149 0.478425
vt 0.950644 0.388261
vt 0.779143 0.624313
vt 0.595900 0.801590
vt 0.170575 0.809598
vt 0.158829 0.753368
vt 0.133324 0.692423
vt 0.591134 0.666830
vt 0.171622 0.864616
vt 0.161887 0.921730
vt 0.595900 0.868571
vt 0.592306 0.999837
vt 0.137814 0.984846
vt 0.000163 0.506484
vt 0.950644 0.095541
vt 0.779143 0.331593
vt 0.779143 0.039817
vt 0.000163 0.839816
vt 0.595899 0.134924
vt 0.170574 0.142931
vt 0.158829 0.086702
vt 0.133324 0.025756
vt 0.591133 0.000163
vt 0.171622 0.197950
vt 0.161887 0.255064
vt 0.595899 0.201905
vt 0.137813 0.318180
vt 0.594424 0.268944
vt 0.673149 0.771145
vt 0.950644 0.680981
vt 0.779142 0.917032
vt 0.000163 0.173150
vt 0.592306 0.666504
vt 0.950644 0.568588
vt 0.779143 0.332537
vt 0.594254 0.734401
vt 0.594425 0.935611
vt 0.673149 0.185705
vt 0.950644 0.275869
vt 0.594254 0.067735
vt 0.592306 0.333171
vt 0.950644 0.861309
vt 0.779143 0.625257
vn 0.587800 0.000000 -0.809000
vn 0.951100 0.000000 0.309000
vn 0.000000 0.000000 1.000000
vn -0.587800 0.000000 -0.809000
vn -0.951100 0.000000 0.309000
vn 0.000000 -1.000000 0.000000
vn -0.951100 0.309000 -0.000000
vn -0.587800 -0.809000 0.000000
vn 0.000000 1.000000 -0.000000
vn 0.951100 0.309000 -0.000000
vn 0.587800 -0.809000 0.000000
vn 0.919300 0.256100 0.298700
vn -0.919300 0.256100 0.298700
vn 0.568200 0.256100 -0.782000
vn 0.000000 0.256100 0.966600
vn -0.568200 0.256100 -0.782000
vn 0.919300 0.298700 -0.256100
vn -0.919300 0.298700 -0.256100
vn 0.568200 -0.782000 -0.256100
vn 0.000000 0.966600 -0.256100
vn -0.568200 -0.782000 -0.256100
vn 0.000000 0.309000 -0.951100
vn -0.000000 -0.809000 -0.587800
vn 0.000000 0.309000 0.951100
vn -0.000000 -0.809000 0.587800
vn -1.000000 0.000000 0.000000
vn 0.256100 0.298700 0.919300
vn 0.256100 0.298700 -0.919300
vn 0.256100 -0.782000 0.568200
vn 0.256100 0.966600 0.000000
vn 0.256100 -0.782000 -0.568200
usemtl Material.001
s off
f 2/1/1 4/2/1 3/3/1
f 4/2/2 6/4/2 5/5/2
f 6/4/3 8/6/3 7/7/3
f 10/8/4 2/9/4 1/10/4
f 8/6/5 10/8/5 9/11/5
f 3/12/6 7/13/6 1/14/6
f 18/15/7 19/16/7 21/17/7
f 21/17/8 14/18/8 15/19/8
f 17/20/9 19/16/9 18/15/9
f 12/21/10 17/20/10 16/22/10
f 15/23/11 14/24/11 12/21/11
f 6/4/12 4/2/12 11/25/12
f 10/8/13 8/6/13 11/25/13
f 4/2/14 2/1/14 11/25/14
f 8/6/15 6/4/15 11/25/15
f 2/9/16 10/8/16 11/25/16
f 13/26/3 18/27/3 15/28/3
f 17/20/17 12/21/17 22/29/17
f 21/17/18 19/16/18 22/29/18
f 12/21/19 14/24/19 22/29/19
f 19/16/20 17/20/20 22/29/20
f 14/18/21 21/17/21 22/29/21
f 29/30/22 30/31/22 32/32/22
f 32/32/23 25/33/23 26/34/23
f 28/35/9 30/31/9 29/30/9
f 23/36/24 28/35/24 27/37/24
f 25/38/25 23/36/25 24/39/25
f 24/40/26 29/41/26 26/42/26
f 28/35/27 23/36/27 33/43/27
f 32/32/28 30/31/28 33/43/28
f 23/36/29 25/38/29 33/43/29
f 30/31/30 28/35/30 33/43/30
f 25/33/31 32/32/31 33/43/31
f 1/44/1 2/1/1 3/3/1
f 3/3/2 4/2/2 5/5/2
f 5/5/3 6/4/3 7/7/3
f 9/11/4 10/8/4 1/10/4
f 7/7/5 8/6/5 9/11/5
f 9/45/6 1/14/6 7/13/6
f 3/12/6 5/46/6 7/13/6
f 20/47/7 18/15/7 21/17/7
f 20/47/8 21/17/8 15/19/8
f 16/22/9 17/20/9 18/15/9
f 13/48/10 12/21/10 16/22/10
f 13/48/11 15/23/11 12/21/11
f 20/49/3 15/28/3 18/27/3
f 13/26/3 16/50/3 18/27/3
f 31/51/22 29/30/22 32/32/22
f 31/51/23 32/32/23 26/34/23
f 27/37/9 28/35/9 29/30/9
f 24/39/24 23/36/24 27/37/24
f 26/52/25 25/38/25 24/39/25
f 31/53/26 26/42/26 29/41/26
f 24/40/26 27/54/26 29/41/26
