# Blender v2.76 (sub 0) OBJ File: 'Door_BlockPart.blend'
# www.blender.org
mtllib Door_BlockPart.mtl
o Cube.001
v -0.324946 0.104616 0.844596
v -0.324946 0.291788 0.844596
v -0.324946 0.935649 -0.819407
v -0.324946 1.122822 -0.819407
v -0.137774 0.104616 0.844596
v -0.137774 0.291788 0.844596
v -0.137774 0.935649 -0.819407
v -0.137774 1.122822 -0.819407
v 0.085712 1.155160 0.846380
v 0.085712 0.967987 0.846380
v 0.085712 0.324126 -0.817623
v 0.085712 0.136954 -0.817623
v 0.272884 1.155160 0.846380
v 0.272884 0.967987 0.846380
v 0.272884 0.324126 -0.817623
v 0.272884 0.136954 -0.817623
vt 0.000000 0.000000
vn -1.000000 0.000000 0.000000
vn 1.000000 0.000000 0.000000
vn 0.000000 -0.894600 -0.446800
vn 0.000000 0.894600 0.446800
vn 0.000000 0.894600 -0.446800
vn 0.000000 -0.894600 0.446800
usemtl None
s off
f 2/1/1 4/1/1 3/1/1
f 6/1/2 5/1/2 7/1/2
f 3/1/3 7/1/3 5/1/3
f 8/1/4 4/1/4 2/1/4
f 9/1/5 13/1/5 15/1/5
f 14/1/6 10/1/6 12/1/6
f 11/1/1 12/1/1 10/1/1
f 15/1/2 13/1/2 14/1/2
f 1/1/1 2/1/1 3/1/1
f 8/1/2 6/1/2 7/1/2
f 1/1/3 3/1/3 5/1/3
f 6/1/4 8/1/4 2/1/4
f 11/1/5 9/1/5 15/1/5
f 16/1/6 14/1/6 12/1/6
f 9/1/1 11/1/1 10/1/1
f 16/1/2 15/1/2 14/1/2
