# Blender v2.76 (sub 0) OBJ File: 'GhostlyRoof.blend'
# www.blender.org
mtllib GhostlyRoof.mtl
o Cube
v 0.675671 1.294557 -0.675671
v 0.675671 1.294557 0.675671
v -0.675671 1.294557 0.675671
v -0.675671 1.294557 -0.675671
v 0.559400 1.397581 -0.559400
v 0.559400 1.397581 0.559400
v -0.559400 1.397581 0.559400
v -0.559400 1.397581 -0.559400
vt 0.132160 0.149281
vt 0.528005 0.149128
vt 0.544133 0.544469
vt 0.148288 0.544622
vt 0.023245 0.651510
vt 0.653046 0.673609
vt 0.023247 0.020141
vt 0.653048 0.042240
vn 0.000000 1.000000 -0.000000
vn 0.663200 0.748500 0.000000
vn -0.000000 0.748500 0.663200
vn -0.663200 0.748500 -0.000000
vn 0.000000 0.748500 -0.663200
usemtl Material
s off
f 5/1/1 8/2/1 7/3/1
f 5/1/2 6/4/2 2/5/2
f 6/4/3 7/3/3 3/6/3
f 3/6/4 7/3/4 8/2/4
f 1/7/5 4/8/5 8/2/5
f 6/4/1 5/1/1 7/3/1
f 1/7/2 5/1/2 2/5/2
f 2/5/3 6/4/3 3/6/3
f 4/8/4 3/6/4 8/2/4
f 5/1/5 1/7/5 8/2/5
