# Blender v2.76 (sub 0) OBJ File: 'Key.blend'
# www.blender.org
mtllib Key.mtl
o Cube
v 0.022112 0.002884 -0.797426
v 0.022112 0.166776 -0.632507
v 0.503776 0.002884 -0.640924
v 0.406839 0.166776 -0.507502
v 0.801462 0.002884 -0.231196
v 0.644614 0.166776 -0.180233
v 0.801462 0.002884 0.275257
v 0.644614 0.166776 0.224294
v 0.503776 0.002884 0.684985
v 0.406839 0.166776 0.551563
v 0.022112 0.002884 0.841488
v 0.022112 0.166776 0.676568
v -0.459553 0.002884 0.684985
v -0.362616 0.166776 0.551563
v -0.757238 0.002884 0.275257
v -0.600391 0.166776 0.224294
v -0.757238 0.002884 -0.231196
v -0.600391 0.166776 -0.180233
v -0.459553 0.002884 -0.640924
v -0.362616 0.166776 -0.507502
v -0.558629 1.847799 0.150683
v -0.558629 1.847799 -0.254286
v -0.545907 1.651044 0.150683
v -0.545907 1.651044 -0.254286
v -0.397783 1.520914 0.150683
v -0.397783 1.520914 -0.254286
v -0.201029 1.533637 0.150683
v -0.201029 1.533637 -0.254286
v -0.070899 1.681760 0.150683
v -0.070898 1.681760 -0.254286
v -0.083621 1.878515 0.150683
v -0.083621 1.878515 -0.254286
v -0.231744 2.008645 0.150683
v -0.231744 2.008645 -0.254286
v -0.428499 1.995923 0.150683
v -0.428499 1.995922 -0.254286
v -0.702543 1.896792 0.150683
v -0.682312 1.583925 0.150683
v -0.682312 1.583925 -0.254286
v -0.702543 1.896792 -0.254286
v -0.446776 1.377000 0.150683
v -0.446776 1.377000 -0.254286
v -0.133909 1.397232 0.150683
v -0.133909 1.397232 -0.254286
v 0.073015 1.632767 0.150683
v 0.073015 1.632767 -0.254286
v 0.016443 1.977561 0.088199
v 0.016443 1.977561 -0.191802
v -0.146410 2.120632 0.088199
v -0.146410 2.120632 -0.191802
v -0.495618 2.132328 0.150683
v -0.495618 2.132328 -0.254286
v 0.493969 2.560944 -0.205916
v 0.493969 2.560944 0.102313
v 0.314698 2.718439 0.102313
v 0.314698 2.718438 -0.205916
v 0.597879 2.679221 -0.205916
v 0.597879 2.679221 0.102313
v 0.418608 2.836716 0.102313
v 0.418608 2.836716 -0.205916
v 0.699332 2.794702 -0.205916
v 0.699332 2.794702 0.102313
v 0.520061 2.952196 0.102313
v 0.520061 2.952196 -0.205916
v 0.785688 2.892999 -0.205916
v 0.785688 2.892999 0.102313
v 0.606417 3.050493 0.102313
v 0.606417 3.050493 -0.205916
v 0.868346 2.987086 -0.205916
v 0.868346 2.987086 0.102313
v 0.689075 3.144580 0.102313
v 0.689075 3.144580 -0.205916
v 0.120383 2.883654 -0.205916
v 0.120383 2.883654 0.102313
v 0.224293 3.001931 -0.205916
v 0.224293 3.001931 0.102313
v 0.263776 3.170101 -0.205916
v 0.263776 3.170101 0.102313
v 0.350132 3.268398 -0.205916
v 0.350132 3.268398 0.102313
vt 0.768015 0.210039
vt 0.707168 0.209004
vt 0.677902 0.114912
vt 0.728088 0.081045
vt 0.598826 0.057590
vt 0.500859 0.058500
vt 0.483204 0.000253
vt 0.421919 0.117353
vt 0.373233 0.080581
vt 0.392364 0.211641
vt 0.331317 0.210359
vt 0.423495 0.305420
vt 0.503396 0.362958
vt 0.483207 0.420338
vt 0.601380 0.362257
vt 0.619026 0.420338
vt 0.728211 0.339740
vt 0.679524 0.303571
vt 0.178873 0.845844
vt 0.268184 0.845844
vt 0.268184 0.961205
vt 0.357494 0.845844
vt 0.884387 0.000253
vt 0.999747 0.000253
vt 0.999747 0.089563
vt 0.999747 0.178873
vt 0.884387 0.178873
vt 0.999747 0.268184
vt 0.884387 0.268184
vt 0.330811 0.000253
vt 0.330811 0.190313
vt 0.215451 0.190313
vt 0.457204 0.420843
vt 0.546514 0.420843
vt 0.546514 0.610903
vt 0.089563 0.961205
vt 0.089563 0.845844
vt 0.000253 0.845844
vt 0.089563 0.509175
vt 0.089563 0.568099
vt 0.000253 0.568099
vt 0.944125 0.628316
vt 0.984135 0.644889
vt 0.920983 0.708041
vt 0.944125 0.788271
vt 0.904410 0.748556
vt 0.920983 0.708547
vt 0.904411 0.668031
vt 0.831673 0.708041
vt 0.848245 0.748556
vt 0.831673 0.708547
vt 0.808530 0.628317
vt 0.848245 0.668031
vt 0.808530 0.788271
vt 0.768521 0.771699
vt 0.808530 0.572151
vt 0.768521 0.644889
vt 0.808530 0.844436
vt 0.768521 0.861009
vt 0.848245 0.532436
vt 0.768521 0.555579
vt 0.848245 0.884151
vt 0.831672 0.924161
vt 0.831673 0.492427
vt 0.920983 0.492427
vt 0.904410 0.884151
vt 0.920983 0.924161
vt 0.904411 0.532436
vt 0.984135 0.555579
vt 0.944125 0.844437
vt 0.984135 0.861009
vt 0.944125 0.572151
vt 0.984135 0.771699
vt 0.547020 0.477008
vt 0.547020 0.420843
vt 0.662380 0.420843
vt 0.547020 0.870165
vt 0.547020 0.814000
vt 0.662380 0.814000
vt 0.547020 0.757835
vt 0.662380 0.757835
vt 0.547020 0.701669
vt 0.662380 0.701669
vt 0.547020 0.645504
vt 0.662380 0.645504
vt 0.547020 0.589339
vt 0.662380 0.589339
vt 0.547020 0.533174
vt 0.662380 0.533174
vt 0.662380 0.477008
vt 0.089563 0.319115
vt 0.000253 0.509175
vt 0.768521 0.000253
vt 0.883881 0.000253
vt 0.883881 0.190313
vt 0.330811 0.440157
vt 0.330811 0.497688
vt 0.215451 0.497688
vt 0.883881 0.249237
vt 0.768521 0.249237
vt 0.215451 0.440157
vt 0.215451 0.344697
vt 0.330811 0.344697
vt 0.457204 0.610903
vt 0.546514 0.669827
vt 0.000253 0.625630
vt 0.089563 0.625630
vt 0.089563 0.674600
vt 0.457204 0.669827
vt 0.546514 0.727358
vt 0.883881 0.306768
vt 0.768521 0.306768
vt 0.000253 0.674600
vt 0.089563 0.721473
vt 0.883881 0.355738
vt 0.768521 0.355738
vt 0.361756 0.668282
vt 0.546514 0.776329
vt 0.457204 0.776329
vt 0.883881 0.402611
vt 0.883881 0.491921
vt 0.768521 0.491921
vt 0.768521 0.402611
vt 0.330811 0.798466
vt 0.330811 0.845339
vt 0.215451 0.845339
vt 0.546514 0.823201
vt 0.457204 0.823201
vt 0.330811 0.285773
vt 0.330811 0.623592
vt 0.330811 0.672562
vt 0.215451 0.672562
vt 0.457204 0.727358
vt 0.331317 0.774291
vt 0.215451 0.798466
vt 0.215451 0.285773
vt 0.185011 0.507630
vt 0.185011 0.566554
vt 0.215451 0.623592
vt 0.619085 0.000380
vt 0.373312 0.340067
vt 0.178873 0.961205
vt 0.357494 0.961205
vt 0.884387 0.089563
vt 0.215451 0.000253
vt 0.000253 0.961205
vt 0.662380 0.870165
vt 0.000253 0.319115
vt 0.768521 0.190313
vt 0.000253 0.721473
vt 0.361756 0.609358
vt 0.331317 0.725320
vn 0.223300 0.691400 -0.687100
vn 0.584500 0.691400 -0.424700
vn 0.722500 0.691400 0.000000
vn 0.584500 0.691400 0.424700
vn 0.223300 0.691400 0.687100
vn -0.223300 0.691400 0.687100
vn -0.584500 0.691400 0.424700
vn -0.722500 0.691400 0.000000
vn 0.000000 1.000000 0.000000
vn -0.223300 0.691400 -0.687100
vn -0.584500 0.691400 -0.424700
vn -0.997900 -0.064500 0.000000
vn -0.660000 -0.751300 0.000000
vn 0.064500 -0.997900 0.000000
vn 0.751300 -0.660000 0.000000
vn 0.986800 0.161900 -0.000000
vn -0.791800 0.610800 -0.000000
vn -0.012400 -0.014100 0.999800
vn -0.751300 0.660000 0.000000
vn 0.033500 0.999400 0.000000
vn 0.000000 -0.000000 -1.000000
vn -0.000000 0.000000 1.000000
vn 0.348600 0.222200 -0.910500
vn 0.268300 0.305400 0.913700
vn 0.268300 0.305400 -0.913700
vn 0.175500 0.374300 0.910500
vn 0.997900 0.064500 0.000000
vn 0.660000 0.751300 0.000000
vn -0.064500 0.997900 -0.000000
vn -0.012400 -0.014100 -0.999800
vn 0.773800 -0.633400 0.000000
vn 0.647800 0.761800 0.000000
vn -0.647800 -0.761800 0.000000
vn 0.348600 0.222200 0.910500
vn 0.175500 0.374300 -0.910500
usemtl Material
s off
f 1/1/1 2/2/1 4/3/1
f 3/4/2 4/3/2 6/5/2
f 6/5/3 8/6/3 7/7/3
f 8/6/4 10/8/4 9/9/4
f 9/9/5 10/8/5 12/10/5
f 11/11/6 12/10/6 14/12/6
f 14/12/7 16/13/7 15/14/7
f 16/13/8 18/15/8 17/16/8
f 18/15/9 10/8/9 2/2/9
f 19/17/10 20/18/10 2/2/10
f 17/16/11 18/15/11 20/18/11
f 40/19/12 39/20/12 38/21/12
f 38/21/13 39/20/13 42/22/13
f 41/23/14 42/24/14 44/25/14
f 44/25/15 46/26/15 45/27/15
f 46/26/16 48/28/16 47/29/16
f 49/30/17 55/31/17 56/32/17
f 49/33/18 47/34/18 54/35/18
f 51/36/19 52/37/19 40/19/19
f 50/38/20 52/37/20 51/36/20
f 56/39/21 60/40/21 57/41/21
f 21/42/22 37/43/22 38/44/22
f 22/45/21 24/46/21 39/47/21
f 23/48/22 38/44/22 41/49/22
f 26/50/21 42/51/21 39/47/21
f 27/52/22 25/53/22 41/49/22
f 26/50/21 28/54/21 44/55/21
f 29/56/22 27/52/22 43/57/22
f 30/58/21 46/59/21 44/55/21
f 31/60/22 29/56/22 45/61/22
f 32/62/23 48/63/23 46/59/23
f 31/60/24 47/64/24 49/65/24
f 32/62/25 34/66/25 50/67/25
f 33/68/26 49/65/26 51/69/26
f 34/66/21 36/70/21 52/71/21
f 35/72/22 51/69/22 37/43/22
f 36/70/21 22/45/21 40/73/21
f 24/74/13 26/75/13 25/76/13
f 26/77/14 28/78/14 27/79/14
f 28/78/15 30/80/15 29/81/15
f 30/80/27 32/82/27 31/83/27
f 32/82/28 34/84/28 33/85/28
f 34/84/29 36/86/29 35/87/29
f 36/86/19 22/88/19 21/89/19
f 22/88/12 24/74/12 23/90/12
f 50/91/30 56/39/30 53/92/30
f 47/93/31 48/94/31 53/95/31
f 59/96/19 63/97/19 64/98/19
f 53/95/15 57/99/15 58/100/15
f 60/101/32 75/102/32 76/103/32
f 55/104/22 54/35/22 58/105/22
f 61/106/21 64/107/21 68/108/21
f 59/109/22 58/105/22 62/110/22
f 60/40/21 64/107/21 61/106/21
f 57/99/15 61/111/15 62/112/15
f 65/113/21 68/108/21 72/114/21
f 61/111/15 65/115/15 66/116/15
f 55/104/22 59/109/22 76/117/22
f 62/110/22 66/118/22 67/119/22
f 69/120/28 72/121/28 71/122/28
f 65/115/15 69/120/15 70/123/15
f 67/124/19 71/125/19 72/126/19
f 66/118/22 70/127/22 71/128/22
f 74/129/19 76/103/19 75/102/19
f 78/130/19 80/131/19 79/132/19
f 63/133/22 67/119/22 80/134/22
f 68/135/32 79/132/32 80/131/32
f 55/31/33 74/129/33 73/136/33
f 56/39/21 73/137/21 75/138/21
f 64/98/33 63/97/33 78/130/33
f 64/107/21 77/139/21 79/132/21
f 3/4/1 1/1/1 4/3/1
f 5/140/2 3/4/2 6/5/2
f 5/140/3 6/5/3 7/7/3
f 7/7/4 8/6/4 9/9/4
f 11/11/5 9/9/5 12/10/5
f 13/141/6 11/11/6 14/12/6
f 13/141/7 14/12/7 15/14/7
f 15/14/8 16/13/8 17/16/8
f 6/5/9 4/3/9 2/2/9
f 2/2/9 20/18/9 18/15/9
f 18/15/9 16/13/9 14/12/9
f 14/12/9 12/10/9 18/15/9
f 10/8/9 8/6/9 6/5/9
f 6/5/9 2/2/9 10/8/9
f 18/15/9 12/10/9 10/8/9
f 1/1/10 19/17/10 2/2/10
f 19/17/11 17/16/11 20/18/11
f 37/142/12 40/19/12 38/21/12
f 41/143/13 38/21/13 42/22/13
f 43/144/14 41/23/14 44/25/14
f 43/144/15 44/25/15 45/27/15
f 45/27/16 46/26/16 47/29/16
f 50/145/17 49/30/17 56/32/17
f 55/104/18 49/33/18 54/35/18
f 37/142/19 51/36/19 40/19/19
f 49/146/20 50/38/20 51/36/20
f 53/92/21 56/39/21 57/41/21
f 23/48/22 21/42/22 38/44/22
f 40/73/21 22/45/21 39/47/21
f 25/53/22 23/48/22 41/49/22
f 24/46/21 26/50/21 39/47/21
f 43/57/22 27/52/22 41/49/22
f 42/51/21 26/50/21 44/55/21
f 45/61/22 29/56/22 43/57/22
f 28/54/21 30/58/21 44/55/21
f 47/64/34 31/60/34 45/61/34
f 30/58/21 32/62/21 46/59/21
f 33/68/24 31/60/24 49/65/24
f 48/63/25 32/62/25 50/67/25
f 35/72/22 33/68/22 51/69/22
f 50/67/35 34/66/35 52/71/35
f 21/42/22 35/72/22 37/43/22
f 52/71/21 36/70/21 40/73/21
f 23/90/13 24/74/13 25/76/13
f 25/147/14 26/77/14 27/79/14
f 27/79/15 28/78/15 29/81/15
f 29/81/27 30/80/27 31/83/27
f 31/83/28 32/82/28 33/85/28
f 33/85/29 34/84/29 35/87/29
f 35/87/19 36/86/19 21/89/19
f 21/89/12 22/88/12 23/90/12
f 48/148/30 50/91/30 53/92/30
f 54/149/31 47/93/31 53/95/31
f 60/101/19 59/96/19 64/98/19
f 54/149/15 53/95/15 58/100/15
f 59/96/32 60/101/32 76/103/32
f 59/109/22 55/104/22 58/105/22
f 65/113/21 61/106/21 68/108/21
f 63/133/22 59/109/22 62/110/22
f 57/41/21 60/40/21 61/106/21
f 58/100/15 57/99/15 62/112/15
f 69/150/21 65/113/21 72/114/21
f 62/112/15 61/111/15 66/116/15
f 74/151/22 55/104/22 76/117/22
f 63/133/22 62/110/22 67/119/22
f 70/123/28 69/120/28 71/122/28
f 66/116/15 65/115/15 70/123/15
f 68/135/19 67/124/19 72/126/19
f 67/119/22 66/118/22 71/128/22
f 73/136/19 74/129/19 75/102/19
f 77/139/19 78/130/19 79/132/19
f 78/152/22 63/133/22 80/134/22
f 67/124/32 68/135/32 80/131/32
f 56/32/33 55/31/33 73/136/33
f 60/40/21 56/39/21 75/138/21
f 77/139/33 64/98/33 78/130/33
f 68/108/21 64/107/21 79/132/21
