# Blender v2.76 (sub 0) OBJ File: 'Obelisk.blend'
# www.blender.org
mtllib Obelisk.mtl
o Cube.001
v 0.479850 -0.479850 -0.025671
v 0.427850 -0.427850 1.665797
v -0.479850 -0.479850 -0.025671
v -0.427850 -0.427850 1.665797
v 0.479850 0.479850 -0.025671
v 0.427850 0.427850 1.665797
v -0.479850 0.479850 -0.025671
v -0.427850 0.427850 1.665797
v 0.544815 -0.544815 1.748401
v -0.544815 -0.544815 1.748401
v -0.544815 0.544815 1.748401
v 0.544815 0.544815 1.748401
v 0.544815 -0.544815 2.019014
v -0.544815 -0.544815 2.019014
v -0.544815 0.544815 2.019014
v 0.544815 0.544815 2.019014
v 0.424312 -0.424312 2.091112
v -0.424312 -0.424312 2.091112
v -0.424312 0.424312 2.091112
v 0.424312 0.424312 2.091112
v 0.424312 -0.424312 2.750430
v -0.424312 -0.424312 2.750430
v -0.424312 0.424312 2.750430
v 0.424312 0.424312 2.750430
v 0.307252 -0.307252 3.024907
v -0.307252 -0.307252 3.024907
v -0.307252 0.307252 3.024907
v 0.307252 0.307252 3.024907
v 0.054053 -0.258888 3.024907
v -0.054053 -0.258888 3.024907
v -0.258888 -0.054053 3.024907
v -0.258888 0.054053 3.024907
v -0.054053 0.258888 3.024907
v 0.054053 0.258888 3.024907
v 0.258888 0.054053 3.024907
v 0.258888 -0.054053 3.024907
v 0.150781 0.054053 3.024907
v 0.150781 -0.054053 3.024907
v -0.150781 0.054053 3.024907
v -0.150781 -0.054053 3.024907
v 0.102417 -0.307252 3.024907
v -0.102417 -0.307252 3.024907
v -0.307252 -0.102417 3.024907
v -0.307252 0.102417 3.024907
v -0.102417 0.307252 3.024907
v 0.102417 0.307252 3.024907
v 0.307252 0.102417 3.024907
v 0.307252 -0.102417 3.024907
v 0.054053 -0.258888 3.529496
v 0.102417 -0.102417 3.024907
v 0.054053 -0.150781 3.024907
v 0.102417 0.102417 3.024907
v 0.054053 0.150781 3.024907
v -0.102417 -0.102417 3.024907
v -0.054053 -0.150781 3.024907
v -0.102417 0.102417 3.024907
v -0.054053 0.150781 3.024907
v -0.054053 -0.258888 3.529496
v -0.258888 -0.054053 3.529496
v -0.258888 0.054053 3.529496
v -0.054053 0.258888 3.529496
v 0.054053 0.258888 3.529496
v 0.258888 0.054053 3.529496
v 0.258888 -0.054053 3.529496
v 0.054053 -0.150781 3.529496
v 0.054053 0.150781 3.529496
v 0.150781 0.054053 3.529496
v 0.150781 -0.054053 3.529496
v -0.054053 -0.150781 3.529496
v -0.054053 0.150781 3.529496
v -0.150781 0.054053 3.529496
v -0.150781 -0.054053 3.529496
v 0.984837 -0.171123 -0.024116
v 0.639738 -0.171123 1.099566
v 0.405715 -0.171123 -0.024116
v 0.405715 -0.171123 1.099566
v 0.984837 0.184324 -0.024116
v 0.639738 0.184324 1.099566
v 0.405715 0.184324 -0.024116
v 0.405715 0.184324 1.099566
v 0.156262 0.986616 -0.024116
v 0.156262 0.641517 1.099566
v 0.156262 0.407493 -0.024116
v 0.156262 0.407493 1.099566
v -0.199185 0.986616 -0.024116
v -0.199185 0.641517 1.099566
v -0.199185 0.407493 -0.024116
v -0.199185 0.407493 1.099566
v -1.007276 0.159070 -0.024116
v -0.662178 0.159070 1.099566
v -0.428154 0.159070 -0.024116
v -0.428154 0.159070 1.099566
v -1.007276 -0.196378 -0.024116
v -0.662178 -0.196378 1.099566
v -0.428154 -0.196378 -0.024116
v -0.428154 -0.196378 1.099566
v -0.178702 -0.998669 -0.024116
v -0.178702 -0.653571 1.099566
v -0.178702 -0.419547 -0.024116
v -0.178702 -0.419547 1.099566
v 0.176746 -0.998670 -0.024116
v 0.176746 -0.653571 1.099566
v 0.176746 -0.419547 -0.024116
v 0.176746 -0.419547 1.099566
vt 0.729096 0.925764
vt 0.719829 0.624166
vt 0.890868 0.624166
vt 0.009585 0.999683
vt 0.000317 0.698085
vt 0.171356 0.698085
vt 0.708419 0.386522
vt 0.699251 0.084921
vt 0.870290 0.084977
vt 0.557423 0.925764
vt 0.548155 0.624166
vt 0.719194 0.624166
vt 0.204703 0.266476
vt 0.202827 0.290087
vt 0.003275 0.279427
vt 0.206839 0.332197
vt 0.000317 0.353351
vt 0.491323 0.259850
vt 0.489457 0.288309
vt 0.345082 0.286574
vt 0.669152 0.252095
vt 0.698617 0.289041
vt 0.346315 0.261399
vt 0.206925 0.360052
vt 0.034272 0.386142
vt 0.490540 0.330912
vt 0.349797 0.328977
vt 0.687632 0.362946
vt 0.624729 0.109461
vt 0.555162 0.222047
vt 0.441318 0.142299
vt 0.486975 0.353745
vt 0.348442 0.353514
vt 0.657925 0.386572
vt 0.190534 0.131986
vt 0.172532 0.208399
vt 0.048219 0.205028
vt 0.317860 0.000317
vt 0.320151 0.115101
vt 0.155640 0.022698
vt 0.477738 0.030561
vt 0.968551 0.460218
vt 0.968551 0.496724
vt 0.932045 0.496724
vt 0.385979 0.180182
vt 0.478073 0.229580
vt 0.280088 0.173527
vt 0.895540 0.460218
vt 0.895540 0.496724
vt 0.859034 0.496724
vt 0.909458 0.194750
vt 0.909458 0.284679
vt 0.890191 0.284679
vt 0.895540 0.387206
vt 0.895540 0.423712
vt 0.859034 0.423712
vt 0.928725 0.194750
vt 0.928725 0.284679
vt 0.930036 0.624166
vt 0.930036 0.714095
vt 0.910769 0.714095
vt 0.932045 0.423712
vt 0.932045 0.460218
vt 0.968551 0.387206
vt 0.968551 0.423712
vt 0.947992 0.084921
vt 0.947992 0.174849
vt 0.928725 0.174849
vt 0.923426 0.488105
vt 0.959932 0.432332
vt 0.904159 0.395826
vt 0.932045 0.387206
vt 0.867653 0.451599
vt 0.859034 0.460218
vt 0.904159 0.488105
vt 0.904159 0.415093
vt 0.886920 0.432332
vt 0.923426 0.468838
vt 0.923426 0.395826
vt 0.940665 0.451599
vt 0.867653 0.432332
vt 0.886920 0.451599
vt 0.923426 0.415093
vt 0.904159 0.468838
vt 0.940665 0.432332
vt 0.959932 0.451599
vt 0.936101 0.587287
vt 0.936101 0.606554
vt 0.916834 0.606554
vt 0.947992 0.284679
vt 0.947992 0.303946
vt 0.949303 0.733362
vt 0.949303 0.714095
vt 0.968569 0.714095
vt 0.947992 0.194116
vt 0.928725 0.194116
vt 0.890191 0.194750
vt 0.870924 0.284679
vt 0.916834 0.497358
vt 0.916834 0.587287
vt 0.897568 0.587287
vt 0.968569 0.624166
vt 0.910769 0.624166
vt 0.891502 0.714095
vt 0.936101 0.497358
vt 0.947992 0.194750
vt 0.890191 0.084921
vt 0.890191 0.174849
vt 0.870924 0.174849
vt 0.878301 0.497358
vt 0.878301 0.587287
vt 0.859034 0.587287
vt 0.897568 0.497358
vt 0.928725 0.084921
vt 0.909458 0.174849
vt 0.949303 0.624166
vt 0.909458 0.084921
vt 0.363194 0.576069
vt 0.343495 0.612381
vt 0.237277 0.442007
vt 0.719909 0.576638
vt 0.739321 0.387206
vt 0.858400 0.447881
vt 0.409030 0.576638
vt 0.428443 0.387206
vt 0.547521 0.447881
vt 0.351897 0.387206
vt 0.674072 0.576069
vt 0.654374 0.612381
vt 0.548155 0.442008
vt 0.422785 0.623532
vt 0.662776 0.387206
vt 0.733664 0.623532
vt 0.189180 0.571534
vt 0.225492 0.591232
vt 0.055118 0.697451
vt 0.409030 0.813598
vt 0.428443 0.624166
vt 0.547521 0.684841
vt 0.189748 0.525697
vt 0.000317 0.506285
vt 0.060992 0.387206
vt 0.000317 0.582830
vt 0.363194 0.813029
vt 0.343495 0.849341
vt 0.237277 0.678967
vt 0.236643 0.511942
vt 0.351897 0.624166
vt 0.422785 0.860492
vt 0.881600 0.925764
vt 0.162089 0.999683
vt 0.860923 0.386572
vt 0.709927 0.925765
vt 0.029614 0.252093
vt 0.100966 0.251459
vt 0.137338 0.229924
vt 0.206835 0.185867
vt 0.000317 0.084354
vt 0.316458 0.166171
vt 0.351564 0.173488
vt 0.420526 0.185823
vt 0.449299 0.207702
vt 0.506846 0.251459
vt 0.243838 0.179848
vt 0.859034 0.387206
vt 0.928725 0.303946
vt 0.968569 0.733362
vt 0.870924 0.194750
vt 0.891502 0.624166
vt 0.870924 0.084921
vt 0.859034 0.497358
vn 0.000000 -0.999500 0.030700
vn -0.999500 0.000000 0.030700
vn 0.000000 0.999500 0.030700
vn 0.999500 0.000000 0.030700
vn 0.000000 0.576900 -0.816800
vn 0.000000 1.000000 0.000000
vn 0.000000 -0.576900 -0.816800
vn 0.576900 0.000000 -0.816800
vn -0.576900 0.000000 -0.816800
vn 0.000000 0.513400 0.858100
vn 0.000000 -1.000000 0.000000
vn 1.000000 0.000000 0.000000
vn -1.000000 0.000000 0.000000
vn 0.000000 -0.513400 0.858100
vn 0.513400 0.000000 0.858100
vn -0.513400 0.000000 0.858100
vn 0.000000 0.919800 0.392300
vn 0.000000 0.000000 1.000000
vn 0.000000 -0.919800 0.392300
vn 0.919800 0.000000 0.392300
vn -0.919800 0.000000 0.392300
vn 0.955900 0.000000 0.293600
vn 0.000000 0.955900 0.293600
vn -0.955900 0.000000 0.293600
vn -0.000000 -0.955900 0.293600
usemtl None
s off
f 4/1/1 3/2/1 1/3/1
f 8/4/2 7/5/2 3/6/2
f 6/7/3 5/8/3 7/9/3
f 2/10/4 1/11/4 5/12/4
f 8/13/5 11/14/5 12/15/5
f 11/14/6 15/16/6 16/17/6
f 2/18/7 9/19/7 10/20/7
f 6/21/8 12/22/8 9/19/8
f 4/23/9 10/20/9 11/14/9
f 15/16/10 19/24/10 20/25/10
f 9/19/11 13/26/11 14/27/11
f 12/22/12 16/28/12 13/26/12
f 10/20/13 14/27/13 15/16/13
f 20/29/12 24/30/12 21/31/12
f 13/26/14 17/32/14 18/33/14
f 16/28/15 20/34/15 17/32/15
f 14/27/16 18/33/16 19/24/16
f 23/35/17 45/36/17 24/37/17
f 18/38/13 22/39/13 23/35/13
f 19/40/6 23/35/6 24/37/6
f 17/41/11 21/31/11 22/39/11
f 43/42/18 26/43/18 42/44/18
f 21/31/19 41/45/19 22/39/19
f 24/30/20 47/46/20 21/31/20
f 22/39/21 43/47/21 23/35/21
f 50/48/18 41/49/18 25/50/18
f 35/51/12 63/52/12 64/53/12
f 46/54/18 52/55/18 47/56/18
f 37/57/6 67/58/6 63/52/6
f 33/59/6 61/60/6 62/61/6
f 56/62/18 54/63/18 50/48/18
f 27/64/18 44/65/18 56/62/18
f 39/66/12 71/67/12 72/68/12
f 30/69/18 42/44/18 41/49/18
f 32/70/18 44/65/18 43/42/18
f 34/71/18 46/54/18 45/72/18
f 36/73/18 48/74/18 47/56/18
f 29/75/18 41/49/18 50/48/18
f 53/76/18 52/55/18 46/54/18
f 37/77/18 52/55/18 50/48/18
f 55/78/18 54/63/18 42/44/18
f 33/79/18 45/72/18 56/62/18
f 40/80/18 54/63/18 56/62/18
f 35/81/18 47/56/18 52/55/18
f 38/82/18 50/48/18 48/74/18
f 57/83/18 56/62/18 52/55/18
f 51/84/18 50/48/18 54/63/18
f 39/85/18 56/62/18 44/65/18
f 31/86/18 43/42/18 54/63/18
f 69/87/18 58/88/18 49/89/18
f 67/58/18 68/90/18 64/91/18
f 61/92/18 70/93/18 66/94/18
f 60/95/18 59/96/18 72/68/18
f 36/97/11 64/53/11 68/98/11
f 51/99/12 65/100/12 49/101/12
f 53/102/11 66/94/11 70/93/11
f 34/103/12 62/61/12 66/104/12
f 55/105/6 69/87/6 65/100/6
f 38/106/13 68/90/13 67/58/13
f 32/107/6 60/108/6 71/109/6
f 30/110/13 58/111/13 69/112/13
f 29/113/11 49/101/11 58/111/11
f 40/114/11 72/68/11 59/115/11
f 57/116/13 70/93/13 61/60/13
f 31/117/13 59/115/13 60/108/13
f 74/118/11 76/119/11 75/120/11
f 86/121/13 85/122/13 87/123/13
f 78/124/6 77/125/6 79/126/6
f 74/118/22 73/127/22 77/125/22
f 82/128/12 84/129/12 83/130/12
f 80/131/18 76/119/18 74/118/18
f 82/128/23 81/132/23 85/122/23
f 88/133/18 84/129/18 82/128/18
f 90/134/6 92/135/6 91/136/6
f 102/137/12 101/138/12 103/139/12
f 94/140/11 93/141/11 95/142/11
f 90/134/24 89/143/24 93/141/24
f 98/144/13 100/145/13 99/146/13
f 96/147/18 92/135/18 90/134/18
f 98/144/25 97/148/25 101/138/25
f 104/149/18 100/145/18 98/144/18
f 2/150/1 4/1/1 1/3/1
f 4/151/2 8/4/2 3/6/2
f 8/152/3 6/7/3 7/9/3
f 6/153/4 2/10/4 5/12/4
f 6/154/5 8/13/5 12/15/5
f 12/15/6 11/14/6 16/17/6
f 4/23/7 2/18/7 10/20/7
f 2/18/8 6/21/8 9/19/8
f 8/13/9 4/23/9 11/14/9
f 16/17/10 15/16/10 20/25/10
f 10/20/11 9/19/11 14/27/11
f 9/19/12 12/22/12 13/26/12
f 11/14/13 10/20/13 15/16/13
f 17/41/12 20/29/12 21/31/12
f 14/27/14 13/26/14 18/33/14
f 13/26/15 16/28/15 17/32/15
f 15/16/16 14/27/16 19/24/16
f 28/155/17 24/37/17 46/156/17
f 23/35/17 27/157/17 45/36/17
f 45/36/17 46/156/17 24/37/17
f 19/40/13 18/38/13 23/35/13
f 20/158/6 19/40/6 24/37/6
f 18/38/11 17/41/11 22/39/11
f 54/63/18 43/42/18 42/44/18
f 26/159/19 22/39/19 42/160/19
f 21/31/19 25/161/19 41/45/19
f 41/45/19 42/160/19 22/39/19
f 25/161/20 21/31/20 48/162/20
f 24/30/20 28/163/20 47/46/20
f 47/46/20 48/162/20 21/31/20
f 27/157/21 23/35/21 44/164/21
f 22/39/21 26/159/21 43/47/21
f 43/47/21 44/164/21 23/35/21
f 48/74/18 50/48/18 25/50/18
f 36/97/12 35/51/12 64/53/12
f 28/165/18 46/54/18 47/56/18
f 35/51/6 37/57/6 63/52/6
f 34/103/6 33/59/6 62/61/6
f 52/55/18 56/62/18 50/48/18
f 45/72/18 27/64/18 56/62/18
f 40/114/12 39/66/12 72/68/12
f 29/75/18 30/69/18 41/49/18
f 31/86/18 32/70/18 43/42/18
f 33/79/18 34/71/18 45/72/18
f 35/81/18 36/73/18 47/56/18
f 51/84/18 29/75/18 50/48/18
f 34/71/18 53/76/18 46/54/18
f 38/82/18 37/77/18 50/48/18
f 30/69/18 55/78/18 42/44/18
f 57/83/18 33/79/18 56/62/18
f 39/85/18 40/80/18 56/62/18
f 37/77/18 35/81/18 52/55/18
f 36/73/18 38/82/18 48/74/18
f 53/76/18 57/83/18 52/55/18
f 55/78/18 51/84/18 54/63/18
f 32/70/18 39/85/18 44/65/18
f 40/80/18 31/86/18 54/63/18
f 65/100/18 69/87/18 49/89/18
f 63/166/18 67/58/18 64/91/18
f 62/167/18 61/92/18 66/94/18
f 71/67/18 60/95/18 72/68/18
f 38/168/11 36/97/11 68/98/11
f 29/113/12 51/99/12 49/101/12
f 57/116/11 53/102/11 70/93/11
f 53/169/12 34/103/12 66/104/12
f 51/99/6 55/105/6 65/100/6
f 37/57/13 38/106/13 67/58/13
f 39/170/6 32/107/6 71/109/6
f 55/171/13 30/110/13 69/112/13
f 30/110/11 29/113/11 58/111/11
f 31/117/11 40/114/11 59/115/11
f 33/59/13 57/116/13 61/60/13
f 32/107/13 31/117/13 60/108/13
f 73/127/11 74/118/11 75/120/11
f 88/133/13 86/121/13 87/123/13
f 80/131/6 78/124/6 79/126/6
f 78/124/22 74/118/22 77/125/22
f 81/132/12 82/128/12 83/130/12
f 78/124/18 80/131/18 74/118/18
f 86/121/23 82/128/23 85/122/23
f 86/121/18 88/133/18 82/128/18
f 89/143/6 90/134/6 91/136/6
f 104/149/12 102/137/12 103/139/12
f 96/147/11 94/140/11 95/142/11
f 94/140/24 90/134/24 93/141/24
f 97/148/13 98/144/13 99/146/13
f 94/140/18 96/147/18 90/134/18
f 102/137/25 98/144/25 101/138/25
f 102/137/18 104/149/18 98/144/18
