# Blender v2.76 (sub 0) OBJ File: 'Pickup_ArmorPierce.blend'
# www.blender.org
mtllib Pickup_ArmorPierce.mtl
o Cube
v 0.149881 0.023110 1.675507
v 0.325962 0.120335 1.191751
v 0.762603 0.120335 2.185864
v 0.372073 0.023110 1.820431
v 0.180362 0.023110 2.011769
v 0.193565 0.120335 1.454394
v 0.308832 0.120335 2.320312
v 0.193565 0.023110 1.454394
v 0.131948 0.120335 1.249235
v 0.331252 0.120335 2.213548
v 0.311426 0.023110 1.495421
v 0.325962 0.023110 1.191751
v 0.131948 0.023110 1.249235
v 0.563139 0.023110 1.344894
v 0.762603 0.023110 2.185864
v 0.180362 0.120335 2.011769
v 0.372073 0.120335 1.820431
v 0.149881 0.120335 1.675507
v 0.311426 0.120335 1.495421
v 0.061925 0.120334 1.408584
v 0.061925 0.023110 1.408584
v -0.211606 0.023110 1.227117
v -0.147329 0.023110 1.370845
v -0.147329 0.120334 1.370845
v 0.042614 0.120335 1.554457
v -0.179637 0.120335 1.650023
v -0.038877 0.120335 1.874876
v -0.293229 0.120335 1.967982
v -0.016845 0.023110 1.255652
v 0.042614 0.023110 1.554457
v -0.424616 0.023110 1.412407
v -0.241060 0.120335 2.214478
v -0.016845 0.120335 1.255652
v -0.047110 0.023110 1.467716
v -0.306254 0.120335 2.301948
v -0.047110 0.120335 1.467716
v -0.293229 0.023110 1.967982
v -0.038877 0.023110 1.874876
v -0.502563 0.120335 2.273186
v -0.179637 0.023110 1.650023
v -0.638050 0.023110 2.156315
v -0.211606 0.120335 1.227117
v -0.638050 0.120335 2.156315
v -0.424616 0.120335 1.412407
v -0.502563 0.023110 2.273186
v -0.306254 0.023110 2.301948
v -0.241060 0.023110 2.214478
v -0.797426 0.022112 0.002884
v -0.632507 0.022112 0.166776
v -0.640924 0.503776 0.002884
v -0.507502 0.406839 0.166776
v -0.231196 0.801462 0.002884
v -0.180233 0.644614 0.166776
v 0.275257 0.801462 0.002884
v 0.224294 0.644614 0.166776
v 0.684985 0.503776 0.002884
v 0.551563 0.406839 0.166776
v 0.841488 0.022112 0.002884
v 0.676568 0.022112 0.166776
v 0.684985 -0.459553 0.002884
v 0.551563 -0.362616 0.166776
v 0.275257 -0.757238 0.002884
v 0.224294 -0.600391 0.166776
v -0.231196 -0.757238 0.002884
v -0.180233 -0.600391 0.166776
v -0.640924 -0.459553 0.002884
v -0.507502 -0.362616 0.166776
v 0.880109 0.120335 2.050928
v 0.563139 0.120335 1.344894
v 0.308832 0.023110 2.320312
v 0.880109 0.023110 2.050928
v 0.331252 0.023110 2.213548
vt 0.840352 0.840859
vt 0.974195 0.938000
vt 0.925037 0.615973
vt 0.722772 0.648760
vt 0.765209 0.617800
vt 0.809888 0.701489
vt 0.971645 0.939147
vt 0.802765 0.940376
vt 0.838808 0.840635
vt 0.764466 0.618791
vt 0.722350 0.650186
vt 0.810004 0.702017
vt 0.925800 0.616632
vt 0.805336 0.940965
vt 0.738797 0.787048
vt 0.810749 0.701660
vt 0.723775 0.648697
vt 0.625776 0.981746
vt 0.824982 0.980833
vt 0.802983 0.940527
vt 0.839294 0.840884
vt 0.604134 0.616761
vt 0.766379 0.616911
vt 0.723690 0.647522
vt 0.737950 0.785954
vt 0.766217 0.527685
vt 0.681044 0.528075
vt 0.766295 0.617851
vt 0.738167 0.787070
vt 0.801290 0.939784
vt 0.560338 0.939562
vt 0.604051 0.618594
vt 0.838150 0.840342
vt 0.681624 0.526667
vt 0.766797 0.526745
vt 0.105251 0.603557
vt 0.070689 0.603557
vt 0.070689 0.564776
vt 0.562033 0.941631
vt 0.058838 0.607224
vt 0.061096 0.775446
vt 0.026538 0.775910
vt 0.070690 0.475211
vt 0.070690 0.378927
vt 0.105251 0.378927
vt 0.070690 0.284626
vt 0.105251 0.284626
vt 0.023759 0.568911
vt 0.058317 0.568447
vt 0.054556 0.288322
vt 0.019998 0.288786
vt 0.018843 0.202794
vt 0.051310 0.046559
vt 0.052141 0.108427
vt 0.017582 0.108891
vt 0.810371 0.700964
vt 0.891890 0.081787
vt 0.891890 0.009856
vt 0.926451 0.009856
vt 0.891890 0.182147
vt 0.926451 0.081787
vt 0.105251 0.154263
vt 0.105251 0.198626
vt 0.070690 0.198626
vt 0.980724 0.012605
vt 0.980724 0.082577
vt 0.946163 0.082577
vt 0.055822 0.382614
vt 0.812608 0.583225
vt 0.847740 0.527031
vt 0.018247 0.158434
vt 0.052806 0.157970
vt 0.053401 0.202330
vt 0.070689 0.674085
vt 0.908383 0.980015
vt 0.980724 0.182937
vt 0.946163 0.182937
vt 0.070690 0.154263
vt 0.070690 0.104715
vt 0.105251 0.104715
vt 0.980724 0.458050
vt 0.946163 0.458050
vt 0.022556 0.479353
vt 0.021264 0.383078
vt 0.846060 0.527179
vt 0.763219 0.528634
vt 0.811507 0.583731
vt 0.057114 0.478889
vt 0.980724 0.521656
vt 0.946163 0.521656
vt 0.070690 0.042842
vt 0.827856 0.980982
vt 0.911356 0.979516
vt 0.739165 0.788330
vt 0.623879 0.298558
vt 0.586625 0.178787
vt 0.650508 0.135676
vt 0.485968 0.105820
vt 0.511757 0.032997
vt 0.361265 0.106979
vt 0.338791 0.032835
vt 0.260781 0.181893
vt 0.198807 0.135086
vt 0.223160 0.301913
vt 0.145452 0.300282
vt 0.262787 0.421286
vt 0.364495 0.494527
vt 0.338796 0.567567
vt 0.489220 0.493636
vt 0.511681 0.567567
vt 0.588691 0.418933
vt 0.701332 0.299875
vt 0.650665 0.464974
vt 0.891890 0.520866
vt 0.891890 0.457260
vt 0.926451 0.457260
vt 0.823067 0.980211
vt 0.623859 0.980027
vt 0.926451 0.182147
vt 0.105251 0.475211
vt 0.105251 0.564777
vt 0.813787 0.583404
vt 0.814059 0.582726
vt 0.024279 0.607687
vt 0.016752 0.047023
vt 0.946163 0.012604
vt 0.764888 0.527634
vt 0.105251 0.674085
vt 0.824873 0.980623
vt 0.105252 0.042842
vt 0.198909 0.465389
vt 0.926451 0.520866
vn 0.000000 -1.000000 0.000000
vn -0.000000 1.000000 -0.000000
vn 0.801800 0.000000 0.597600
vn 0.284100 0.000000 0.958800
vn 0.343700 0.000000 0.939100
vn 0.847600 0.000000 -0.530600
vn -0.978700 0.000000 -0.205500
vn -0.744400 0.000000 -0.667700
vn -0.915500 0.000000 -0.402300
vn -0.284100 0.000000 -0.958800
vn 0.542400 0.000000 -0.840100
vn 0.695100 0.000000 -0.719000
vn 0.145000 0.000000 -0.989400
vn -0.546300 0.000000 0.837600
vn -0.328700 0.000000 0.944400
vn -0.145000 0.000000 0.989400
vn -0.656300 0.000000 -0.754500
vn 0.695000 0.000000 -0.719000
vn -0.961200 0.000000 -0.275800
vn -0.706400 0.000000 -0.707800
vn -0.800800 0.000000 0.598900
vn -0.653200 0.000000 0.757200
vn 0.661800 0.000000 0.749700
vn 0.395000 0.000000 0.918700
vn -0.687100 0.223300 0.691400
vn -0.424700 0.584500 0.691400
vn 0.000000 0.722500 0.691400
vn 0.424700 0.584500 0.691400
vn 0.687100 0.223300 0.691400
vn 0.687100 -0.223300 0.691400
vn 0.424700 -0.584500 0.691400
vn 0.000000 -0.722500 0.691400
vn 0.000000 0.000000 1.000000
vn -0.687100 -0.223300 0.691400
vn -0.424700 -0.584500 0.691400
vn 0.754100 0.000000 0.656700
vn 0.912300 0.000000 -0.409600
vn 0.978300 0.000000 -0.207100
vn -0.744400 0.000000 -0.667800
usemtl Material
s off
f 37/1/1 41/2/1 31/3/1
f 25/4/2 36/5/2 26/6/2
f 43/7/2 32/8/2 28/9/2
f 34/10/1 30/11/1 40/12/1
f 44/13/2 28/9/2 26/6/2
f 47/14/1 41/2/1 37/1/1
f 44/13/2 43/7/2 28/9/2
f 4/15/1 1/16/1 11/17/1
f 15/18/1 70/19/1 72/20/1
f 72/20/1 5/21/1 4/15/1
f 69/22/2 6/23/2 19/24/2
f 69/22/2 19/24/2 17/25/2
f 13/26/1 12/27/1 8/28/1
f 28/9/2 27/29/2 26/6/2
f 17/25/2 10/30/2 68/31/2
f 11/17/1 8/28/1 14/32/1
f 4/15/1 11/17/1 14/32/1
f 16/33/2 10/30/2 17/25/2
f 2/34/2 9/35/2 6/23/2
f 35/36/3 46/37/3 47/38/3
f 14/32/1 71/39/1 4/15/1
f 70/40/4 15/41/4 3/42/4
f 37/43/5 38/44/5 27/45/5
f 40/46/6 26/47/6 27/45/6
f 71/39/1 72/20/1 4/15/1
f 10/48/7 72/49/7 70/40/7
f 1/50/8 18/51/8 19/52/8
f 13/53/9 21/54/9 20/55/9
f 19/24/2 18/56/2 17/25/2
f 12/57/10 13/58/10 9/59/10
f 14/60/11 12/57/11 2/61/11
f 36/62/12 25/63/12 30/64/12
f 29/65/13 22/66/13 42/67/13
f 18/51/14 1/50/14 4/68/14
f 44/13/2 24/69/2 42/70/2
f 6/71/15 8/72/15 11/73/15
f 45/74/16 46/37/16 35/36/16
f 32/8/2 43/7/2 39/75/2
f 26/6/2 36/5/2 44/13/2
f 22/66/17 31/76/17 44/77/17
f 34/78/18 23/79/18 24/80/18
f 8/72/15 6/71/15 20/55/15
f 31/76/19 41/81/19 43/82/19
f 16/83/20 17/84/20 4/68/20
f 22/85/1 29/86/1 23/87/1
f 5/88/21 72/49/21 10/48/21
f 41/81/22 45/89/22 39/90/22
f 24/80/23 23/79/23 29/91/23
f 31/3/1 40/12/1 37/1/1
f 30/64/24 25/63/24 26/47/24
f 47/14/1 46/92/1 45/93/1
f 40/12/1 38/94/1 37/1/1
f 49/95/25 51/96/25 50/97/25
f 51/96/26 53/98/26 52/99/26
f 53/98/27 55/100/27 54/101/27
f 55/100/28 57/102/28 56/103/28
f 57/102/29 59/104/29 58/105/29
f 58/105/30 59/104/30 61/106/30
f 61/106/31 63/107/31 62/108/31
f 63/107/32 65/109/32 64/110/32
f 65/109/33 57/102/33 49/95/33
f 67/111/34 49/95/34 48/112/34
f 65/109/35 67/111/35 66/113/35
f 31/3/1 34/10/1 40/12/1
f 15/114/36 71/115/36 68/116/36
f 68/31/2 69/22/2 17/25/2
f 10/30/2 7/117/2 3/118/2
f 71/115/37 14/60/37 69/119/37
f 37/43/38 28/120/38 32/121/38
f 71/39/1 15/18/1 72/20/1
f 14/32/1 8/28/1 12/27/1
f 21/122/1 13/26/1 8/28/1
f 20/123/2 6/23/2 9/35/2
f 69/22/2 2/34/2 6/23/2
f 32/121/3 35/36/3 47/38/3
f 7/124/4 70/40/4 3/42/4
f 28/120/5 37/43/5 27/45/5
f 38/44/6 40/46/6 27/45/6
f 7/124/7 10/48/7 70/40/7
f 11/73/39 1/50/39 19/52/39
f 9/125/9 13/53/9 20/55/9
f 2/61/10 12/57/10 9/59/10
f 69/119/11 14/60/11 2/61/11
f 34/78/12 36/62/12 30/64/12
f 33/126/13 29/65/13 42/67/13
f 17/84/14 18/51/14 4/68/14
f 44/13/2 36/5/2 24/69/2
f 33/127/2 42/70/2 24/69/2
f 19/52/15 6/71/15 11/73/15
f 39/128/16 45/74/16 35/36/16
f 35/129/2 32/8/2 39/75/2
f 42/67/17 22/66/17 44/77/17
f 36/62/18 34/78/18 24/80/18
f 21/54/15 8/72/15 20/55/15
f 44/77/19 31/76/19 43/82/19
f 5/88/20 16/83/20 4/68/20
f 31/3/1 22/85/1 23/87/1
f 23/87/1 34/10/1 31/3/1
f 16/83/21 5/88/21 10/48/21
f 43/82/22 41/81/22 39/90/22
f 33/130/23 24/80/23 29/91/23
f 40/46/24 30/64/24 26/47/24
f 41/2/1 47/14/1 45/93/1
f 48/112/25 49/95/25 50/97/25
f 50/97/26 51/96/26 52/99/26
f 52/99/27 53/98/27 54/101/27
f 54/101/28 55/100/28 56/103/28
f 56/103/29 57/102/29 58/105/29
f 60/131/30 58/105/30 61/106/30
f 60/131/31 61/106/31 62/108/31
f 62/108/32 63/107/32 64/110/32
f 53/98/33 51/96/33 49/95/33
f 49/95/33 67/111/33 65/109/33
f 65/109/33 63/107/33 61/106/33
f 61/106/33 59/104/33 65/109/33
f 57/102/33 55/100/33 53/98/33
f 53/98/33 49/95/33 57/102/33
f 65/109/33 59/104/33 57/102/33
f 66/113/34 67/111/34 48/112/34
f 64/110/35 65/109/35 66/113/35
f 3/132/36 15/114/36 68/116/36
f 68/31/2 10/30/2 3/118/2
f 68/116/37 71/115/37 69/119/37
f 47/38/38 37/43/38 32/121/38
