# Blender v2.76 (sub 0) OBJ File: 'Pickup_Damage.blend'
# www.blender.org
mtllib Pickup_Damage.mtl
o Cube
v -0.111015 -0.112514 1.656930
v -0.111015 -0.112514 1.881611
v -0.074295 -0.253318 1.823979
v -0.074295 -0.253318 1.714562
v 0.076947 -0.253318 1.823979
v 0.076947 -0.253318 1.714562
v -0.099127 -0.521627 1.811821
v -0.099127 -0.521627 1.726720
v 0.101779 -0.521627 1.726720
v 0.101779 -0.521627 1.811821
v 0.050318 -0.726735 1.799884
v -0.047666 -0.726735 1.799884
v -0.047666 -0.726735 1.738657
v 0.050318 -0.726735 1.738657
v 0.887963 -0.001052 1.769271
v 0.728346 0.047941 1.738657
v 0.728346 -0.050044 1.738657
v 0.001326 -0.886351 1.769271
v 0.728346 -0.050044 1.799884
v 0.728346 0.047941 1.799884
v 0.523239 0.099401 1.811821
v 0.523239 0.099401 1.726720
v 0.523239 -0.101504 1.726720
v 0.523239 -0.101504 1.811821
v 0.254929 0.074569 1.714562
v 0.254929 0.074569 1.823979
v 0.254929 -0.076672 1.714562
v 0.254929 -0.076672 1.823979
v 0.114125 0.111289 1.881611
v 0.114125 0.111289 1.656930
v 0.114125 -0.113392 1.881611
v 0.114125 -0.113392 1.656930
v -0.253604 0.076499 1.823979
v -0.253604 0.076499 1.714562
v -0.253604 -0.074742 1.823979
v -0.253604 -0.074742 1.714562
v -0.521913 0.101332 1.811821
v -0.521913 0.101332 1.726720
v -0.521913 -0.099574 1.726720
v -0.521913 -0.099574 1.811821
v -0.727020 -0.048114 1.799884
v -0.727020 0.049871 1.799884
v 0.000000 0.886178 1.769271
v -0.727020 0.049871 1.738657
v -0.727020 -0.048114 1.738657
v -0.886637 0.000879 1.769271
v -0.048992 0.726562 1.738657
v 0.048992 0.726562 1.738657
v 0.048992 0.726562 1.799884
v -0.048992 0.726562 1.799884
v -0.100453 0.521454 1.811821
v -0.100453 0.521454 1.726720
v 0.100453 0.521454 1.726720
v 0.100453 0.521454 1.811821
v -0.075621 0.253145 1.714562
v -0.075621 0.253145 1.823979
v 0.075621 0.253145 1.714562
v 0.075621 0.253145 1.823979
v -0.112341 0.112341 1.881611
v -0.112341 0.112341 1.656930
v -0.797426 0.022112 0.002884
v -0.632507 0.022112 0.166776
v -0.640924 0.503776 0.002884
v -0.507502 0.406839 0.166776
v -0.231196 0.801462 0.002884
v -0.180233 0.644614 0.166776
v 0.275257 0.801462 0.002884
v 0.224294 0.644614 0.166776
v 0.684985 0.503776 0.002884
v 0.551563 0.406839 0.166776
v 0.841488 0.022112 0.002884
v 0.676568 0.022112 0.166776
v 0.684985 -0.459553 0.002884
v 0.551563 -0.362616 0.166776
v 0.275257 -0.757238 0.002884
v 0.224294 -0.600391 0.166776
v -0.231196 -0.757238 0.002884
v -0.180233 -0.600391 0.166776
v -0.640924 -0.459553 0.002884
v -0.507502 -0.362616 0.166776
vt 0.858982 0.105913
vt 0.818220 0.204623
vt 0.752016 0.178753
vt 0.907023 0.275221
vt 0.822880 0.317323
vt 0.800158 0.283913
vt 0.718228 0.171265
vt 0.744654 0.260183
vt 0.964259 0.163144
vt 0.844765 0.220759
vt 0.956124 0.081489
vt 0.903081 0.128330
vt 0.780925 0.270276
vt 0.718228 0.262552
vt 0.748287 0.332016
vt 0.395372 0.753633
vt 0.381735 0.772866
vt 0.333633 0.720996
vt 0.348326 0.795588
vt 0.405465 0.717362
vt 0.444888 0.817473
vt 0.461024 0.790928
vt 0.486895 0.724724
vt 0.403096 0.690937
vt 0.537316 0.875788
vt 0.502502 0.936965
vt 0.390426 0.879730
vt 0.559735 0.831691
vt 0.758086 0.937507
vt 0.743071 0.999718
vt 0.681228 0.999718
vt 0.584152 0.928832
vt 0.584199 0.769057
vt 0.494383 0.690937
vt 0.631935 0.813224
vt 0.600618 0.726659
vt 0.903245 0.673742
vt 0.918260 0.611531
vt 0.980103 0.611531
vt 0.082510 0.858836
vt 0.179811 0.903170
vt 0.172323 0.936957
vt 0.276277 0.748171
vt 0.318376 0.832309
vt 0.284968 0.855030
vt 0.106976 0.796206
vt 0.205682 0.836968
vt 0.164206 0.690937
vt 0.221817 0.810425
vt 0.129394 0.752111
vt 0.950104 0.855021
vt 0.983511 0.832302
vt 0.998202 0.906887
vt 0.936468 0.874252
vt 0.926376 0.910520
vt 0.261239 0.910532
vt 0.271331 0.874262
vt 0.263608 0.936957
vt 0.333069 0.906898
vt 0.928745 0.936944
vt 0.886956 0.810419
vt 0.870822 0.836961
vt 0.794537 0.752108
vt 0.829347 0.690937
vt 0.941413 0.748167
vt 0.844953 0.903159
vt 0.772120 0.796202
vt 0.747658 0.858830
vt 0.837466 0.936944
vt 0.699926 0.814667
vt 0.731241 0.901224
vt 0.796348 0.081449
vt 0.617709 0.343207
vt 0.569631 0.188638
vt 0.652074 0.133003
vt 0.439730 0.094472
vt 0.473011 0.000491
vt 0.278796 0.095968
vt 0.249793 0.000282
vt 0.149118 0.192647
vt 0.069139 0.132241
vt 0.100567 0.347538
vt 0.000282 0.345432
vt 0.151706 0.501592
vt 0.282964 0.596113
vt 0.249799 0.690373
vt 0.443927 0.594962
vt 0.472914 0.690373
vt 0.572297 0.498556
vt 0.717665 0.344906
vt 0.652277 0.557972
vt 0.840405 0.033996
vt 0.753950 0.065030
vt 0.995161 0.581063
vt 0.903100 0.581063
vt 0.918079 0.519130
vt 0.965816 0.332579
vt 0.950577 0.394736
vt 0.888734 0.394512
vt 0.034002 0.814366
vt 0.066090 0.901234
vt 0.082470 0.699025
vt 0.810173 0.674333
vt 0.718228 0.674333
vt 0.734017 0.611531
vt 0.902682 0.611531
vt 0.888367 0.673995
vt 0.826525 0.674333
vt 0.810531 0.518343
vt 0.810101 0.425741
vt 0.872716 0.441464
vt 0.811075 0.332579
vt 0.873192 0.347982
vt 0.872806 0.409824
vt 0.747110 0.698766
vt 0.718588 0.517801
vt 0.873300 0.517613
vt 0.873300 0.425741
vt 0.965173 0.425741
vt 0.810664 0.518906
vt 0.902537 0.518906
vt 0.902537 0.610851
vt 0.718228 0.518906
vt 0.810101 0.518906
vt 0.810101 0.610967
vt 0.719130 0.332579
vt 0.810099 0.425177
vt 0.865567 0.035456
vt 0.666214 0.937507
vt 0.630191 0.838279
vt 0.665650 0.726163
vt 0.995118 0.673742
vt 0.666214 0.901720
vt 0.069269 0.558508
vt 0.753344 0.000282
vt 0.979922 0.518906
vt 0.873755 0.332579
vt 0.000282 0.901429
vt 0.036436 0.789571
vt 0.795859 0.611869
vt 0.810737 0.611531
vt 0.872737 0.503307
vt 0.701076 0.789311
vt 0.718228 0.425741
vt 0.965173 0.517613
vt 0.810664 0.610851
vt 0.718228 0.610967
vt 0.718228 0.424636
vn 0.000000 -0.045300 0.999000
vn 0.000000 -0.058100 -0.998300
vn 0.969900 -0.243400 0.000000
vn 0.000000 -0.045300 -0.999000
vn -0.967600 -0.252300 0.000000
vn -0.995700 0.092200 0.000000
vn 0.000000 -0.058100 0.998300
vn -0.969900 -0.243400 0.000000
vn 0.956000 -0.293400 0.000000
vn 0.293400 -0.956000 0.000000
vn 0.188400 0.000000 -0.982100
vn 0.188400 0.000000 0.982100
vn 0.243400 -0.969900 0.000000
vn 0.058100 0.000000 0.998300
vn 0.243400 0.969900 0.000000
vn 0.000000 -0.188400 0.982100
vn 0.293400 0.956000 0.000000
vn 0.000000 -0.188400 -0.982100
vn -0.092200 -0.995700 0.000000
vn 0.045300 0.000000 -0.999000
vn 0.045300 0.000000 0.999000
vn 0.058100 0.000000 -0.998300
vn -0.956000 -0.293400 0.000000
vn 0.378800 0.000000 -0.925500
vn 0.252300 -0.967600 0.000000
vn -0.092200 0.995700 0.000000
vn 0.252300 0.967600 0.000000
vn 0.378800 0.000000 0.925500
vn 0.092200 -0.995700 0.000000
vn -0.058100 0.000000 -0.998300
vn -0.045300 0.000000 0.999000
vn -0.045300 0.000000 -0.999000
vn 0.092200 0.995700 0.000000
vn 0.000000 0.188400 -0.982100
vn 0.956000 0.293400 0.000000
vn 0.000000 0.188400 0.982100
vn -0.243400 -0.969900 0.000000
vn -0.058100 0.000000 0.998300
vn -0.243400 0.969900 0.000000
vn -0.293400 -0.956000 0.000000
vn -0.188400 0.000000 0.982100
vn -0.293400 0.956000 0.000000
vn -0.956000 0.293400 0.000000
vn 0.969900 0.243400 0.000000
vn 0.000000 0.058100 0.998300
vn -0.188400 0.000000 -0.982100
vn 0.995700 -0.092200 0.000000
vn 0.000000 0.045300 -0.999000
vn -0.969900 0.243400 0.000000
vn 0.000000 0.058100 -0.998300
vn 0.000000 0.045300 0.999000
vn -0.995700 -0.092200 0.000000
vn -0.967600 0.252300 0.000000
vn 0.995700 0.092200 0.000000
vn -0.687100 0.223300 0.691400
vn -0.424700 0.584500 0.691400
vn 0.000000 0.722500 0.691400
vn 0.424700 0.584500 0.691400
vn 0.687100 0.223300 0.691400
vn 0.687100 -0.223300 0.691400
vn 0.424700 -0.584500 0.691400
vn 0.000000 -0.722500 0.691400
vn 0.000000 0.000000 1.000000
vn -0.687100 -0.223300 0.691400
vn -0.424700 -0.584500 0.691400
vn 0.966500 -0.256800 0.000000
vn -0.001500 -0.380500 -0.924800
vn -0.000000 -0.378800 0.925500
vn -0.256100 -0.966700 0.000000
vn -0.245900 0.969300 0.000000
vn -0.375200 -0.002200 -0.926900
vn -0.377700 0.000000 0.925900
vn 0.001800 0.376800 0.926300
vn 0.000000 0.378800 -0.925500
vn 0.965100 0.262000 0.000000
vn 1.000000 -0.000000 0.000000
vn -1.000000 -0.005900 0.000000
vn -0.003900 -1.000000 0.000000
vn -0.000000 0.000000 -1.000000
vn 0.000000 -0.378800 -0.925500
vn -0.001500 -0.380500 0.924800
vn -0.377700 0.000000 -0.925900
vn -0.375200 -0.002200 0.926900
vn 0.000000 0.378800 0.925500
vn 0.001700 0.376800 -0.926300
usemtl Material
s off
f 3/1/1 7/2/1 10/3/1
f 9/4/2 14/5/2 13/6/2
f 9/7/3 10/3/3 11/8/3
f 6/9/4 9/4/4 8/10/4
f 1/11/5 4/12/5 3/1/5
f 4/12/6 8/10/6 7/2/6
f 7/2/7 12/13/7 11/8/7
f 8/10/8 13/6/8 12/13/8
f 14/14/9 11/8/9 18/15/9
f 19/16/10 17/17/10 15/18/10
f 17/17/11 16/19/11 15/18/11
f 20/20/12 19/16/12 15/18/12
f 23/21/13 17/17/13 19/16/13
f 24/22/14 19/16/14 20/20/14
f 21/23/15 20/20/15 16/24/15
f 11/8/16 12/13/16 18/15/16
f 16/24/17 20/20/17 15/18/17
f 13/6/18 14/5/18 18/15/18
f 27/25/19 23/21/19 24/22/19
f 25/26/20 22/27/20 23/21/20
f 28/28/21 24/22/21 21/23/21
f 23/21/22 22/27/22 16/19/22
f 12/13/23 13/6/23 18/15/23
f 30/29/24 25/30/24 27/31/24
f 32/32/25 27/25/25 28/28/25
f 26/33/26 21/23/26 22/34/26
f 29/35/27 26/33/27 25/36/27
f 31/37/28 28/38/28 26/39/28
f 35/40/29 40/41/29 39/42/29
f 39/43/30 45/44/30 44/45/30
f 35/40/31 33/46/31 37/47/31
f 36/48/32 39/43/32 38/49/32
f 34/50/33 38/49/33 37/47/33
f 48/51/34 47/52/34 43/53/34
f 49/54/35 48/51/35 43/53/35
f 50/55/36 49/54/36 43/53/36
f 39/42/37 40/41/37 41/56/37
f 37/47/38 42/57/38 41/56/38
f 38/49/39 44/45/39 42/57/39
f 45/58/40 41/56/40 46/59/40
f 41/56/41 42/57/41 46/59/41
f 42/57/42 44/45/42 46/59/42
f 47/60/43 50/55/43 43/53/43
f 53/61/44 48/51/44 49/54/44
f 54/62/45 49/54/45 50/55/45
f 44/45/46 45/44/46 46/59/46
f 57/63/47 53/61/47 54/62/47
f 55/64/48 52/65/48 53/61/48
f 51/66/49 50/55/49 47/60/49
f 52/65/50 47/52/50 48/51/50
f 58/67/51 54/62/51 51/66/51
f 56/68/52 51/66/52 52/69/52
f 59/70/53 56/68/53 55/71/53
f 5/72/54 10/3/54 9/7/54
f 62/73/55 64/74/55 63/75/55
f 64/74/56 66/76/56 65/77/56
f 66/76/57 68/78/57 67/79/57
f 68/78/58 70/80/58 69/81/58
f 70/80/59 72/82/59 71/83/59
f 71/83/60 72/82/60 74/84/60
f 74/84/61 76/85/61 75/86/61
f 76/85/62 78/87/62 77/88/62
f 78/87/63 70/80/63 62/73/63
f 80/89/64 62/73/64 61/90/64
f 78/87/65 80/89/65 79/91/65
f 31/92/66 5/72/66 6/93/66
f 1/94/67 32/95/67 6/96/67
f 2/97/68 3/98/68 5/99/68
f 2/100/69 35/40/69 36/101/69
f 60/102/70 34/50/70 33/46/70
f 60/103/71 1/104/71 36/105/71
f 59/106/72 33/107/72 35/108/72
f 59/109/73 29/110/73 58/111/73
f 60/112/74 55/113/74 57/114/74
f 30/115/75 57/63/75 58/67/75
f 29/110/63 59/109/63 2/116/63
f 31/117/76 32/118/76 30/119/76
f 59/120/77 60/121/77 1/122/77
f 2/123/78 1/124/78 32/125/78
f 1/126/79 60/112/79 30/127/79
f 5/72/1 3/1/1 10/3/1
f 8/10/2 9/4/2 13/6/2
f 14/14/3 9/7/3 11/8/3
f 4/12/4 6/9/4 8/10/4
f 2/128/5 1/11/5 3/1/5
f 3/1/6 4/12/6 7/2/6
f 10/3/7 7/2/7 11/8/7
f 7/2/8 8/10/8 12/13/8
f 24/22/13 23/21/13 19/16/13
f 21/23/14 24/22/14 20/20/14
f 22/34/15 21/23/15 16/24/15
f 28/28/19 27/25/19 24/22/19
f 27/25/20 25/26/20 23/21/20
f 26/33/21 28/28/21 21/23/21
f 17/17/22 23/21/22 16/19/22
f 32/129/24 30/29/24 27/31/24
f 31/130/25 32/32/25 28/28/25
f 25/36/26 26/33/26 22/34/26
f 30/131/27 29/35/27 25/36/27
f 29/132/28 31/37/28 26/39/28
f 36/101/29 35/40/29 39/42/29
f 38/49/30 39/43/30 44/45/30
f 40/41/31 35/40/31 37/47/31
f 34/50/32 36/48/32 38/49/32
f 33/46/33 34/50/33 37/47/33
f 45/58/37 39/42/37 41/56/37
f 40/41/38 37/47/38 41/56/38
f 37/47/39 38/49/39 42/57/39
f 54/62/44 53/61/44 49/54/44
f 51/66/45 54/62/45 50/55/45
f 58/67/47 57/63/47 54/62/47
f 57/63/48 55/64/48 53/61/48
f 52/69/49 51/66/49 47/60/49
f 53/61/50 52/65/50 48/51/50
f 56/68/51 58/67/51 51/66/51
f 55/71/52 56/68/52 52/69/52
f 60/133/53 59/70/53 55/71/53
f 6/93/54 5/72/54 9/7/54
f 61/90/55 62/73/55 63/75/55
f 63/75/56 64/74/56 65/77/56
f 65/77/57 66/76/57 67/79/57
f 67/79/58 68/78/58 69/81/58
f 69/81/59 70/80/59 71/83/59
f 73/134/60 71/83/60 74/84/60
f 73/134/61 74/84/61 75/86/61
f 75/86/62 76/85/62 77/88/62
f 66/76/63 64/74/63 62/73/63
f 62/73/63 80/89/63 78/87/63
f 78/87/63 76/85/63 74/84/63
f 74/84/63 72/82/63 78/87/63
f 70/80/63 68/78/63 66/76/63
f 66/76/63 62/73/63 70/80/63
f 78/87/63 72/82/63 70/80/63
f 79/91/64 80/89/64 61/90/64
f 77/88/65 78/87/65 79/91/65
f 32/135/66 31/92/66 6/93/66
f 4/136/80 1/94/80 6/96/80
f 31/137/81 2/97/81 5/99/81
f 1/138/69 2/100/69 36/101/69
f 59/139/70 60/102/70 33/46/70
f 34/140/82 60/103/82 36/105/82
f 2/141/83 59/106/83 35/108/83
f 56/142/84 59/109/84 58/111/84
f 30/127/85 60/112/85 57/114/85
f 29/143/75 30/115/75 58/67/75
f 31/144/63 29/110/63 2/116/63
f 29/145/76 31/117/76 30/119/76
f 2/146/77 59/120/77 1/122/77
f 31/147/78 2/123/78 32/125/78
f 32/148/79 1/126/79 30/127/79
