# Blender v2.76 (sub 0) OBJ File: 'Pickup_CombineDamage.blend'
# www.blender.org
mtllib Pickup_CombineDamage.mtl
o Cube
v 0.819258 0.264220 1.032079
v 0.842666 0.173050 1.227537
v 0.895265 -0.031808 1.275811
v 0.937446 -0.196091 1.140550
v 0.937446 -0.196091 0.923608
v 0.895265 -0.031808 0.788347
v 0.842666 0.173050 0.836621
v 0.527928 0.148875 1.032079
v 0.573274 0.066390 1.227537
v 0.675167 -0.118951 1.275811
v 0.756878 -0.267583 1.140550
v 0.756878 -0.267583 0.923608
v 0.675167 -0.118951 0.788347
v 0.573274 0.066390 0.836621
v 0.274436 -0.035298 1.032079
v 0.338871 -0.103914 1.227537
v 0.483655 -0.258093 1.275811
v 0.599762 -0.381734 1.140550
v 0.599762 -0.381734 0.923608
v 0.483655 -0.258093 0.788347
v 0.338871 -0.103914 0.836621
v 0.074710 -0.276725 1.032079
v 0.154185 -0.327161 1.227537
v 0.332762 -0.440490 1.275811
v 0.475971 -0.531373 1.140550
v 0.475971 -0.531373 0.923608
v 0.332762 -0.440490 0.788347
v 0.154185 -0.327161 0.836621
v -0.058700 -0.560237 1.032079
v 0.030820 -0.589324 1.227537
v 0.231971 -0.654682 1.275811
v 0.393282 -0.707095 1.140550
v 0.393282 -0.707095 0.923608
v 0.231971 -0.654682 0.788347
v 0.030820 -0.589324 0.836621
v -0.797426 0.022112 0.002884
v -0.632507 0.022112 0.166776
v -0.640924 0.503776 0.002884
v -0.507502 0.406839 0.166776
v -0.231196 0.801462 0.002884
v -0.180233 0.644614 0.166776
v 0.275257 0.801462 0.002884
v 0.224294 0.644614 0.166776
v 0.684985 0.503776 0.002884
v 0.551563 0.406839 0.166776
v 0.841488 0.022112 0.002884
v 0.676568 0.022112 0.166776
v 0.684985 -0.459553 0.002884
v 0.551563 -0.362616 0.166776
v 0.275257 -0.757238 0.002884
v 0.224294 -0.600391 0.166776
v -0.231196 -0.757238 0.002884
v -0.180233 -0.600391 0.166776
v -0.640924 -0.459553 0.002884
v -0.507502 -0.362616 0.166776
v 0.633783 0.105430 0.940590
v 0.633783 0.105430 1.123567
v 0.142848 -0.429626 0.940590
v 0.142848 -0.429626 1.123567
v 0.407996 0.240336 0.978415
v 0.407996 0.240336 1.085742
v -0.010943 -0.216254 0.978415
v -0.010943 -0.216254 1.085742
v -0.046941 -0.255487 1.123567
v -0.046941 -0.255487 0.940590
v 0.443994 0.279569 1.123567
v 0.443994 0.279569 0.940590
v 0.022149 -0.039732 1.070529
v -0.021529 -0.087335 0.993628
v 0.234966 0.192212 1.070529
v 0.278645 0.239816 0.993628
v -0.299366 0.162567 1.070529
v -0.362000 0.094304 0.993628
v 0.005813 0.495173 1.070529
v 0.068447 0.563436 0.993628
v -0.722745 0.743477 1.070529
v -0.860623 0.823246 0.993628
v -0.609299 0.867119 1.070529
v -0.700609 0.997640 0.993628
v -0.905659 1.025175 1.070529
v -0.975941 1.089661 0.993628
v 0.437079 -0.118027 1.209180
v 0.437079 -0.118027 1.054252
v 0.358262 -0.203927 1.054252
v 0.358262 -0.203927 1.209180
v -0.188162 0.455657 1.038107
v 0.050943 0.236268 1.154688
v -0.266979 0.369756 1.038107
v -0.027874 0.150368 1.154688
vt 0.622531 0.141174
vt 0.626499 0.200393
vt 0.539458 0.210609
vt 0.633689 0.265269
vt 0.558527 0.278892
vt 0.641895 0.337607
vt 0.577709 0.346270
vt 0.645565 0.412612
vt 0.583110 0.412985
vt 0.643217 0.481739
vt 0.555746 0.012477
vt 0.626221 0.021165
vt 0.622594 0.083062
vt 0.539952 0.075606
vt 0.703068 0.139521
vt 0.705636 0.196268
vt 0.707684 0.259297
vt 0.710102 0.331998
vt 0.713144 0.409480
vt 0.715018 0.481739
vt 0.698329 0.020342
vt 0.700519 0.082902
vt 0.783537 0.137632
vt 0.783890 0.195813
vt 0.780803 0.258309
vt 0.778149 0.328797
vt 0.781446 0.404388
vt 0.789033 0.477234
vt 0.771808 0.013877
vt 0.779291 0.078557
vt 0.873168 0.136366
vt 0.866251 0.202176
vt 0.851699 0.264986
vt 0.841316 0.329054
vt 0.846138 0.396247
vt 0.864827 0.464204
vt 0.846595 0.000235
vt 0.865798 0.068007
vt 0.457864 0.254406
vt 0.422229 0.139842
vt 0.483335 0.098606
vt 0.325948 0.070047
vt 0.350616 0.000389
vt 0.206666 0.071156
vt 0.185169 0.000235
vt 0.110550 0.142813
vt 0.051271 0.098041
vt 0.074565 0.257616
vt 0.000235 0.256055
vt 0.112469 0.371800
vt 0.209755 0.441857
vt 0.185174 0.511722
vt 0.329059 0.441004
vt 0.350543 0.511722
vt 0.424205 0.369549
vt 0.531950 0.255666
vt 0.483485 0.413588
vt 0.553416 0.590255
vt 0.553417 0.645710
vt 0.475354 0.645710
vt 0.000235 0.762326
vt 0.029381 0.788947
vt 0.029381 0.923510
vt 0.851559 0.590255
vt 0.851559 0.645710
vt 0.773495 0.645710
vt 0.553416 0.723774
vt 0.773495 0.590255
vt 0.553416 0.512191
vt 0.569554 0.601719
vt 0.569554 0.634246
vt 0.757358 0.601719
vt 0.757358 0.634246
vt 0.042786 0.545435
vt 0.163293 0.536015
vt 0.159801 0.572576
vt 0.000235 0.529286
vt 0.032749 0.578009
vt 0.034949 0.693848
vt 0.025808 0.512191
vt 0.000235 0.741411
vt 0.043245 0.726585
vt 0.157651 0.743565
vt 0.156416 0.707761
vt 0.361780 0.671646
vt 0.142631 0.759747
vt 0.142631 0.952710
vt 0.638871 0.851857
vt 0.640231 0.821795
vt 0.748500 0.816730
vt 0.403341 0.820362
vt 0.403341 0.892094
vt 0.363488 0.621645
vt 0.412549 0.605073
vt 0.484614 0.813687
vt 0.494944 0.759747
vt 0.474884 0.650336
vt 0.442164 0.649246
vt 0.483681 0.856228
vt 0.409663 0.691370
vt 0.748500 0.861318
vt 0.491989 0.907580
vt 0.484151 0.853470
vt 0.985135 0.540719
vt 0.958771 0.656224
vt 0.866659 0.540718
vt 0.800360 0.907484
vt 0.748992 0.800723
vt 0.893014 0.833648
vt 0.532419 0.141786
vt 0.573710 0.476579
vt 0.051367 0.413985
vt 0.475354 0.590255
vt 0.000235 0.950130
vt 0.773495 0.723774
vt 0.773495 0.512191
vt 0.025259 0.759278
vt 0.925897 0.512191
vt 0.999765 0.604819
vt 0.893022 0.656224
vt 0.852028 0.604819
vt 0.864466 0.892876
vt 0.748970 0.866472
vt 0.800411 0.759747
vt 0.864507 0.774400
vn -0.332200 0.838900 0.431100
vn -0.082500 0.208500 0.974500
vn 0.230600 -0.582500 0.779400
vn 0.368100 -0.929800 0.000000
vn 0.230600 -0.582500 -0.779400
vn -0.082500 0.208500 -0.974500
vn -0.332200 0.838900 -0.431100
vn -0.530400 0.730000 0.431100
vn -0.131800 0.181400 0.974500
vn 0.368300 -0.506900 0.779400
vn 0.587800 -0.809000 0.000000
vn 0.368300 -0.506900 -0.779400
vn -0.131800 0.181400 -0.974500
vn -0.530400 0.730000 -0.431100
vn -0.695200 0.575100 0.431100
vn -0.172700 0.142900 0.974500
vn 0.482700 -0.399300 0.779400
vn 0.770500 -0.637400 0.000000
vn 0.482700 -0.399300 -0.779400
vn -0.172700 0.142900 -0.974500
vn -0.695200 0.575200 -0.431100
vn -0.816400 0.384200 0.431100
vn -0.202900 0.095500 0.974500
vn 0.566900 -0.266800 0.779400
vn 0.904800 -0.425800 0.000000
vn 0.566900 -0.266800 -0.779400
vn -0.202900 0.095500 -0.974500
vn -0.816400 0.384200 -0.431100
vn -0.687100 0.223300 0.691400
vn -0.424700 0.584500 0.691400
vn 0.000000 0.722500 0.691400
vn 0.424700 0.584500 0.691400
vn 0.687100 0.223300 0.691400
vn 0.687100 -0.223300 0.691400
vn 0.424700 -0.584500 0.691400
vn 0.000000 -0.722500 0.691400
vn 0.000000 0.000000 1.000000
vn -0.687100 -0.223300 0.691400
vn -0.424700 -0.584500 0.691400
vn -0.676100 -0.736800 0.000000
vn -0.116600 0.106900 -0.987400
vn 0.676100 0.736800 0.000000
vn -0.000000 0.000000 -1.000000
vn -0.736800 0.676100 0.000000
vn 0.545800 0.354500 0.759200
vn -0.116600 0.106900 0.987400
vn -0.004000 1.000000 0.000000
vn -0.900000 0.202000 0.386200
vn -0.522200 -0.380600 0.763200
vn -0.410500 -0.652400 0.637000
vn -0.249100 0.228600 0.941100
vn 0.366500 0.649100 0.666600
vn 0.282900 0.846400 0.451200
vn -0.611500 -0.397000 0.684500
vn -0.076200 0.069900 0.994600
vn -0.309000 -0.951100 0.000000
vn 0.968600 0.248700 0.000000
vn -0.695200 0.575200 0.431100
vn -0.172800 0.142900 -0.974500
vn 0.614800 0.465000 0.637000
vn -0.278500 0.879400 0.386200
vn -0.996600 -0.081800 0.000000
vn -0.615300 -0.420900 0.666600
vn -0.306300 -0.574200 0.759200
vn 0.334400 0.553000 0.763200
vn 0.343100 0.643300 0.684500
vn -0.819000 -0.354500 0.451200
usemtl Material
s off
f 8/1/1 9/2/1 2/3/1
f 9/2/2 10/4/2 3/5/2
f 10/4/3 11/6/3 4/7/3
f 11/6/4 12/8/4 5/9/4
f 5/9/5 12/8/5 13/10/5
f 6/11/6 13/12/6 14/13/6
f 7/14/7 14/13/7 8/1/7
f 8/1/8 15/15/8 16/16/8
f 16/16/9 17/17/9 10/4/9
f 10/4/10 17/17/10 18/18/10
f 18/18/11 19/19/11 12/8/11
f 19/19/12 20/20/12 13/10/12
f 20/21/13 21/22/13 14/13/13
f 21/22/14 15/15/14 8/1/14
f 22/23/15 23/24/15 16/16/15
f 23/24/16 24/25/16 17/17/16
f 17/17/17 24/25/17 25/26/17
f 25/26/18 26/27/18 19/19/18
f 19/19/19 26/27/19 27/28/19
f 20/21/20 27/29/20 28/30/20
f 28/30/21 22/23/21 15/15/21
f 22/23/22 29/31/22 30/32/22
f 30/32/23 31/33/23 24/25/23
f 24/25/24 31/33/24 32/34/24
f 32/34/25 33/35/25 26/27/25
f 33/35/26 34/36/26 27/28/26
f 34/37/27 35/38/27 28/30/27
f 35/38/28 29/31/28 22/23/28
f 37/39/29 39/40/29 38/41/29
f 39/40/30 41/42/30 40/43/30
f 41/42/31 43/44/31 42/45/31
f 43/44/32 45/46/32 44/47/32
f 45/46/33 47/48/33 46/49/33
f 46/49/34 47/48/34 49/50/34
f 49/50/35 51/51/35 50/52/35
f 51/51/36 53/53/36 52/54/36
f 53/53/37 45/46/37 37/39/37
f 55/55/38 37/39/38 36/56/38
f 53/53/39 55/55/39 54/57/39
f 64/58/40 65/59/40 58/60/40
f 62/61/41 69/62/41 71/63/41
f 57/64/42 56/65/42 67/66/42
f 58/67/43 65/59/43 67/66/43
f 66/68/37 64/58/37 59/69/37
f 63/70/44 62/71/44 65/59/44
f 63/70/44 64/58/44 66/68/44
f 61/72/44 66/68/44 67/66/44
f 60/73/44 67/66/44 65/59/44
f 71/74/45 75/75/45 74/76/45
f 61/77/46 70/78/46 68/79/46
f 61/77/47 60/80/47 71/74/47
f 63/81/48 68/79/48 69/82/48
f 73/83/49 72/84/49 76/85/49
f 69/82/50 68/79/50 72/84/50
f 69/62/43 73/86/43 75/87/43
f 70/78/37 74/76/37 72/84/37
f 89/88/51 87/89/51 86/90/51
f 73/86/43 77/91/43 79/92/43
f 72/84/37 74/76/37 78/93/37
f 75/75/52 79/94/52 78/93/52
f 87/89/42 82/95/42 83/96/42
f 79/94/53 81/97/53 80/98/53
f 79/92/43 77/91/43 81/99/43
f 77/100/54 76/85/54 80/98/54
f 89/88/40 88/101/40 84/102/40
f 76/85/37 78/93/37 80/98/37
f 89/88/55 85/103/55 82/95/55
f 33/104/56 31/105/56 35/106/56
f 3/107/57 5/108/57 1/109/57
f 1/110/1 8/1/1 2/3/1
f 2/3/2 9/2/2 3/5/2
f 3/5/3 10/4/3 4/7/3
f 4/7/4 11/6/4 5/9/4
f 6/111/5 5/9/5 13/10/5
f 7/14/6 6/11/6 14/13/6
f 1/110/7 7/14/7 8/1/7
f 9/2/8 8/1/8 16/16/8
f 9/2/9 16/16/9 10/4/9
f 11/6/10 10/4/10 18/18/10
f 11/6/11 18/18/11 12/8/11
f 12/8/12 19/19/12 13/10/12
f 13/12/13 20/21/13 14/13/13
f 14/13/14 21/22/14 8/1/14
f 15/15/58 22/23/58 16/16/58
f 16/16/16 23/24/16 17/17/16
f 18/18/17 17/17/17 25/26/17
f 18/18/18 25/26/18 19/19/18
f 20/20/19 19/19/19 27/28/19
f 21/22/59 20/21/59 28/30/59
f 21/22/21 28/30/21 15/15/21
f 23/24/22 22/23/22 30/32/22
f 23/24/23 30/32/23 24/25/23
f 25/26/24 24/25/24 32/34/24
f 25/26/25 32/34/25 26/27/25
f 26/27/26 33/35/26 27/28/26
f 27/29/27 34/37/27 28/30/27
f 28/30/28 35/38/28 22/23/28
f 36/56/29 37/39/29 38/41/29
f 38/41/30 39/40/30 40/43/30
f 40/43/31 41/42/31 42/45/31
f 42/45/32 43/44/32 44/47/32
f 44/47/33 45/46/33 46/49/33
f 48/112/34 46/49/34 49/50/34
f 48/112/35 49/50/35 50/52/35
f 50/52/36 51/51/36 52/54/36
f 41/42/37 39/40/37 37/39/37
f 37/39/37 55/55/37 53/53/37
f 53/53/37 51/51/37 49/50/37
f 49/50/37 47/48/37 53/53/37
f 45/46/37 43/44/37 41/42/37
f 41/42/37 37/39/37 45/46/37
f 53/53/37 47/48/37 45/46/37
f 54/57/38 55/55/38 36/56/38
f 52/54/39 53/53/39 54/57/39
f 59/113/40 64/58/40 58/60/40
f 60/114/41 62/61/41 71/63/41
f 66/68/42 57/64/42 67/66/42
f 56/115/43 58/67/43 67/66/43
f 57/116/37 66/68/37 59/69/37
f 64/58/44 63/70/44 65/59/44
f 61/72/44 63/70/44 66/68/44
f 60/73/44 61/72/44 67/66/44
f 62/71/44 60/73/44 65/59/44
f 70/78/60 71/74/60 74/76/60
f 63/81/46 61/77/46 68/79/46
f 70/78/61 61/77/61 71/74/61
f 62/117/62 63/81/62 69/82/62
f 77/100/63 73/83/63 76/85/63
f 73/83/64 69/82/64 72/84/64
f 71/63/43 69/62/43 75/87/43
f 68/79/37 70/78/37 72/84/37
f 88/101/51 89/88/51 86/90/51
f 75/87/43 73/86/43 79/92/43
f 76/85/37 72/84/37 78/93/37
f 74/76/65 75/75/65 78/93/65
f 86/90/42 87/89/42 83/96/42
f 78/93/66 79/94/66 80/98/66
f 81/97/67 77/100/67 80/98/67
f 85/103/40 89/88/40 84/102/40
f 87/89/55 89/88/55 82/95/55
f 35/106/56 34/118/56 33/104/56
f 33/104/56 32/119/56 31/105/56
f 31/105/56 30/120/56 29/121/56
f 29/121/56 35/106/56 31/105/56
f 1/109/57 2/122/57 3/107/57
f 3/107/57 4/123/57 5/108/57
f 5/108/57 6/124/57 7/125/57
f 7/125/57 1/109/57 5/108/57
