# Blender v2.76 (sub 0) OBJ File: 'Shroud_Base.blend'
# www.blender.org
mtllib Shroud_Base.mtl
o Cube
v -0.097500 0.097500 0.902089
v 0.097500 0.097500 0.902089
v 0.097500 -0.097500 0.902089
v -0.097500 -0.097500 0.902089
v -0.097500 0.097500 5.928033
v 0.097500 0.097500 5.928033
v 0.097500 -0.097500 5.928033
v -0.097500 -0.097500 5.928033
v -0.491452 -0.000000 2.976515
v -0.104513 -0.000000 0.747663
v -0.523807 -0.000000 0.988062
v -0.786015 -0.000000 2.498435
v -0.270553 0.353789 1.032028
v -0.532760 0.353789 2.542401
v 0.139222 0.218654 1.103167
v -0.122985 0.218654 2.613540
v 0.139222 -0.218654 1.103167
v -0.122985 -0.218654 2.613540
v -0.270553 -0.353789 1.032028
v -0.532760 -0.353789 2.542401
v -1.663017 -0.000000 1.924167
v -0.773168 -0.000000 -0.116081
v -0.098952 -0.000000 -0.310834
v -1.412099 -0.000000 2.699952
v -0.431065 0.513700 0.033126
v -1.320915 0.513700 2.073374
v 0.122468 0.317484 0.274549
v -0.767381 0.317484 2.314796
v 0.122468 -0.317484 0.274548
v -0.767381 -0.317484 2.314796
v -0.431065 -0.513700 0.033126
v -1.320915 -0.513700 2.073374
v 1.190948 0.347250 2.762750
v 0.006780 -0.070591 -0.272434
v -0.302358 -0.179672 0.348073
v 0.500088 0.103476 2.404854
v -0.148070 0.419511 0.205391
v 0.654377 0.702660 2.262172
v 0.443442 0.420157 -0.025474
v 1.245889 0.703305 2.031307
v 0.654727 -0.178628 -0.025474
v 1.457173 0.104521 2.031307
v 0.193797 -0.549343 0.205391
v 0.996244 -0.266194 2.262172
v 0.198030 -1.225627 2.396819
v 0.041929 -0.438464 -0.242095
v -0.381680 -0.634065 0.117867
v -0.275899 -1.167483 1.906117
v -0.154540 -0.168279 0.243371
v -0.048759 -0.701696 2.031621
v 0.373540 -0.224265 0.195432
v 0.479321 -0.757683 1.983683
v 0.472771 -0.724653 0.040301
v 0.578552 -1.258071 1.828552
v 0.006019 -0.977924 -0.007637
v 0.111801 -1.511341 1.780614
v -0.021601 0.955052 2.289419
v 0.171487 0.117377 -0.324769
v -0.295812 0.129998 0.031820
v -0.426657 0.697645 1.803315
v -0.082947 0.598624 -0.102621
v -0.213792 1.166271 1.668874
v 0.445139 0.560092 -0.051269
v 0.314294 1.127739 1.720226
v 0.558649 0.067652 0.114909
v 0.427804 0.635300 1.886404
v 0.100715 -0.198161 0.166261
v -0.030130 0.369487 1.937756
vt 0.622395 0.000107
vt 0.658392 0.000107
vt 0.658392 0.036105
vt 0.622394 0.963896
vt 0.658391 0.963896
vt 0.658391 0.999893
vt 0.586397 0.963896
vt 0.586398 0.036104
vt 0.730385 0.036105
vt 0.730385 0.963897
vt 0.694388 0.963897
vt 0.622395 0.036104
vt 0.351752 0.206423
vt 0.234537 0.206423
vt 0.293145 0.090890
vt 0.234537 0.617316
vt 0.351752 0.617316
vt 0.293145 0.755951
vt 0.156270 0.818560
vt 0.152866 0.701395
vt 0.586182 0.617316
vt 0.468967 0.617316
vt 0.468967 0.206423
vt 0.117322 0.617316
vt 0.117322 0.206423
vt 0.000107 0.617316
vt 0.433423 0.701395
vt 0.430019 0.818560
vt 0.385564 0.000107
vt 0.420988 0.111841
vt 0.165302 0.111841
vt 0.200726 0.000107
vt 0.000108 0.206423
vt 0.586182 0.206423
vt 0.622394 0.999893
vt 0.694389 0.036105
vn -0.000000 0.000000 -1.000000
vn -0.000000 0.000000 1.000000
vn 0.000000 1.000000 0.000000
vn 1.000000 -0.000000 -0.000000
vn -0.000000 -1.000000 -0.000000
vn -1.000000 0.000000 0.000000
vn -0.451200 0.420800 -0.787000
vn -0.835700 0.478000 0.270300
vn -0.797100 0.587800 -0.138400
vn 0.701800 -0.000000 0.712400
vn 0.283200 -0.951100 0.123500
vn 0.304500 0.951100 0.052900
vn -0.741600 -0.587800 -0.323400
vn 0.916600 -0.000000 0.399800
vn 0.985300 -0.000000 0.171000
vn 0.283200 0.951100 0.123500
vn -0.797100 -0.587800 -0.138400
vn 0.304500 -0.951100 0.052900
vn 0.512900 -0.000000 0.858500
vn -0.741600 0.587800 -0.323400
vn -0.251700 0.420800 -0.871500
vn -0.747800 0.478000 0.460700
vn -0.747800 -0.478000 0.460700
vn 0.148100 0.773500 0.616300
vn 0.148100 -0.773500 0.616300
vn 0.337400 -0.680900 -0.650100
vn -0.451200 -0.420800 -0.787000
vn 0.824800 0.000000 -0.565500
vn 0.337400 0.680900 -0.650100
vn -0.835700 -0.478000 0.270300
vn -0.002300 0.773500 0.633800
vn -0.002300 -0.773500 0.633800
vn 0.481900 -0.680900 -0.551500
vn -0.251700 -0.420800 -0.871500
vn 0.935300 -0.000000 -0.353800
vn 0.481900 0.680900 -0.551500
vn -0.896400 0.129900 -0.423800
vn -0.900500 0.305500 0.309300
vn 0.918500 0.324100 0.226700
vn -0.047200 0.991900 -0.118100
vn 0.871400 0.307500 -0.382300
vn -0.509400 -0.803000 0.309300
vn 0.585700 -0.801800 -0.118100
vn -0.522600 0.322500 0.789200
vn -0.204500 -0.579100 0.789200
vn 0.171400 0.880700 0.441600
vn 0.686100 -0.578100 0.441600
vn 0.167600 -0.662900 -0.729700
vn -0.616400 -0.663700 -0.423800
vn 0.372100 0.131300 -0.918900
vn -0.285500 0.621300 -0.729700
vn -0.685900 0.481500 -0.545600
vn -0.903000 0.394200 0.171000
vn 0.830700 -0.007900 0.556700
vn 0.126100 0.952600 0.276700
vn 0.980900 0.194500 -0.000000
vn -0.684200 -0.709000 -0.171000
vn 0.480100 -0.832400 -0.276700
vn -0.701400 0.154600 0.695800
vn -0.523500 -0.742700 0.417600
vn 0.135500 0.608700 0.781700
vn 0.423400 -0.843100 0.331600
vn 0.304200 -0.396700 -0.866100
vn -0.529300 -0.308300 -0.790400
vn 0.662700 0.338500 -0.668000
vn 0.050800 0.881300 -0.469900
vn -0.605200 0.046900 -0.794700
vn -0.913800 0.362400 -0.183600
vn 0.751700 0.359800 0.552700
vn 0.098200 0.949800 -0.297100
vn 0.974400 0.224600 0.000000
vn -0.662900 -0.725800 0.183600
vn 0.504100 -0.811000 0.297100
vn -0.784000 0.471800 0.403400
vn -0.580000 -0.413200 0.702100
vn 0.039000 0.949600 0.311100
vn 0.369100 -0.482400 0.794400
vn 0.409800 -0.793100 -0.450600
vn -0.425600 -0.732100 -0.531800
vn 0.746600 -0.051700 -0.663300
vn 0.119300 0.467400 -0.876000
usemtl Material
s off
f 2/1/1 3/2/1 4/3/1
f 5/4/2 8/5/2 7/6/2
f 5/4/3 6/7/3 2/8/3
f 2/9/4 6/10/4 7/11/4
f 7/11/5 8/5/5 4/3/5
f 5/4/6 1/12/6 4/3/6
f 11/13/7 13/14/7 10/15/7
f 26/16/8 21/17/8 24/18/8
f 12/17/9 14/16/9 13/14/9
f 18/19/10 16/20/10 9/18/10
f 30/21/11 32/22/11 31/23/11
f 14/16/12 16/24/12 15/25/12
f 32/22/13 21/17/13 22/13/13
f 27/25/14 28/24/14 30/26/14
f 15/25/15 16/24/15 18/26/15
f 26/16/16 28/24/16 27/25/16
f 20/22/17 12/17/17 11/13/17
f 18/21/18 20/22/18 19/23/18
f 30/19/19 28/20/19 24/18/19
f 21/17/20 26/16/20 25/14/20
f 22/13/21 25/14/21 23/15/21
f 14/16/22 12/17/22 9/18/22
f 12/17/23 20/27/23 9/18/23
f 16/20/24 14/16/24 9/18/24
f 20/27/25 18/28/25 9/18/25
f 17/29/26 19/30/26 10/15/26
f 19/30/27 11/13/27 10/15/27
f 15/31/28 17/32/28 10/15/28
f 13/14/29 15/31/29 10/15/29
f 21/17/30 32/27/30 24/18/30
f 28/20/31 26/16/31 24/18/31
f 32/27/32 30/28/32 24/18/32
f 29/29/33 31/30/33 23/15/33
f 31/30/34 22/13/34 23/15/34
f 27/31/35 29/32/35 23/15/35
f 25/14/36 27/31/36 23/15/36
f 35/13/37 37/14/37 34/15/37
f 36/17/38 38/16/38 37/14/38
f 42/19/39 40/20/39 33/18/39
f 38/16/40 40/24/40 39/25/40
f 40/24/41 42/26/41 41/33/41
f 44/22/42 36/17/42 35/13/42
f 42/21/43 44/22/43 43/23/43
f 38/16/44 36/17/44 33/18/44
f 36/17/45 44/27/45 33/18/45
f 40/20/46 38/16/46 33/18/46
f 44/27/47 42/28/47 33/18/47
f 41/29/48 43/30/48 34/15/48
f 43/30/49 35/13/49 34/15/49
f 39/31/50 41/32/50 34/15/50
f 37/14/51 39/31/51 34/15/51
f 47/13/52 49/14/52 46/15/52
f 48/17/53 50/16/53 49/14/53
f 54/19/54 52/20/54 45/18/54
f 50/16/55 52/24/55 51/25/55
f 51/25/56 52/24/56 54/26/56
f 56/22/57 48/17/57 47/13/57
f 53/34/58 54/21/58 56/22/58
f 50/16/59 48/17/59 45/18/59
f 48/17/60 56/27/60 45/18/60
f 52/20/61 50/16/61 45/18/61
f 56/27/62 54/28/62 45/18/62
f 53/29/63 55/30/63 46/15/63
f 55/30/64 47/13/64 46/15/64
f 51/31/65 53/32/65 46/15/65
f 49/14/66 51/31/66 46/15/66
f 59/13/67 61/14/67 58/15/67
f 59/13/68 60/17/68 62/16/68
f 66/19/69 64/20/69 57/18/69
f 62/16/70 64/24/70 63/25/70
f 63/25/71 64/24/71 66/26/71
f 68/22/72 60/17/72 59/13/72
f 66/21/73 68/22/73 67/23/73
f 62/16/74 60/17/74 57/18/74
f 60/17/75 68/27/75 57/18/75
f 64/20/76 62/16/76 57/18/76
f 68/27/77 66/28/77 57/18/77
f 65/29/78 67/30/78 58/15/78
f 67/30/79 59/13/79 58/15/79
f 63/31/80 65/32/80 58/15/80
f 61/14/81 63/31/81 58/15/81
f 1/12/1 2/1/1 4/3/1
f 6/35/2 5/4/2 7/6/2
f 1/12/3 5/4/3 2/8/3
f 3/36/4 2/9/4 7/11/4
f 3/36/5 7/11/5 4/3/5
f 8/5/6 5/4/6 4/3/6
f 11/13/9 12/17/9 13/14/9
f 29/34/11 30/21/11 31/23/11
f 13/14/12 14/16/12 15/25/12
f 31/23/13 32/22/13 22/13/13
f 29/33/14 27/25/14 30/26/14
f 17/33/15 15/25/15 18/26/15
f 25/14/16 26/16/16 27/25/16
f 19/23/17 20/22/17 11/13/17
f 17/34/18 18/21/18 19/23/18
f 22/13/20 21/17/20 25/14/20
f 35/13/38 36/17/38 37/14/38
f 37/14/40 38/16/40 39/25/40
f 39/25/41 40/24/41 41/33/41
f 43/23/42 44/22/42 35/13/42
f 41/34/43 42/21/43 43/23/43
f 47/13/53 48/17/53 49/14/53
f 49/14/55 50/16/55 51/25/55
f 53/33/56 51/25/56 54/26/56
f 55/23/57 56/22/57 47/13/57
f 55/23/58 53/34/58 56/22/58
f 61/14/68 59/13/68 62/16/68
f 61/14/70 62/16/70 63/25/70
f 65/33/71 63/25/71 66/26/71
f 67/23/72 68/22/72 59/13/72
f 65/34/73 66/21/73 67/23/73
