# Blender v2.76 (sub 0) OBJ File: 'SpectralPatrol.blend'
# www.blender.org
mtllib SpectralPatrol.mtl
o Icosphere
v 0.000000 1.700000 1.050000
v 0.000000 1.624698 1.206366
v 0.000000 1.455496 1.244986
v 0.000000 1.319806 1.136777
v 0.000000 1.319806 0.963223
v 0.000000 1.455496 0.855014
v 0.000000 1.624698 0.893634
v -0.850000 1.472243 1.050000
v -0.812349 1.407030 1.206366
v -0.727748 1.260496 1.244986
v -0.659903 1.142986 1.136777
v -0.659903 1.142986 0.963223
v -0.727748 1.260496 0.855014
v -0.812349 1.407030 0.893634
v -1.472243 0.850000 1.050000
v -1.407030 0.812349 1.206366
v -1.260496 0.727748 1.244986
v -1.142986 0.659903 1.136777
v -1.142986 0.659903 0.963223
v -1.260496 0.727748 0.855014
v -1.407030 0.812349 0.893634
v -1.700000 0.000000 1.050000
v -1.624698 0.000000 1.206366
v -1.455496 0.000000 1.244986
v -1.319806 0.000000 1.136777
v -1.319806 0.000000 0.963223
v -1.455496 0.000000 0.855014
v -1.624698 0.000000 0.893634
v -1.472243 -0.850000 1.050000
v -1.407030 -0.812349 1.206366
v -1.260496 -0.727748 1.244986
v -1.142986 -0.659903 1.136777
v -1.142986 -0.659903 0.963223
v -1.260496 -0.727748 0.855014
v -1.407030 -0.812349 0.893634
v -0.850001 -1.472243 1.050000
v -0.812349 -1.407029 1.206366
v -0.727748 -1.260496 1.244986
v -0.659903 -1.142986 1.136777
v -0.659903 -1.142986 0.963223
v -0.727748 -1.260496 0.855014
v -0.812349 -1.407029 0.893634
v -0.000000 -1.700000 1.050000
v -0.000000 -1.624698 1.206366
v -0.000000 -1.455496 1.244986
v -0.000000 -1.319806 1.136777
v -0.000000 -1.319806 0.963223
v -0.000000 -1.455496 0.855014
v -0.000000 -1.624698 0.893634
v 0.850000 -1.472243 1.050000
v 0.812349 -1.407030 1.206366
v 0.727748 -1.260497 1.244986
v 0.659903 -1.142986 1.136777
v 0.659903 -1.142986 0.963223
v 0.727748 -1.260497 0.855014
v 0.812349 -1.407030 0.893634
v 1.472243 -0.850000 1.050000
v 1.407030 -0.812349 1.206366
v 1.260496 -0.727748 1.244986
v 1.142986 -0.659903 1.136777
v 1.142986 -0.659903 0.963223
v 1.260496 -0.727748 0.855014
v 1.407030 -0.812349 0.893634
v 1.700000 0.000000 1.050000
v 1.624698 0.000000 1.206366
v 1.455496 0.000000 1.244986
v 1.319806 0.000000 1.136777
v 1.319806 0.000000 0.963223
v 1.455496 0.000000 0.855014
v 1.624698 0.000000 0.893634
v 1.472243 0.850000 1.050000
v 1.407030 0.812349 1.206366
v 1.260496 0.727748 1.244986
v 1.142986 0.659903 1.136777
v 1.142986 0.659903 0.963223
v 1.260496 0.727748 0.855014
v 1.407030 0.812349 0.893634
v 0.850000 1.472243 1.050000
v 0.812349 1.407030 1.206366
v 0.727748 1.260496 1.244986
v 0.659903 1.142986 1.136777
v 0.659903 1.142986 0.963223
v 0.727748 1.260496 0.855014
v 0.812349 1.407030 0.893634
v -0.000000 -0.000000 0.070798
v 0.470620 0.647760 0.565637
v 0.761486 -0.247418 0.565636
v -0.000000 -0.800674 0.565640
v -0.761486 -0.247418 0.565636
v -0.470620 0.647760 0.565637
v 0.761486 0.247418 1.366323
v 0.470620 -0.647760 1.366322
v -0.470620 -0.647760 1.366322
v -0.761486 0.247418 1.366323
v -0.000000 0.800674 1.366319
v -0.000000 -0.000000 1.861161
v 0.447587 -0.145427 0.204489
v 0.276621 0.380741 0.204489
v 0.724213 0.235315 0.495349
v -0.000000 0.761485 0.495350
v -0.276621 0.380741 0.204489
v -0.000000 -0.470624 0.204491
v 0.447588 -0.616055 0.495350
v -0.447587 -0.145427 0.204489
v -0.447588 -0.616055 0.495350
v -0.724213 0.235315 0.495349
v 0.276622 0.851370 0.965979
v -0.276622 0.851370 0.965979
v 0.895182 -0.000000 0.965979
v 0.724217 0.526175 0.965979
v 0.276622 -0.851370 0.965979
v 0.724217 -0.526175 0.965979
v -0.724217 -0.526175 0.965979
v -0.276622 -0.851370 0.965979
v -0.724217 0.526175 0.965979
v -0.895182 -0.000000 0.965979
v 0.447588 0.616055 1.436609
v 0.724213 -0.235315 1.436610
v -0.000000 -0.761485 1.436609
v -0.724213 -0.235315 1.436610
v -0.447588 0.616055 1.436609
v 0.447587 0.145427 1.727470
v -0.000000 0.470624 1.727467
v 0.276621 -0.380741 1.727470
v -0.276621 -0.380741 1.727470
v -0.447587 0.145427 1.727470
vt 0.550618 0.832487
vt 0.549625 0.854497
vt 0.441323 0.853063
vt 0.548493 0.876832
vt 0.440816 0.876627
vt 0.547518 0.901257
vt 0.440150 0.901933
vt 0.547330 0.927457
vt 0.439712 0.928452
vt 0.547711 0.952703
vt 0.439245 0.953845
vt 0.548606 0.976189
vt 0.439041 0.977565
vt 0.549838 0.998733
vt 0.657655 0.841425
vt 0.653326 0.863107
vt 0.646525 0.882952
vt 0.641835 0.902399
vt 0.642640 0.922542
vt 0.649052 0.943273
vt 0.657287 0.964942
vt 0.662136 0.986682
vt 0.550632 0.827873
vt 0.549239 0.805772
vt 0.657180 0.794296
vt 0.548272 0.782364
vt 0.649010 0.772794
vt 0.547835 0.757200
vt 0.642643 0.752200
vt 0.547986 0.731080
vt 0.641848 0.732164
vt 0.548944 0.706729
vt 0.646524 0.712804
vt 0.550075 0.684463
vt 0.653302 0.693047
vt 0.551077 0.662525
vt 0.657621 0.671465
vt 0.440054 0.829919
vt 0.439819 0.807353
vt 0.439966 0.783650
vt 0.440390 0.758278
vt 0.440803 0.731779
vt 0.441464 0.706492
vt 0.441980 0.682944
vt 0.442193 0.660559
vt 0.329834 0.829922
vt 0.329867 0.807383
vt 0.330248 0.783652
vt 0.330840 0.758227
vt 0.331296 0.731654
vt 0.331889 0.706228
vt 0.332270 0.682498
vt 0.332302 0.659959
vt 0.219944 0.829322
vt 0.220156 0.806937
vt 0.220673 0.783389
vt 0.221334 0.758101
vt 0.221747 0.731603
vt 0.222171 0.706231
vt 0.222318 0.682528
vt 0.222083 0.659962
vt 0.111059 0.827355
vt 0.112062 0.805417
vt 0.113193 0.783151
vt 0.114151 0.758801
vt 0.114302 0.732681
vt 0.113864 0.707516
vt 0.112898 0.684109
vt 0.111504 0.662008
vt 0.004515 0.818416
vt 0.008835 0.796833
vt 0.015613 0.777076
vt 0.020289 0.757717
vt 0.019493 0.737681
vt 0.013127 0.717087
vt 0.004956 0.695585
vt 0.000135 0.674025
vt 0.000135 0.844571
vt 0.111282 0.832464
vt 0.112696 0.854522
vt 0.113683 0.877886
vt 0.013146 0.887538
vt 0.114145 0.903003
vt 0.019521 0.908087
vt 0.114020 0.929074
vt 0.020335 0.928084
vt 0.113087 0.953378
vt 0.015687 0.947411
vt 0.111981 0.975603
vt 0.008941 0.967137
vt 0.111001 0.997499
vt 0.004652 0.988683
vt 0.221656 0.830310
vt 0.221913 0.852837
vt 0.221789 0.876499
vt 0.221389 0.901826
vt 0.221001 0.928276
vt 0.220363 0.953516
vt 0.219868 0.977017
vt 0.219676 0.999357
vt 0.331697 0.830191
vt 0.331687 0.852705
vt 0.331327 0.876408
vt 0.330753 0.901800
vt 0.330312 0.928333
vt 0.329729 0.953713
vt 0.329356 0.977390
vt 0.329332 0.999865
vt 0.441513 0.830662
vt 0.439164 0.999865
vt 0.173438 0.494850
vt 0.145349 0.533511
vt 0.127989 0.480083
vt 0.111961 0.579467
vt 0.173438 0.589412
vt 0.173438 0.447062
vt 0.218887 0.480083
vt 0.201527 0.533511
vt 0.119940 0.659689
vt 0.073965 0.462530
vt 0.083505 0.524072
vt 0.000135 0.494908
vt 0.173438 0.390258
vt 0.117856 0.418348
vt 0.119830 0.330047
vt 0.272911 0.462530
vt 0.229020 0.418348
vt 0.313609 0.392939
vt 0.234915 0.579467
vt 0.263371 0.524072
vt 0.313677 0.596669
vt 0.033199 0.596669
vt 0.033266 0.392939
vt 0.227046 0.330047
vt 0.346741 0.494908
vt 0.226936 0.659689
vt 0.073965 0.132618
vt 0.117856 0.088436
vt 0.127989 0.150171
vt 0.111961 0.249555
vt 0.083505 0.194160
vt 0.145349 0.203599
vt 0.234915 0.249555
vt 0.173438 0.259500
vt 0.201527 0.203599
vt 0.272911 0.132618
vt 0.263371 0.194160
vt 0.218887 0.150171
vt 0.173438 0.060346
vt 0.229020 0.088436
vt 0.173438 0.117150
vt 0.173438 0.164938
vt 0.227046 0.000135
vt 0.313609 0.063027
vt 0.346741 0.164996
vt 0.313677 0.266757
vt 0.226936 0.329777
vt 0.119940 0.329777
vt 0.033199 0.266757
vt 0.000135 0.164996
vt 0.033266 0.063027
vt 0.119830 0.000135
vt 0.662002 0.815856
vt 0.004969 0.866085
vn -0.234700 0.875800 0.421800
vn -0.059500 0.222100 0.973200
vn 0.164800 -0.615000 0.771100
vn 0.258800 -0.965900 0.000000
vn 0.164800 -0.615000 -0.771100
vn -0.059500 0.222100 -0.973200
vn -0.234700 0.875800 -0.421800
vn -0.641100 0.641100 0.421800
vn -0.162600 0.162600 0.973200
vn 0.450200 -0.450200 0.771100
vn 0.707100 -0.707100 0.000000
vn 0.450200 -0.450200 -0.771100
vn -0.162600 0.162600 -0.973200
vn -0.641100 0.641100 -0.421800
vn -0.875800 0.234700 0.421800
vn -0.222100 0.059500 0.973200
vn 0.615000 -0.164800 0.771100
vn 0.965900 -0.258800 0.000000
vn 0.615000 -0.164800 -0.771100
vn -0.222100 0.059500 -0.973200
vn -0.875800 0.234700 -0.421800
vn -0.875800 -0.234700 0.421800
vn -0.222100 -0.059500 0.973200
vn 0.615000 0.164800 0.771100
vn 0.965900 0.258800 0.000000
vn 0.615000 0.164800 -0.771100
vn -0.222100 -0.059500 -0.973200
vn -0.875800 -0.234700 -0.421800
vn -0.641100 -0.641100 0.421800
vn -0.162600 -0.162600 0.973200
vn 0.450200 0.450200 0.771100
vn 0.707100 0.707100 0.000000
vn 0.450200 0.450200 -0.771100
vn -0.162600 -0.162600 -0.973200
vn -0.641100 -0.641100 -0.421800
vn -0.234700 -0.875800 0.421800
vn -0.059500 -0.222100 0.973200
vn 0.164800 0.615000 0.771100
vn 0.258800 0.965900 0.000000
vn 0.164800 0.615000 -0.771100
vn -0.059500 -0.222100 -0.973200
vn -0.234700 -0.875800 -0.421800
vn 0.234700 -0.875800 0.421800
vn 0.059500 -0.222100 0.973200
vn -0.164800 0.615000 0.771100
vn -0.258800 0.965900 0.000000
vn -0.164800 0.615000 -0.771100
vn 0.059500 -0.222100 -0.973200
vn 0.234700 -0.875800 -0.421800
vn 0.641100 -0.641100 0.421800
vn 0.162600 -0.162600 0.973200
vn -0.450200 0.450200 0.771100
vn -0.707100 0.707100 0.000000
vn -0.450200 0.450200 -0.771100
vn 0.162600 -0.162600 -0.973200
vn 0.641100 -0.641100 -0.421800
vn 0.875800 -0.234700 0.421800
vn 0.222100 -0.059500 0.973200
vn -0.615000 0.164800 0.771100
vn -0.965900 0.258800 0.000000
vn -0.615000 0.164800 -0.771100
vn 0.222100 -0.059500 -0.973200
vn 0.875800 -0.234700 -0.421800
vn 0.875800 0.234700 0.421800
vn 0.222100 0.059500 0.973200
vn -0.615000 -0.164800 0.771100
vn -0.965900 -0.258800 0.000000
vn -0.615000 -0.164800 -0.771100
vn 0.222100 0.059500 -0.973200
vn 0.875800 0.234700 -0.421800
vn 0.641100 0.641100 0.421800
vn 0.162600 0.162600 0.973200
vn -0.450200 -0.450200 0.771100
vn -0.707100 -0.707100 0.000000
vn -0.450200 -0.450200 -0.771100
vn 0.162600 0.162600 -0.973200
vn 0.641100 0.641100 -0.421800
vn 0.234700 0.875800 0.421800
vn 0.059500 0.222100 0.973200
vn -0.164800 -0.615000 0.771100
vn -0.258800 -0.965900 0.000000
vn -0.164800 -0.615000 -0.771100
vn 0.059500 0.222100 -0.973200
vn 0.234700 0.875800 -0.421800
vn 0.315100 0.102400 -0.943500
vn 0.268000 0.700200 -0.661700
vn 0.194700 -0.268000 -0.943500
vn -0.194700 -0.268000 -0.943500
vn -0.315100 0.102400 -0.943500
vn 0.268000 0.905000 -0.330400
vn 0.943500 0.024700 -0.330400
vn 0.315100 -0.889700 -0.330400
vn -0.748800 -0.574600 -0.330400
vn -0.777900 0.534600 -0.330400
vn 0.583100 0.802600 -0.125600
vn 0.943500 -0.306600 -0.125600
vn 0.000000 -0.992100 -0.125600
vn -0.943500 -0.306600 -0.125600
vn -0.583100 0.802600 -0.125600
vn 0.628400 0.408900 0.661700
vn 0.583100 -0.471300 0.661700
vn -0.268000 -0.700200 0.661700
vn -0.748800 0.038500 0.661700
vn -0.194700 0.724000 0.661700
vn -0.194700 0.268000 0.943500
vn -0.356800 0.491100 0.794700
vn -0.628400 0.408900 0.661700
vn -0.315100 -0.102400 0.943500
vn -0.577300 -0.187600 0.794700
vn -0.583100 -0.471300 0.661700
vn 0.000000 -0.331300 0.943500
vn 0.000000 -0.607100 0.794700
vn 0.268000 -0.700200 0.661700
vn 0.315100 -0.102400 0.943500
vn 0.577300 -0.187600 0.794700
vn 0.748800 0.038500 0.661700
vn 0.194700 0.268000 0.943500
vn 0.356800 0.491100 0.794700
vn 0.194700 0.724000 0.661700
vn -0.315100 0.889700 0.330400
vn -0.577300 0.794700 0.187600
vn -0.748800 0.574600 0.330400
vn -0.943500 -0.024700 0.330400
vn -0.934200 -0.303500 0.187600
vn -0.777900 -0.534600 0.330400
vn -0.268000 -0.905000 0.330400
vn 0.000000 -0.982200 0.187600
vn 0.268000 -0.905000 0.330400
vn 0.777900 -0.534600 0.330400
vn 0.934200 -0.303500 0.187600
vn 0.943500 -0.024700 0.330400
vn 0.748800 0.574600 0.330400
vn 0.577300 0.794700 0.187600
vn 0.315100 0.889700 0.330400
vn -0.943500 0.306600 0.125600
vn -0.934200 0.303500 -0.187600
vn -0.943500 0.024700 -0.330400
vn -0.583100 -0.802600 0.125600
vn -0.577300 -0.794700 -0.187600
vn -0.315100 -0.889700 -0.330400
vn 0.583100 -0.802600 0.125600
vn 0.577300 -0.794700 -0.187600
vn 0.748800 -0.574600 -0.330400
vn 0.943500 0.306600 0.125600
vn 0.934200 0.303500 -0.187600
vn 0.777900 0.534600 -0.330400
vn 0.000000 0.992100 0.125600
vn 0.000000 0.982200 -0.187600
vn -0.268000 0.905000 -0.330400
vn -0.583100 0.471300 -0.661700
vn -0.577300 0.187600 -0.794700
vn -0.748800 -0.038500 -0.661700
vn -0.628400 -0.408900 -0.661700
vn -0.356800 -0.491100 -0.794700
vn -0.194700 -0.724000 -0.661700
vn 0.194700 -0.724000 -0.661700
vn 0.356800 -0.491100 -0.794700
vn 0.628400 -0.408900 -0.661700
vn -0.268000 0.700200 -0.661700
vn 0.000000 0.607100 -0.794700
vn 0.000000 0.331300 -0.943500
vn 0.748800 -0.038500 -0.661700
vn 0.577300 0.187600 -0.794700
vn 0.583100 0.471300 -0.661700
usemtl None
s off
f 8/1/1 9/2/1 2/3/1
f 9/2/2 10/4/2 3/5/2
f 10/4/3 11/6/3 4/7/3
f 11/6/4 12/8/4 5/9/4
f 12/8/5 13/10/5 6/11/5
f 13/10/6 14/12/6 7/13/6
f 7/13/7 14/12/7 8/14/7
f 15/15/8 16/16/8 9/2/8
f 16/16/9 17/17/9 10/4/9
f 17/17/10 18/18/10 11/6/10
f 18/18/11 19/19/11 12/8/11
f 19/19/12 20/20/12 13/10/12
f 20/20/13 21/21/13 14/12/13
f 14/12/14 21/21/14 15/22/14
f 22/23/15 23/24/15 16/25/15
f 23/24/16 24/26/16 17/27/16
f 24/26/17 25/28/17 18/29/17
f 25/28/18 26/30/18 19/31/18
f 26/30/19 27/32/19 20/33/19
f 27/32/20 28/34/20 21/35/20
f 28/34/21 22/36/21 15/37/21
f 29/38/22 30/39/22 23/24/22
f 30/39/23 31/40/23 24/26/23
f 31/40/24 32/41/24 25/28/24
f 32/41/25 33/42/25 26/30/25
f 26/30/26 33/42/26 34/43/26
f 34/43/27 35/44/27 28/34/27
f 35/44/28 29/45/28 22/36/28
f 29/38/29 36/46/29 37/47/29
f 37/47/30 38/48/30 31/40/30
f 38/48/31 39/49/31 32/41/31
f 39/49/32 40/50/32 33/42/32
f 33/42/33 40/50/33 41/51/33
f 41/51/34 42/52/34 35/44/34
f 42/52/35 36/53/35 29/45/35
f 43/54/36 44/55/36 37/47/36
f 44/55/37 45/56/37 38/48/37
f 45/56/38 46/57/38 39/49/38
f 46/57/39 47/58/39 40/50/39
f 40/50/40 47/58/40 48/59/40
f 41/51/41 48/59/41 49/60/41
f 49/60/42 43/61/42 36/53/42
f 43/54/43 50/62/43 51/63/43
f 51/63/44 52/64/44 45/56/44
f 52/64/45 53/65/45 46/57/45
f 53/65/46 54/66/46 47/58/46
f 54/66/47 55/67/47 48/59/47
f 48/59/48 55/67/48 56/68/48
f 56/68/49 50/69/49 43/61/49
f 57/70/50 58/71/50 51/63/50
f 51/63/51 58/71/51 59/72/51
f 59/72/52 60/73/52 53/65/52
f 60/73/53 61/74/53 54/66/53
f 61/74/54 62/75/54 55/67/54
f 62/75/55 63/76/55 56/68/55
f 63/76/56 57/77/56 50/69/56
f 57/78/57 64/79/57 65/80/57
f 65/80/58 66/81/58 59/82/58
f 66/81/59 67/83/59 60/84/59
f 67/83/60 68/85/60 61/86/60
f 68/85/61 69/87/61 62/88/61
f 69/87/62 70/89/62 63/90/62
f 70/89/63 64/91/63 57/92/63
f 71/93/64 72/94/64 65/80/64
f 72/94/65 73/95/65 66/81/65
f 73/95/66 74/96/66 67/83/66
f 74/96/67 75/97/67 68/85/67
f 75/97/68 76/98/68 69/87/68
f 76/98/69 77/99/69 70/89/69
f 77/99/70 71/100/70 64/91/70
f 78/101/71 79/102/71 72/94/71
f 79/102/72 80/103/72 73/95/72
f 80/103/73 81/104/73 74/96/73
f 81/104/74 82/105/74 75/97/74
f 82/105/75 83/106/75 76/98/75
f 76/98/76 83/106/76 84/107/76
f 77/99/77 84/107/77 78/108/77
f 1/109/78 2/3/78 79/102/78
f 79/102/79 2/3/79 3/5/79
f 3/5/80 4/7/80 81/104/80
f 4/7/81 5/9/81 82/105/81
f 82/105/82 5/9/82 6/11/82
f 6/11/83 7/13/83 84/107/83
f 7/13/84 1/110/84 78/108/84
f 85/111/85 98/112/85 97/113/85
f 86/114/86 98/112/86 100/115/86
f 85/111/87 97/113/87 102/116/87
f 85/111/88 102/116/88 104/117/88
f 85/111/89 104/117/89 101/118/89
f 86/114/90 100/115/90 107/119/90
f 87/120/91 99/121/91 109/122/91
f 88/123/92 103/124/92 111/125/92
f 89/126/93 105/127/93 113/128/93
f 90/129/94 106/130/94 115/131/94
f 86/114/95 107/119/95 110/132/95
f 87/120/96 109/122/96 112/133/96
f 88/123/97 111/125/97 114/134/97
f 89/126/98 113/128/98 116/135/98
f 90/129/99 115/131/99 108/136/99
f 91/137/100 117/138/100 122/139/100
f 92/140/101 118/141/101 124/142/101
f 93/143/102 119/144/102 125/145/102
f 94/146/103 120/147/103 126/148/103
f 95/149/104 121/150/104 123/151/104
f 123/151/105 126/148/105 96/152/105
f 123/151/106 121/150/106 126/148/106
f 121/150/107 94/146/107 126/148/107
f 126/148/108 125/145/108 96/152/108
f 126/148/109 120/147/109 125/145/109
f 120/147/110 93/143/110 125/145/110
f 125/145/111 124/142/111 96/152/111
f 125/145/112 119/144/112 124/142/112
f 119/144/113 92/140/113 124/142/113
f 124/142/114 122/139/114 96/152/114
f 124/142/115 118/141/115 122/139/115
f 118/141/116 91/137/116 122/139/116
f 122/139/117 123/151/117 96/152/117
f 122/139/118 117/138/118 123/151/118
f 117/138/119 95/149/119 123/151/119
f 108/153/120 121/150/120 95/149/120
f 108/153/121 115/154/121 121/150/121
f 115/154/122 94/146/122 121/150/122
f 116/155/123 120/147/123 94/146/123
f 116/155/124 113/156/124 120/147/124
f 113/156/125 93/143/125 120/147/125
f 114/157/126 119/144/126 93/143/126
f 114/157/127 111/158/127 119/144/127
f 111/158/128 92/140/128 119/144/128
f 112/159/129 118/141/129 92/140/129
f 112/159/130 109/160/130 118/141/130
f 109/160/131 91/137/131 118/141/131
f 110/161/132 117/138/132 91/137/132
f 110/161/133 107/162/133 117/138/133
f 107/162/134 95/149/134 117/138/134
f 115/154/135 116/155/135 94/146/135
f 115/131/136 106/130/136 116/135/136
f 106/130/137 89/126/137 116/135/137
f 113/156/138 114/157/138 93/143/138
f 113/128/139 105/127/139 114/134/139
f 105/127/140 88/123/140 114/134/140
f 111/158/141 112/159/141 92/140/141
f 111/125/142 103/124/142 112/133/142
f 103/124/143 87/120/143 112/133/143
f 109/160/144 110/161/144 91/137/144
f 109/122/145 99/121/145 110/132/145
f 99/121/146 86/114/146 110/132/146
f 107/162/147 108/153/147 95/149/147
f 107/119/148 100/115/148 108/136/148
f 100/115/149 90/129/149 108/136/149
f 101/118/150 106/130/150 90/129/150
f 101/118/151 104/117/151 106/130/151
f 104/117/152 89/126/152 106/130/152
f 104/117/153 105/127/153 89/126/153
f 104/117/154 102/116/154 105/127/154
f 102/116/155 88/123/155 105/127/155
f 102/116/156 103/124/156 88/123/156
f 102/116/157 97/113/157 103/124/157
f 97/113/158 87/120/158 103/124/158
f 100/115/159 101/118/159 90/129/159
f 100/115/160 98/112/160 101/118/160
f 98/112/161 85/111/161 101/118/161
f 97/113/162 99/121/162 87/120/162
f 97/113/163 98/112/163 99/121/163
f 98/112/164 86/114/164 99/121/164
f 1/109/1 8/1/1 2/3/1
f 2/3/2 9/2/2 3/5/2
f 3/5/3 10/4/3 4/7/3
f 4/7/4 11/6/4 5/9/4
f 5/9/5 12/8/5 6/11/5
f 6/11/6 13/10/6 7/13/6
f 1/110/7 7/13/7 8/14/7
f 8/1/8 15/15/8 9/2/8
f 9/2/9 16/16/9 10/4/9
f 10/4/10 17/17/10 11/6/10
f 11/6/11 18/18/11 12/8/11
f 12/8/12 19/19/12 13/10/12
f 13/10/13 20/20/13 14/12/13
f 8/14/14 14/12/14 15/22/14
f 15/163/15 22/23/15 16/25/15
f 16/25/16 23/24/16 17/27/16
f 17/27/17 24/26/17 18/29/17
f 18/29/18 25/28/18 19/31/18
f 19/31/19 26/30/19 20/33/19
f 20/33/20 27/32/20 21/35/20
f 21/35/21 28/34/21 15/37/21
f 22/23/22 29/38/22 23/24/22
f 23/24/23 30/39/23 24/26/23
f 24/26/24 31/40/24 25/28/24
f 25/28/25 32/41/25 26/30/25
f 27/32/26 26/30/26 34/43/26
f 27/32/27 34/43/27 28/34/27
f 28/34/28 35/44/28 22/36/28
f 30/39/29 29/38/29 37/47/29
f 30/39/30 37/47/30 31/40/30
f 31/40/31 38/48/31 32/41/31
f 32/41/32 39/49/32 33/42/32
f 34/43/33 33/42/33 41/51/33
f 34/43/34 41/51/34 35/44/34
f 35/44/35 42/52/35 29/45/35
f 36/46/36 43/54/36 37/47/36
f 37/47/37 44/55/37 38/48/37
f 38/48/38 45/56/38 39/49/38
f 39/49/39 46/57/39 40/50/39
f 41/51/40 40/50/40 48/59/40
f 42/52/41 41/51/41 49/60/41
f 42/52/42 49/60/42 36/53/42
f 44/55/43 43/54/43 51/63/43
f 44/55/44 51/63/44 45/56/44
f 45/56/45 52/64/45 46/57/45
f 46/57/46 53/65/46 47/58/46
f 47/58/47 54/66/47 48/59/47
f 49/60/48 48/59/48 56/68/48
f 49/60/49 56/68/49 43/61/49
f 50/62/50 57/70/50 51/63/50
f 52/64/51 51/63/51 59/72/51
f 52/64/52 59/72/52 53/65/52
f 53/65/53 60/73/53 54/66/53
f 54/66/54 61/74/54 55/67/54
f 55/67/55 62/75/55 56/68/55
f 56/68/56 63/76/56 50/69/56
f 58/164/57 57/78/57 65/80/57
f 58/164/58 65/80/58 59/82/58
f 59/82/59 66/81/59 60/84/59
f 60/84/60 67/83/60 61/86/60
f 61/86/61 68/85/61 62/88/61
f 62/88/62 69/87/62 63/90/62
f 63/90/63 70/89/63 57/92/63
f 64/79/64 71/93/64 65/80/64
f 65/80/65 72/94/65 66/81/65
f 66/81/66 73/95/66 67/83/66
f 67/83/67 74/96/67 68/85/67
f 68/85/68 75/97/68 69/87/68
f 69/87/69 76/98/69 70/89/69
f 70/89/70 77/99/70 64/91/70
f 71/93/71 78/101/71 72/94/71
f 72/94/72 79/102/72 73/95/72
f 73/95/73 80/103/73 74/96/73
f 74/96/74 81/104/74 75/97/74
f 75/97/75 82/105/75 76/98/75
f 77/99/76 76/98/76 84/107/76
f 71/100/77 77/99/77 78/108/77
f 78/101/78 1/109/78 79/102/78
f 80/103/79 79/102/79 3/5/79
f 80/103/80 3/5/80 81/104/80
f 81/104/81 4/7/81 82/105/81
f 83/106/82 82/105/82 6/11/82
f 83/106/83 6/11/83 84/107/83
f 84/107/84 7/13/84 78/108/84
