# Blender v2.76 (sub 0) OBJ File: 'Target.blend'
# www.blender.org
mtllib Target.mtl
o Cube
v 0.025713 0.628761 1.984399
v 0.025713 0.594597 2.066879
v 0.025713 0.512118 2.101043
v 0.025713 0.429639 2.066879
v 0.025713 0.395475 1.984399
v 0.025713 0.429639 1.901920
v 0.025713 0.512118 1.867756
v 0.025713 0.594597 1.901920
v -0.308868 0.539110 1.984399
v -0.291786 0.509523 2.066879
v -0.250547 0.438094 2.101043
v -0.209307 0.366665 2.066879
v -0.192225 0.337078 1.984399
v -0.209307 0.366665 1.901920
v -0.250547 0.438094 1.867756
v -0.291786 0.509523 1.901920
v -0.553799 0.294179 1.984399
v -0.524212 0.277098 2.066879
v -0.452783 0.235858 2.101043
v -0.381354 0.194618 2.066879
v -0.351767 0.177537 1.984399
v -0.381354 0.194618 1.901920
v -0.452783 0.235858 1.867756
v -0.524212 0.277098 1.901920
v -0.643450 -0.040402 1.984399
v -0.609286 -0.040402 2.066879
v -0.526807 -0.040402 2.101043
v -0.444328 -0.040402 2.066879
v -0.410164 -0.040402 1.984399
v -0.444328 -0.040402 1.901920
v -0.526807 -0.040402 1.867756
v -0.609286 -0.040402 1.901920
v -0.553799 -0.374983 1.984399
v -0.524212 -0.357901 2.066879
v -0.452783 -0.316661 2.101043
v -0.381354 -0.275422 2.066879
v -0.351767 -0.258340 1.984399
v -0.381354 -0.275422 1.901920
v -0.452783 -0.316661 1.867756
v -0.524212 -0.357901 1.901920
v -0.308868 -0.619913 1.984399
v -0.291787 -0.590327 2.066879
v -0.250547 -0.518898 2.101043
v -0.209307 -0.447469 2.066879
v -0.192225 -0.417882 1.984399
v -0.209307 -0.447469 1.901920
v -0.250547 -0.518898 1.867756
v -0.291787 -0.590327 1.901920
v 0.025713 -0.709564 1.984399
v 0.025713 -0.675400 2.066879
v 0.025713 -0.592921 2.101043
v 0.025713 -0.510442 2.066879
v 0.025713 -0.476278 1.984399
v 0.025713 -0.510442 1.901920
v 0.025713 -0.592921 1.867756
v 0.025713 -0.675400 1.901920
v 0.360294 -0.619914 1.984399
v 0.343212 -0.590327 2.066879
v 0.301973 -0.518898 2.101043
v 0.260733 -0.447469 2.066879
v 0.243651 -0.417882 1.984399
v 0.260733 -0.447469 1.901920
v 0.301973 -0.518898 1.867756
v 0.343212 -0.590327 1.901920
v 0.605225 -0.374983 1.984399
v 0.575638 -0.357901 2.066879
v 0.504209 -0.316661 2.101043
v 0.432780 -0.275422 2.066879
v 0.403193 -0.258340 1.984399
v 0.432780 -0.275422 1.901920
v 0.504209 -0.316661 1.867756
v 0.575638 -0.357901 1.901920
v 0.694875 -0.040402 1.984399
v 0.660712 -0.040402 2.066879
v 0.578232 -0.040402 2.101043
v 0.495753 -0.040402 2.066879
v 0.461590 -0.040402 1.984399
v 0.495753 -0.040402 1.901920
v 0.578232 -0.040402 1.867756
v 0.660712 -0.040402 1.901920
v 0.605225 0.294179 1.984399
v 0.575638 0.277098 2.066879
v 0.504209 0.235858 2.101043
v 0.432780 0.194618 2.066879
v 0.403193 0.177537 1.984399
v 0.432780 0.194618 1.901920
v 0.504209 0.235858 1.867756
v 0.575638 0.277098 1.901920
v 0.360294 0.539110 1.984399
v 0.343212 0.509523 2.066879
v 0.301973 0.438094 2.101043
v 0.260733 0.366665 2.066879
v 0.243651 0.337078 1.984399
v 0.260733 0.366665 1.901920
v 0.301973 0.438094 1.867756
v 0.343212 0.509523 1.901920
v -0.797426 0.022112 0.002884
v -0.632507 0.022112 0.166776
v -0.640924 0.503776 0.002884
v -0.507502 0.406839 0.166776
v -0.231196 0.801462 0.002884
v -0.180233 0.644614 0.166776
v 0.275257 0.801462 0.002884
v 0.224294 0.644614 0.166776
v 0.684985 0.503776 0.002884
v 0.551563 0.406839 0.166776
v 0.841488 0.022112 0.002884
v 0.676568 0.022112 0.166776
v 0.684985 -0.459553 0.002884
v 0.551563 -0.362616 0.166776
v 0.275257 -0.757238 0.002884
v 0.224294 -0.600391 0.166776
v -0.231196 -0.757238 0.002884
v -0.180233 -0.600391 0.166776
v -0.640924 -0.459553 0.002884
v -0.507502 -0.362616 0.166776
v 0.123136 0.255960 1.902570
v 0.123136 0.255960 2.072679
v -0.046973 0.255960 1.902570
v -0.046973 0.255960 2.072679
v 0.123136 0.941073 1.902570
v 0.123136 0.941073 2.072679
v -0.046973 0.941073 1.902570
v -0.046973 0.941073 2.072679
v 0.123136 -0.943998 1.902570
v 0.123136 -0.943998 2.072679
v -0.046973 -0.943998 1.902570
v -0.046973 -0.943998 2.072679
v 0.123136 -0.258885 1.902570
v 0.123136 -0.258885 2.072679
v -0.046973 -0.258885 1.902570
v -0.046973 -0.258885 2.072679
v -0.219341 0.083592 1.902570
v -0.219341 0.083592 2.072679
v -0.219341 -0.086517 1.902570
v -0.219341 -0.086517 2.072679
v -0.904454 0.083592 1.902570
v -0.904454 0.083592 2.072679
v -0.904454 -0.086517 1.902570
v -0.904454 -0.086517 2.072679
v 0.980617 0.083592 1.902570
v 0.980617 0.083592 2.072679
v 0.980617 -0.086517 1.902570
v 0.980617 -0.086517 2.072679
v 0.295504 0.083592 1.902570
v 0.295504 0.083592 2.072679
v 0.295504 -0.086517 1.902570
v 0.295504 -0.086517 2.072679
vt 0.370271 0.426725
vt 0.359207 0.407737
vt 0.418938 0.358869
vt 0.348689 0.388963
vt 0.402729 0.344738
vt 0.338281 0.369832
vt 0.386476 0.330219
vt 0.327344 0.350580
vt 0.369699 0.315765
vt 0.399493 0.643090
vt 0.420110 0.635065
vt 0.432444 0.695957
vt 0.440532 0.627612
vt 0.454079 0.695799
vt 0.460614 0.620053
vt 0.475441 0.695431
vt 0.481761 0.612058
vt 0.290499 0.455275
vt 0.286477 0.433658
vt 0.282898 0.412430
vt 0.279543 0.390905
vt 0.275731 0.369088
vt 0.371079 0.595845
vt 0.387916 0.581282
vt 0.404751 0.567274
vt 0.421236 0.553225
vt 0.437871 0.538567
vt 0.205739 0.455275
vt 0.209237 0.433559
vt 0.213022 0.412357
vt 0.217118 0.390953
vt 0.220882 0.369121
vt 0.328413 0.560869
vt 0.339373 0.541476
vt 0.350504 0.522601
vt 0.361274 0.503811
vt 0.371950 0.484433
vt 0.125906 0.426702
vt 0.136521 0.407427
vt 0.147233 0.388735
vt 0.158306 0.369956
vt 0.169212 0.350662
vt 0.276471 0.542314
vt 0.280255 0.520367
vt 0.284373 0.498850
vt 0.288178 0.477538
vt 0.291695 0.455707
vt 0.060347 0.372877
vt 0.076843 0.358302
vt 0.093233 0.344307
vt 0.109993 0.330353
vt 0.126769 0.315857
vt 0.221334 0.542346
vt 0.217503 0.520415
vt 0.214130 0.498778
vt 0.210532 0.477437
vt 0.206488 0.455707
vt 0.016744 0.300083
vt 0.037193 0.291916
vt 0.057348 0.284259
vt 0.077838 0.276766
vt 0.098526 0.268768
vt 0.169453 0.560950
vt 0.158459 0.541600
vt 0.147995 0.522371
vt 0.137420 0.503499
vt 0.126295 0.484409
vt 0.000216 0.216826
vt 0.022225 0.216025
vt 0.043786 0.215605
vt 0.065613 0.215452
vt 0.087800 0.214893
vt 0.126888 0.595939
vt 0.110021 0.581427
vt 0.093695 0.566852
vt 0.077388 0.552651
vt 0.060490 0.538433
vt 0.012702 0.132867
vt 0.033684 0.139511
vt 0.054114 0.146351
vt 0.074735 0.153550
vt 0.095869 0.160522
vt 0.098605 0.643220
vt 0.077838 0.635226
vt 0.057544 0.626993
vt 0.037423 0.619113
vt 0.016763 0.611427
vt 0.052643 0.058088
vt 0.070252 0.071421
vt 0.086956 0.084443
vt 0.103948 0.098067
vt 0.121863 0.111912
vt 0.087838 0.697300
vt 0.065739 0.696618
vt 0.043578 0.695750
vt 0.021907 0.695098
vt 0.000216 0.694668
vt 0.115402 0.000216
vt 0.128953 0.018500
vt 0.139145 0.037908
vt 0.149118 0.056597
vt 0.162434 0.074055
vt 0.095118 0.751593
vt 0.074735 0.756677
vt 0.054447 0.765291
vt 0.033305 0.773949
vt 0.011947 0.779114
vt 0.479136 0.300556
vt 0.458956 0.292879
vt 0.474719 0.215179
vt 0.438871 0.285001
vt 0.452008 0.216201
vt 0.418399 0.276756
vt 0.397922 0.268706
vt 0.409308 0.215397
vt 0.402594 0.750196
vt 0.423757 0.757044
vt 0.395767 0.810310
vt 0.443977 0.764012
vt 0.411164 0.824257
vt 0.463702 0.770532
vt 0.484323 0.777036
vt 0.445542 0.851186
vt 0.435717 0.372998
vt 0.410443 0.696572
vt 0.496647 0.695075
vt 0.866733 0.205628
vt 0.837934 0.113041
vt 0.887318 0.079716
vt 0.760123 0.056636
vt 0.780059 0.000341
vt 0.663724 0.057532
vt 0.646351 0.000216
vt 0.586047 0.115443
vt 0.538139 0.079259
vt 0.556964 0.208222
vt 0.496894 0.206961
vt 0.587597 0.300501
vt 0.666221 0.357119
vt 0.646354 0.413581
vt 0.762637 0.356430
vt 0.780000 0.413581
vt 0.839531 0.298682
vt 0.926607 0.206646
vt 0.887439 0.334273
vt 0.789481 0.580281
vt 0.747816 0.580281
vt 0.747816 0.538615
vt 0.957288 0.580281
vt 0.957288 0.621946
vt 0.789481 0.621946
vt 0.957288 0.538615
vt 0.998953 0.538615
vt 0.998953 0.580281
vt 0.789481 0.538615
vt 0.789481 0.496950
vt 0.957288 0.496950
vt 0.789481 0.455285
vt 0.957288 0.455285
vt 0.789481 0.581576
vt 0.747816 0.581576
vt 0.747816 0.539911
vt 0.957288 0.581576
vt 0.957288 0.623242
vt 0.789481 0.623242
vt 0.957288 0.539911
vt 0.998953 0.539911
vt 0.998953 0.581576
vt 0.789481 0.539911
vt 0.789481 0.498246
vt 0.957288 0.498246
vt 0.789481 0.456580
vt 0.957288 0.456580
vt 0.790312 0.580703
vt 0.748647 0.580703
vt 0.748647 0.539037
vt 0.958119 0.580703
vt 0.958119 0.622368
vt 0.790312 0.622368
vt 0.958119 0.539037
vt 0.999784 0.539037
vt 0.999784 0.580703
vt 0.790312 0.539037
vt 0.790312 0.497372
vt 0.958119 0.497372
vt 0.790312 0.455707
vt 0.958119 0.455707
vt 0.788608 0.580929
vt 0.746942 0.580929
vt 0.746942 0.539263
vt 0.956414 0.580929
vt 0.956414 0.622594
vt 0.788608 0.622594
vt 0.956414 0.539263
vt 0.998079 0.539263
vt 0.998079 0.580929
vt 0.788608 0.539263
vt 0.788608 0.497598
vt 0.956414 0.497598
vt 0.788608 0.455933
vt 0.956414 0.455932
vt 0.496462 0.217502
vt 0.430110 0.217468
vt 0.377684 0.798605
vt 0.426991 0.838796
vt 0.538217 0.334594
vn -0.240300 0.896800 0.371500
vn -0.102000 0.380700 0.919100
vn 0.102000 -0.380700 0.919100
vn 0.240300 -0.896800 0.371500
vn 0.240300 -0.896800 -0.371500
vn 0.102000 -0.380700 -0.919100
vn -0.102000 0.380700 -0.919100
vn -0.240300 0.896800 -0.371500
vn -0.656500 0.656500 0.371500
vn -0.278700 0.278700 0.919100
vn 0.278700 -0.278700 0.919100
vn 0.656500 -0.656500 0.371500
vn 0.656500 -0.656500 -0.371500
vn 0.278700 -0.278700 -0.919100
vn -0.278700 0.278700 -0.919100
vn -0.656500 0.656500 -0.371500
vn -0.896800 0.240300 0.371500
vn -0.380700 0.102000 0.919100
vn 0.380700 -0.102000 0.919100
vn 0.896800 -0.240300 0.371500
vn 0.896800 -0.240300 -0.371500
vn 0.380700 -0.102000 -0.919100
vn -0.380700 0.102000 -0.919100
vn -0.896800 0.240300 -0.371500
vn -0.896800 -0.240300 0.371500
vn -0.380700 -0.102000 0.919100
vn 0.380700 0.102000 0.919100
vn 0.896800 0.240300 0.371500
vn 0.896800 0.240300 -0.371500
vn 0.380700 0.102000 -0.919100
vn -0.380700 -0.102000 -0.919100
vn -0.896800 -0.240300 -0.371500
vn -0.656500 -0.656500 0.371500
vn -0.278700 -0.278700 0.919100
vn 0.278700 0.278700 0.919100
vn 0.656500 0.656500 0.371500
vn 0.656500 0.656500 -0.371500
vn 0.278700 0.278700 -0.919100
vn -0.278700 -0.278700 -0.919100
vn -0.656500 -0.656500 -0.371500
vn -0.240300 -0.896800 0.371500
vn -0.102000 -0.380700 0.919100
vn 0.102000 0.380700 0.919100
vn 0.240300 0.896800 0.371500
vn 0.240300 0.896800 -0.371500
vn 0.102000 0.380700 -0.919100
vn -0.102000 -0.380700 -0.919100
vn -0.240300 -0.896800 -0.371500
vn -0.687100 0.223300 0.691400
vn -0.424700 0.584500 0.691400
vn 0.000000 0.722500 0.691400
vn 0.424700 0.584500 0.691400
vn 0.687100 0.223300 0.691400
vn 0.687100 -0.223300 0.691400
vn 0.424700 -0.584500 0.691400
vn 0.000000 -0.722500 0.691400
vn 0.000000 0.000000 1.000000
vn -0.687100 -0.223300 0.691400
vn -0.424700 -0.584500 0.691400
vn 0.000000 -1.000000 0.000000
vn -1.000000 0.000000 0.000000
vn 0.000000 1.000000 0.000000
vn 1.000000 0.000000 0.000000
vn 0.000000 0.000000 -1.000000
usemtl Material
s off
f 9/1/1 10/2/1 2/3/1
f 10/2/2 11/4/2 3/5/2
f 11/4/3 12/6/3 4/7/3
f 12/6/4 13/8/4 5/9/4
f 13/10/5 14/11/5 6/12/5
f 14/11/6 15/13/6 7/14/6
f 7/14/7 15/13/7 16/15/7
f 8/16/8 16/15/8 9/17/8
f 17/18/9 18/19/9 10/2/9
f 10/2/10 18/19/10 19/20/10
f 19/20/11 20/21/11 12/6/11
f 20/21/12 21/22/12 13/8/12
f 21/23/13 22/24/13 14/11/13
f 14/11/14 22/24/14 23/25/14
f 23/25/15 24/26/15 16/15/15
f 16/15/16 24/26/16 17/27/16
f 25/28/17 26/29/17 18/19/17
f 18/19/18 26/29/18 27/30/18
f 27/30/19 28/31/19 20/21/19
f 20/21/20 28/31/20 29/32/20
f 29/33/21 30/34/21 22/24/21
f 22/24/22 30/34/22 31/35/22
f 31/35/23 32/36/23 24/26/23
f 24/26/24 32/36/24 25/37/24
f 33/38/25 34/39/25 26/29/25
f 26/29/26 34/39/26 35/40/26
f 35/40/27 36/41/27 28/31/27
f 36/41/28 37/42/28 29/32/28
f 29/33/29 37/43/29 38/44/29
f 38/44/30 39/45/30 31/35/30
f 39/45/31 40/46/31 32/36/31
f 32/36/32 40/46/32 33/47/32
f 41/48/33 42/49/33 34/39/33
f 34/39/34 42/49/34 43/50/34
f 43/50/35 44/51/35 36/41/35
f 44/51/36 45/52/36 37/42/36
f 37/43/37 45/53/37 46/54/37
f 38/44/38 46/54/38 47/55/38
f 47/55/39 48/56/39 40/46/39
f 48/56/40 41/57/40 33/47/40
f 49/58/41 50/59/41 42/49/41
f 50/59/42 51/60/42 43/50/42
f 51/60/43 52/61/43 44/51/43
f 52/61/44 53/62/44 45/52/44
f 53/63/45 54/64/45 46/54/45
f 54/64/46 55/65/46 47/55/46
f 55/65/47 56/66/47 48/56/47
f 56/66/48 49/67/48 41/57/48
f 49/58/4 57/68/4 58/69/4
f 58/69/3 59/70/3 51/60/3
f 59/70/2 60/71/2 52/61/2
f 52/61/1 60/71/1 61/72/1
f 61/73/8 62/74/8 54/64/8
f 54/64/7 62/74/7 63/75/7
f 63/75/6 64/76/6 56/66/6
f 64/76/5 57/77/5 49/67/5
f 57/68/12 65/78/12 66/79/12
f 66/79/11 67/80/11 59/70/11
f 67/80/10 68/81/10 60/71/10
f 60/71/9 68/81/9 69/82/9
f 69/83/16 70/84/16 62/74/16
f 62/74/15 70/84/15 71/85/15
f 63/75/14 71/85/14 72/86/14
f 72/86/13 65/87/13 57/77/13
f 65/78/20 73/88/20 74/89/20
f 74/89/19 75/90/19 67/80/19
f 75/90/18 76/91/18 68/81/18
f 68/81/17 76/91/17 77/92/17
f 77/93/24 78/94/24 70/84/24
f 78/94/23 79/95/23 71/85/23
f 71/85/22 79/95/22 80/96/22
f 80/96/21 73/97/21 65/87/21
f 73/88/28 81/98/28 82/99/28
f 82/99/27 83/100/27 75/90/27
f 83/100/26 84/101/26 76/91/26
f 84/101/25 85/102/25 77/92/25
f 77/93/32 85/103/32 86/104/32
f 86/104/31 87/105/31 79/95/31
f 79/95/30 87/105/30 88/106/30
f 88/106/29 81/107/29 73/97/29
f 89/108/36 90/109/36 82/110/36
f 90/109/35 91/111/35 83/112/35
f 83/112/34 91/111/34 92/113/34
f 92/113/33 93/114/33 85/115/33
f 93/116/40 94/117/40 86/118/40
f 94/117/39 95/119/39 87/120/39
f 87/120/38 95/119/38 96/121/38
f 96/121/37 89/122/37 81/123/37
f 1/124/44 2/3/44 90/109/44
f 2/3/43 3/5/43 91/111/43
f 3/5/42 4/7/42 92/113/42
f 92/113/41 4/7/41 5/9/41
f 5/125/48 6/12/48 94/117/48
f 6/12/47 7/14/47 95/119/47
f 95/119/46 7/14/46 8/16/46
f 8/16/45 1/126/45 89/122/45
f 98/127/49 100/128/49 99/129/49
f 100/128/50 102/130/50 101/131/50
f 102/130/51 104/132/51 103/133/51
f 104/132/52 106/134/52 105/135/52
f 106/134/53 108/136/53 107/137/53
f 107/137/54 108/136/54 110/138/54
f 110/138/55 112/139/55 111/140/55
f 112/139/56 114/141/56 113/142/56
f 114/141/57 106/134/57 98/127/57
f 116/143/58 98/127/58 97/144/58
f 114/141/59 116/143/59 115/145/59
f 120/146/60 119/147/60 117/148/60
f 124/149/61 123/150/61 119/151/61
f 122/152/62 121/153/62 123/154/62
f 118/155/63 117/156/63 121/157/63
f 119/158/64 123/159/64 121/157/64
f 124/149/57 120/146/57 118/155/57
f 128/160/60 127/161/60 125/162/60
f 132/163/61 131/164/61 127/165/61
f 130/166/62 129/167/62 131/168/62
f 126/169/63 125/170/63 129/171/63
f 127/172/64 131/173/64 129/171/64
f 132/163/57 128/160/57 126/169/57
f 136/174/63 135/175/63 133/176/63
f 140/177/60 139/178/60 135/179/60
f 138/180/61 137/181/61 139/182/61
f 134/183/62 133/184/62 137/185/62
f 135/186/64 139/187/64 137/185/64
f 140/177/57 136/174/57 134/183/57
f 144/188/63 143/189/63 141/190/63
f 148/191/60 147/192/60 143/193/60
f 146/194/61 145/195/61 147/196/61
f 142/197/62 141/198/62 145/199/62
f 143/200/64 147/201/64 145/199/64
f 148/191/57 144/188/57 142/197/57
f 1/124/1 9/1/1 2/3/1
f 2/3/2 10/2/2 3/5/2
f 3/5/3 11/4/3 4/7/3
f 4/7/4 12/6/4 5/9/4
f 5/125/5 13/10/5 6/12/5
f 6/12/6 14/11/6 7/14/6
f 8/16/7 7/14/7 16/15/7
f 1/126/8 8/16/8 9/17/8
f 9/1/9 17/18/9 10/2/9
f 11/4/10 10/2/10 19/20/10
f 11/4/11 19/20/11 12/6/11
f 12/6/12 20/21/12 13/8/12
f 13/10/13 21/23/13 14/11/13
f 15/13/14 14/11/14 23/25/14
f 15/13/15 23/25/15 16/15/15
f 9/17/16 16/15/16 17/27/16
f 17/18/17 25/28/17 18/19/17
f 19/20/18 18/19/18 27/30/18
f 19/20/19 27/30/19 20/21/19
f 21/22/20 20/21/20 29/32/20
f 21/23/21 29/33/21 22/24/21
f 23/25/22 22/24/22 31/35/22
f 23/25/23 31/35/23 24/26/23
f 17/27/24 24/26/24 25/37/24
f 25/28/25 33/38/25 26/29/25
f 27/30/26 26/29/26 35/40/26
f 27/30/27 35/40/27 28/31/27
f 28/31/28 36/41/28 29/32/28
f 30/34/29 29/33/29 38/44/29
f 30/34/30 38/44/30 31/35/30
f 31/35/31 39/45/31 32/36/31
f 25/37/32 32/36/32 33/47/32
f 33/38/33 41/48/33 34/39/33
f 35/40/34 34/39/34 43/50/34
f 35/40/35 43/50/35 36/41/35
f 36/41/36 44/51/36 37/42/36
f 38/44/37 37/43/37 46/54/37
f 39/45/38 38/44/38 47/55/38
f 39/45/39 47/55/39 40/46/39
f 40/46/40 48/56/40 33/47/40
f 41/48/41 49/58/41 42/49/41
f 42/49/42 50/59/42 43/50/42
f 43/50/43 51/60/43 44/51/43
f 44/51/44 52/61/44 45/52/44
f 45/53/45 53/63/45 46/54/45
f 46/54/46 54/64/46 47/55/46
f 47/55/47 55/65/47 48/56/47
f 48/56/48 56/66/48 41/57/48
f 50/59/4 49/58/4 58/69/4
f 50/59/3 58/69/3 51/60/3
f 51/60/2 59/70/2 52/61/2
f 53/62/1 52/61/1 61/72/1
f 53/63/8 61/73/8 54/64/8
f 55/65/7 54/64/7 63/75/7
f 55/65/6 63/75/6 56/66/6
f 56/66/5 64/76/5 49/67/5
f 58/69/12 57/68/12 66/79/12
f 58/69/11 66/79/11 59/70/11
f 59/70/10 67/80/10 60/71/10
f 61/72/9 60/71/9 69/82/9
f 61/73/16 69/83/16 62/74/16
f 63/75/15 62/74/15 71/85/15
f 64/76/14 63/75/14 72/86/14
f 64/76/13 72/86/13 57/77/13
f 66/79/20 65/78/20 74/89/20
f 66/79/19 74/89/19 67/80/19
f 67/80/18 75/90/18 68/81/18
f 69/82/17 68/81/17 77/92/17
f 69/83/24 77/93/24 70/84/24
f 70/84/23 78/94/23 71/85/23
f 72/86/22 71/85/22 80/96/22
f 72/86/21 80/96/21 65/87/21
f 74/89/28 73/88/28 82/99/28
f 74/89/27 82/99/27 75/90/27
f 75/90/26 83/100/26 76/91/26
f 76/91/25 84/101/25 77/92/25
f 78/94/32 77/93/32 86/104/32
f 78/94/31 86/104/31 79/95/31
f 80/96/30 79/95/30 88/106/30
f 80/96/29 88/106/29 73/97/29
f 81/202/36 89/108/36 82/110/36
f 82/110/35 90/109/35 83/112/35
f 84/203/34 83/112/34 92/113/34
f 84/203/33 92/113/33 85/115/33
f 85/204/40 93/116/40 86/118/40
f 86/118/39 94/117/39 87/120/39
f 88/205/38 87/120/38 96/121/38
f 88/205/37 96/121/37 81/123/37
f 89/108/44 1/124/44 90/109/44
f 90/109/43 2/3/43 91/111/43
f 91/111/42 3/5/42 92/113/42
f 93/114/41 92/113/41 5/9/41
f 93/116/48 5/125/48 94/117/48
f 94/117/47 6/12/47 95/119/47
f 96/121/46 95/119/46 8/16/46
f 96/121/45 8/16/45 89/122/45
f 97/144/49 98/127/49 99/129/49
f 99/129/50 100/128/50 101/131/50
f 101/131/51 102/130/51 103/133/51
f 103/133/52 104/132/52 105/135/52
f 105/135/53 106/134/53 107/137/53
f 109/206/54 107/137/54 110/138/54
f 109/206/55 110/138/55 111/140/55
f 111/140/56 112/139/56 113/142/56
f 102/130/57 100/128/57 98/127/57
f 98/127/57 116/143/57 114/141/57
f 114/141/57 112/139/57 110/138/57
f 110/138/57 108/136/57 114/141/57
f 106/134/57 104/132/57 102/130/57
f 102/130/57 98/127/57 106/134/57
f 114/141/57 108/136/57 106/134/57
f 115/145/58 116/143/58 97/144/58
f 113/142/59 114/141/59 115/145/59
f 118/155/60 120/146/60 117/148/60
f 120/146/61 124/149/61 119/151/61
f 124/149/62 122/152/62 123/154/62
f 122/152/63 118/155/63 121/157/63
f 117/156/64 119/158/64 121/157/64
f 122/152/57 124/149/57 118/155/57
f 126/169/60 128/160/60 125/162/60
f 128/160/61 132/163/61 127/165/61
f 132/163/62 130/166/62 131/168/62
f 130/166/63 126/169/63 129/171/63
f 125/170/64 127/172/64 129/171/64
f 130/166/57 132/163/57 126/169/57
f 134/183/63 136/174/63 133/176/63
f 136/174/60 140/177/60 135/179/60
f 140/177/61 138/180/61 139/182/61
f 138/180/62 134/183/62 137/185/62
f 133/184/64 135/186/64 137/185/64
f 138/180/57 140/177/57 134/183/57
f 142/197/63 144/188/63 141/190/63
f 144/188/60 148/191/60 143/193/60
f 148/191/61 146/194/61 147/196/61
f 146/194/62 142/197/62 145/199/62
f 141/198/64 143/200/64 145/199/64
f 146/194/57 148/191/57 142/197/57
