# Blender v2.76 (sub 0) OBJ File: 'Transporter.blend'
# www.blender.org
mtllib Transporter.mtl
o Cylinder
v -0.552894 -0.842386 5.164042
v -0.453081 -0.900013 5.164042
v 0.453081 -0.900013 5.164042
v 0.552894 -0.842386 5.164042
v 1.005974 -0.057627 5.164042
v 1.005974 0.057627 5.164042
v 0.552894 0.842386 5.164042
v 0.453081 0.900013 5.164042
v -0.453081 0.900013 5.164042
v -0.552894 0.842386 5.164042
v -1.005975 0.057627 5.164042
v -1.005975 -0.057627 5.164042
v -0.941112 -0.024048 4.318738
v -0.941112 0.024048 4.318738
v -1.991566 0.114086 4.837187
v -1.991566 -0.114086 4.837187
v -0.491382 0.803003 4.318738
v -0.449730 0.827051 4.318738
v -0.896981 1.781790 4.837187
v -1.094585 1.667704 4.837187
v 0.449730 0.827051 4.318738
v 0.491382 0.803003 4.318738
v 1.094585 1.667704 4.837187
v 0.896981 1.781790 4.837187
v 0.941112 0.024048 4.318738
v 0.941112 -0.024048 4.318738
v 1.991566 -0.114087 4.837187
v 1.991566 0.114086 4.837187
v 0.491382 -0.803003 4.318738
v 0.449730 -0.827051 4.318738
v 0.896981 -1.781790 4.837187
v 1.094585 -1.667704 4.837187
v -0.449730 -0.827051 4.318738
v -0.491382 -0.803003 4.318738
v -1.094585 -1.667704 4.837187
v -0.896981 -1.781790 4.837187
v -1.503096 0.086105 4.318738
v -1.503096 -0.086105 4.318738
v -0.676979 1.344771 4.318738
v -0.826117 1.258667 4.318738
v 0.826117 1.258667 4.318738
v 0.676979 1.344771 4.318738
v 1.503096 -0.086105 4.318738
v 1.503096 0.086104 4.318738
v 0.676979 -1.344771 4.318738
v 0.826116 -1.258667 4.318738
v -0.826116 -1.258667 4.318738
v -0.676979 -1.344771 4.318738
v -0.184167 0.308993 5.962498
v -0.404134 -0.071999 5.962498
v -0.069460 -0.071999 1.538137
v -0.183572 -0.071999 5.613548
v -0.016831 0.019157 1.538137
v -0.073887 0.117981 5.613548
v 0.088428 0.019157 1.538137
v 0.145484 0.117981 5.613548
v 0.141058 -0.071999 1.538137
v 0.255169 -0.071999 5.613548
v 0.088428 -0.163156 1.538137
v 0.145484 -0.261980 5.613548
v -0.016831 -0.163156 1.538137
v -0.073887 -0.261980 5.613548
v 0.255765 0.308993 5.962498
v 0.475731 -0.071999 5.962498
v 0.255765 -0.452992 5.962498
v -0.184167 -0.452992 5.962498
v 0.035799 -0.071999 6.482271
vt 0.621738 0.262964
vt 0.521152 0.292294
vt 0.489109 0.136502
vt 0.272946 0.294845
vt 0.171778 0.267588
vt 0.225427 0.117855
vt 0.159280 0.262964
vt 0.064730 0.217819
vt 0.144634 0.080293
vt 0.727742 0.211006
vt 0.634139 0.258085
vt 0.574384 0.110683
vt 0.390509 0.305590
vt 0.286076 0.297126
vt 0.311690 0.140148
vt 0.501034 0.442149
vt 0.444706 0.541557
vt 0.393941 0.526595
vt 0.508072 0.294844
vt 0.403835 0.305453
vt 0.400566 0.146433
vt 0.479237 0.138427
vt 0.390509 0.146537
vt 0.301781 0.138427
vt 0.215994 0.114366
vt 0.135990 0.075151
vt 0.565025 0.114366
vt 0.966444 0.977841
vt 0.956089 0.962284
vt 0.964988 0.947983
vt 0.585270 0.524368
vt 0.591785 0.535993
vt 0.490546 0.588960
vt 0.189155 0.524369
vt 0.287170 0.583088
vt 0.270983 0.633476
vt 0.487255 0.583088
vt 0.450464 0.545043
vt 0.400533 0.412527
vt 0.387212 0.526401
vt 0.273390 0.442149
vt 0.329719 0.541557
vt 0.290795 0.577416
vt 0.285170 0.435917
vt 0.335669 0.538409
vt 0.387212 0.412143
vt 0.196331 0.513140
vt 0.512434 0.449050
vt 0.618024 0.637429
vt 0.503800 0.640197
vt 0.157108 0.624124
vt 0.270626 0.640197
vt 0.642297 0.864511
vt 0.675120 0.860887
vt 0.675120 0.870945
vt 0.616031 0.912815
vt 0.635581 0.939427
vt 0.626871 0.944456
vt 0.561066 0.914219
vt 0.547794 0.944456
vt 0.539083 0.939427
vt 0.532367 0.867320
vt 0.499545 0.870945
vt 0.499545 0.860887
vt 0.561066 0.817612
vt 0.558633 0.819017
vt 0.539083 0.792404
vt 0.613598 0.817612
vt 0.626871 0.787375
vt 0.635581 0.792404
vt 0.616031 0.819017
vt 0.642297 0.867320
vt 0.613598 0.914219
vt 0.558633 0.912815
vt 0.532367 0.864511
vt 0.547794 0.787375
vt 0.134359 0.970223
vt 0.140622 0.716980
vt 0.145043 0.717084
vt 0.081831 0.968884
vt 0.088482 0.715650
vt 0.075151 0.968657
vt 0.084063 0.715500
vt 0.377958 0.970170
vt 0.371359 0.716899
vt 0.423505 0.715500
vt 0.371275 0.970293
vt 0.366938 0.716980
vt 0.318730 0.971152
vt 0.314782 0.717833
vt 0.312046 0.971205
vt 0.310359 0.717868
vt 0.259497 0.971514
vt 0.258199 0.718175
vt 0.252813 0.971497
vt 0.253777 0.718164
vt 0.200265 0.971257
vt 0.201617 0.717925
vt 0.193582 0.971170
vt 0.197196 0.717868
vt 0.141041 0.970380
vt 0.820167 0.916650
vt 0.783524 0.916879
vt 0.783523 0.076697
vt 0.966420 0.915740
vt 0.957202 0.932260
vt 0.938810 0.932741
vt 0.746879 0.917107
vt 0.746879 0.076828
vt 0.984291 0.946944
vt 0.930086 0.915964
vt 0.930082 0.076194
vt 0.932019 0.947237
vt 0.893448 0.916193
vt 0.893445 0.076320
vt 0.856808 0.916422
vt 0.820166 0.076571
vt 0.984926 0.044279
vt 0.929865 0.012740
vt 0.856806 0.076446
vt 0.930794 0.978010
vt 0.939758 0.961578
vt 0.912628 0.947266
vt 0.964103 0.948158
vt 0.948139 0.948368
vt 0.955859 0.961962
vt 0.940020 0.961439
vt 0.932626 0.947731
vt 0.645029 0.075151
vt 0.053276 0.211006
vt 0.156401 0.637431
vt 0.430492 0.968761
vt 0.966717 0.076069
vt 0.966500 0.012615
vt 0.911656 0.044530
vn -0.662200 -0.382300 -0.644500
vn 0.662200 0.382300 -0.644500
vn 0.662200 -0.382300 -0.644500
vn 0.000000 -0.764600 -0.644500
vn -0.000000 0.764600 -0.644500
vn -0.301000 0.173800 0.937700
vn -0.662200 0.382300 -0.644500
vn -0.727800 0.000000 -0.685800
vn -0.363900 0.630300 -0.685800
vn 0.363900 0.630300 -0.685800
vn 0.727800 0.000000 -0.685800
vn 0.363900 -0.630300 -0.685800
vn -0.363900 -0.630300 -0.685700
vn -0.759700 0.438600 -0.480200
vn -0.157400 -0.272600 0.949200
vn 0.301000 -0.173800 0.937700
vn -0.301000 -0.173800 0.937700
vn -0.157400 0.272600 0.949200
vn 0.301000 0.173800 0.937700
vn 0.157400 0.272600 0.949200
vn 0.000000 0.347600 0.937700
vn 0.314800 0.000000 0.949200
vn -0.314800 0.000000 0.949200
vn 0.000000 -0.347600 0.937700
vn 0.157400 -0.272600 0.949200
vn 0.000000 0.000000 -1.000000
vn -0.498500 -0.863500 0.076500
vn 0.000000 -0.996300 0.086000
vn 0.498500 -0.863500 0.076500
vn 0.862800 -0.498100 0.086000
vn 0.997100 0.000000 0.076500
vn 0.862800 0.498100 0.086000
vn 0.498500 0.863500 0.076500
vn 0.000000 0.996300 0.086000
vn -0.498500 0.863500 0.076500
vn -0.862800 0.498100 0.086000
vn -0.997100 0.000000 0.076500
vn -0.862800 -0.498100 0.086000
vn -0.865800 0.499900 -0.024200
vn 0.759700 0.438600 -0.480200
vn 0.000000 0.999700 -0.024200
vn 0.000000 0.877200 -0.480200
vn 0.865800 0.499900 -0.024200
vn 0.759700 -0.438600 -0.480200
vn 0.865800 -0.499900 -0.024200
vn -0.865800 -0.499900 -0.024200
vn 0.000000 -0.999700 -0.024200
vn -0.759700 -0.438600 -0.480200
vn 0.000000 -0.877200 -0.480200
vn 0.000000 0.806500 0.591200
vn -0.698500 -0.403300 0.591200
vn 0.698500 0.403300 0.591200
vn -0.698500 0.403300 0.591200
vn 0.000000 -0.806500 0.591200
vn 0.698500 -0.403300 0.591200
vn -0.727800 0.000000 -0.685700
vn -0.363900 -0.630300 -0.685800
usemtl None
s off
f 35/1/1 16/2/1 38/3/1
f 23/4/2 28/5/2 44/6/2
f 27/7/3 32/8/3 46/9/3
f 31/10/4 36/11/4 48/12/4
f 19/13/5 24/14/5 42/15/5
f 15/16/6 11/17/6 10/18/6
f 15/19/7 20/20/7 40/21/7
f 16/2/8 15/19/8 37/22/8
f 39/23/9 40/21/9 20/20/9
f 41/24/10 42/15/10 24/14/10
f 43/25/11 44/6/11 28/5/11
f 45/26/12 46/9/12 32/8/12
f 47/27/13 48/12/13 36/11/13
f 52/28/14 50/29/14 49/30/14
f 35/31/15 36/32/15 2/33/15
f 27/34/16 5/35/16 4/36/16
f 35/31/17 1/37/17 12/38/17
f 20/39/18 10/18/18 9/40/18
f 23/41/19 7/42/19 6/43/19
f 23/41/20 24/44/20 8/45/20
f 19/46/21 9/40/21 8/45/21
f 28/47/22 6/43/22 5/35/22
f 16/48/23 12/38/23 11/17/23
f 31/49/24 3/50/24 2/33/24
f 32/51/25 4/36/25 3/52/25
f 13/53/26 38/54/26 37/55/26
f 17/56/26 40/57/26 39/58/26
f 21/59/26 42/60/26 41/61/26
f 25/62/26 44/63/26 43/64/26
f 30/65/26 29/66/26 46/67/26
f 33/68/26 48/69/26 47/70/26
f 13/53/26 34/71/26 47/70/26
f 14/72/26 37/55/26 40/57/26
f 18/73/26 39/58/26 42/60/26
f 22/74/26 41/61/26 44/63/26
f 26/75/26 43/64/26 46/67/26
f 30/65/26 45/76/26 48/69/26
f 8/77/27 21/78/27 22/79/27
f 8/77/28 9/80/28 18/81/28
f 10/82/29 17/83/29 18/81/29
f 11/84/30 14/85/30 17/86/30
f 12/87/31 13/88/31 14/85/31
f 1/89/32 34/90/32 13/88/32
f 2/91/33 33/92/33 34/90/33
f 3/93/34 30/94/34 33/92/34
f 4/95/35 29/96/35 30/94/35
f 5/97/36 26/98/36 29/96/36
f 5/97/37 6/99/37 25/100/37
f 7/101/38 22/79/38 25/100/38
f 52/102/39 54/103/39 53/104/39
f 56/105/40 63/106/40 64/107/40
f 54/103/41 56/108/41 55/109/41
f 54/110/42 49/30/42 63/106/42
f 56/105/43 58/111/43 57/112/43
f 58/111/44 64/107/44 65/113/44
f 58/111/45 60/114/45 59/115/45
f 62/116/46 52/102/46 51/117/46
f 53/118/26 57/112/26 61/119/26
f 60/114/47 62/116/47 61/120/47
f 62/121/48 66/122/48 50/29/48
f 60/123/49 65/113/49 66/122/49
f 63/106/50 49/124/50 67/125/50
f 50/126/51 66/127/51 67/125/51
f 64/107/52 63/106/52 67/125/52
f 49/124/53 50/126/53 67/125/53
f 66/127/54 65/128/54 67/125/54
f 65/128/55 64/107/55 67/125/55
f 47/27/1 35/1/1 38/3/1
f 41/24/2 23/4/2 44/6/2
f 43/25/3 27/7/3 46/9/3
f 45/129/4 31/10/4 48/12/4
f 39/23/5 19/13/5 42/15/5
f 20/39/6 15/16/6 10/18/6
f 37/22/7 15/19/7 40/21/7
f 38/3/56 16/2/56 37/22/56
f 19/13/9 39/23/9 20/20/9
f 23/4/10 41/24/10 24/14/10
f 27/7/11 43/25/11 28/5/11
f 31/130/12 45/26/12 32/8/12
f 35/1/57 47/27/57 36/11/57
f 54/110/14 52/28/14 49/30/14
f 1/37/15 35/31/15 2/33/15
f 32/51/16 27/34/16 4/36/16
f 16/48/17 35/31/17 12/38/17
f 19/46/18 20/39/18 9/40/18
f 28/47/19 23/41/19 6/43/19
f 7/42/20 23/41/20 8/45/20
f 24/44/21 19/46/21 8/45/21
f 27/34/22 28/47/22 5/35/22
f 15/16/23 16/48/23 11/17/23
f 36/32/24 31/49/24 2/33/24
f 31/131/25 32/51/25 3/52/25
f 14/72/26 13/53/26 37/55/26
f 18/73/26 17/56/26 39/58/26
f 22/74/26 21/59/26 41/61/26
f 26/75/26 25/62/26 43/64/26
f 45/76/26 30/65/26 46/67/26
f 34/71/26 33/68/26 47/70/26
f 38/54/26 13/53/26 47/70/26
f 17/56/26 14/72/26 40/57/26
f 21/59/26 18/73/26 42/60/26
f 25/62/26 22/74/26 44/63/26
f 29/66/26 26/75/26 46/67/26
f 33/68/26 30/65/26 48/69/26
f 7/101/27 8/77/27 22/79/27
f 21/78/28 8/77/28 18/81/28
f 9/80/29 10/82/29 18/81/29
f 10/132/30 11/84/30 17/86/30
f 11/84/31 12/87/31 14/85/31
f 12/87/32 1/89/32 13/88/32
f 1/89/33 2/91/33 34/90/33
f 2/91/34 3/93/34 33/92/34
f 3/93/35 4/95/35 30/94/35
f 4/95/36 5/97/36 29/96/36
f 26/98/37 5/97/37 25/100/37
f 6/99/38 7/101/38 25/100/38
f 51/117/39 52/102/39 53/104/39
f 58/111/40 56/105/40 64/107/40
f 53/104/41 54/103/41 55/109/41
f 56/105/42 54/110/42 63/106/42
f 55/133/43 56/105/43 57/112/43
f 60/123/44 58/111/44 65/113/44
f 57/112/45 58/111/45 59/115/45
f 61/120/46 62/116/46 51/117/46
f 61/119/26 51/134/26 53/118/26
f 53/118/26 55/133/26 57/112/26
f 57/112/26 59/135/26 61/119/26
f 59/115/47 60/114/47 61/120/47
f 52/28/48 62/121/48 50/29/48
f 62/121/49 60/123/49 66/122/49
