# Blender v2.76 (sub 0) OBJ File: 'Wall_1x1_Corner.blend'
# www.blender.org
mtllib Wall_1x1_Corner.mtl
o Cube
v 0.218879 -0.301310 2.220207
v -1.000000 1.091046 2.042345
v -1.000000 1.091046 0.042345
v 1.000000 1.091046 2.042345
v 1.000000 1.091046 0.042345
v -1.000000 -0.908954 2.042345
v -1.000000 -0.908954 0.042345
v 1.000000 -0.908954 2.042345
v 0.218879 -0.301310 2.047844
v 0.704343 -0.301310 2.220207
v 0.704343 -0.301310 2.047844
v 1.000000 -0.908954 0.042345
v 0.218879 -0.786774 2.220207
v 0.218879 -0.786774 2.047844
v 0.704343 -0.786774 2.220207
v 0.704343 -0.786774 2.047844
v -0.009554 -0.181285 2.042086
v -0.009554 -0.181285 2.284495
v -0.692307 -0.181285 2.042086
v -0.692307 -0.181285 2.284495
v -0.009554 0.501467 2.042086
v -0.009554 0.501467 2.284495
v -0.692307 0.501467 2.042086
v -0.692307 0.501467 2.284495
v 0.512790 1.093902 0.607869
v 1.018860 1.093902 0.607869
v 1.018860 0.587831 0.607869
v 0.512790 0.587831 0.607869
v 1.280321 0.326371 1.199698
v 1.280321 0.326371 2.437996
v 0.251329 0.326371 1.199698
v 0.251329 0.326371 2.437996
v 1.280321 1.355363 1.199698
v 1.280321 1.355363 2.437996
v 0.251329 1.355363 1.199698
v 0.251329 1.355363 2.437996
vt 0.230354 0.307095
vt 0.000129 0.307095
vt 0.000129 0.230354
vt 0.460578 0.230354
vt 0.690802 0.230354
vt 0.690802 0.307095
vt 0.460578 0.307095
vt 0.460578 0.537319
vt 0.230354 0.537319
vt 0.230354 0.230354
vt 0.230354 0.000129
vt 0.460578 0.000129
vt 0.572723 0.639711
vt 0.572723 0.619870
vt 0.628606 0.619870
vt 0.572723 0.658339
vt 0.552882 0.658339
vt 0.552882 0.639711
vt 0.628606 0.639711
vt 0.628606 0.658339
vt 0.580795 0.565482
vt 0.580805 0.537578
vt 0.659398 0.537605
vt 0.628606 0.678180
vt 0.572723 0.678180
vt 0.648447 0.639711
vt 0.648447 0.658339
vt 0.659388 0.565510
vt 0.659379 0.591707
vt 0.580786 0.591680
vt 0.687292 0.565519
vt 0.687283 0.591717
vt 0.478144 0.748983
vt 0.552623 0.759015
vt 0.552623 0.778434
vt 0.552882 0.591671
vt 0.552891 0.565473
vt 0.659369 0.619612
vt 0.580776 0.619585
vt 0.217151 0.606440
vt 0.247249 0.537578
vt 0.305504 0.537578
vt 0.335601 0.931009
vt 0.305503 0.999871
vt 0.247249 0.999871
vt 0.335601 0.788466
vt 0.217151 0.931009
vt 0.074608 0.788466
vt 0.000129 0.778434
vt 0.000129 0.759015
vt 0.217151 0.788466
vt 0.074608 0.748983
vt 0.335601 0.748983
vt 0.478144 0.788466
vt 0.217151 0.748983
vt 0.335601 0.606440
vn 1.000000 0.000000 0.000000
vn -1.000000 0.000000 0.000000
vn 0.000000 -1.000000 0.000000
vn 0.000000 1.000000 0.000000
vn 0.000000 0.000000 1.000000
vn -0.914700 0.000000 -0.404100
vn 0.000000 0.914700 -0.404100
vn 0.000000 -0.914700 -0.404100
vn 0.914700 0.000000 -0.404100
usemtl Material
s off
f 8/1/1 12/2/1 5/3/1
f 2/4/2 3/5/2 7/6/2
f 6/7/3 7/8/3 12/9/3
f 4/10/4 5/11/4 3/12/4
f 10/13/4 11/14/4 9/15/4
f 2/4/5 6/7/5 8/1/5
f 15/16/1 16/17/1 11/18/1
f 1/19/5 13/20/5 15/16/5
f 22/21/4 21/22/4 23/23/4
f 13/20/3 14/24/3 16/25/3
f 1/19/2 9/26/2 14/27/2
f 24/28/5 20/29/5 18/30/5
f 24/28/2 23/31/2 19/32/2
f 35/33/6 25/34/6 28/35/6
f 18/30/1 17/36/1 21/37/1
f 20/29/3 19/38/3 17/39/3
f 33/40/7 26/41/7 25/42/7
f 31/43/8 28/44/8 27/45/8
f 32/46/3 31/43/3 29/47/3
f 29/48/9 27/49/9 26/50/9
f 30/51/1 29/48/1 33/52/1
f 36/53/5 32/46/5 30/51/5
f 36/53/2 35/33/2 31/54/2
f 34/55/4 33/40/4 35/56/4
f 4/10/1 8/1/1 5/3/1
f 6/7/2 2/4/2 7/6/2
f 8/1/3 6/7/3 12/9/3
f 2/4/4 4/10/4 3/12/4
f 1/19/4 10/13/4 9/15/4
f 4/10/5 2/4/5 8/1/5
f 10/13/1 15/16/1 11/18/1
f 10/13/5 1/19/5 15/16/5
f 24/28/4 22/21/4 23/23/4
f 15/16/3 13/20/3 16/25/3
f 13/20/2 1/19/2 14/27/2
f 22/21/5 24/28/5 18/30/5
f 20/29/2 24/28/2 19/32/2
f 31/54/6 35/33/6 28/35/6
f 22/21/1 18/30/1 21/37/1
f 18/30/3 20/29/3 17/39/3
f 35/56/7 33/40/7 25/42/7
f 29/47/8 31/43/8 27/45/8
f 30/51/3 32/46/3 29/47/3
f 33/52/9 29/48/9 26/50/9
f 34/55/1 30/51/1 33/52/1
f 34/55/5 36/53/5 30/51/5
f 32/46/2 36/53/2 31/54/2
f 36/53/4 34/55/4 35/56/4
