# Blender v2.76 (sub 0) OBJ File: 'Wall_WithLittleBlocks.blend'
# www.blender.org
mtllib Wall_WithLittleBlocks.mtl
o Cube
v -0.500000 0.500000 0.000000
v 0.500000 0.500000 0.000000
v 0.500000 -0.500000 0.000000
v -0.500000 -0.500000 0.000000
v -0.289121 0.289121 1.000000
v 0.289122 0.289121 1.000000
v 0.289121 -0.289121 1.000000
v -0.289121 -0.289121 1.000000
v -0.500000 0.500000 1.000000
v 0.500000 0.500000 1.000000
v -0.500000 -0.500000 1.000000
v 0.500000 -0.500000 1.000000
v 0.000000 0.289121 1.000000
v -0.289121 0.000000 1.000000
v 0.289121 -0.000000 1.000000
v 0.000000 -0.289121 1.000000
v 0.000000 -0.000000 1.000000
v -0.289121 0.000000 1.214960
v -0.289121 -0.289121 1.214960
v 0.289121 -0.000000 1.214960
v 0.289121 -0.289121 1.214960
v 0.000000 -0.289121 1.214960
v -0.289121 0.289121 1.214960
v 0.000000 0.289121 1.214960
v 0.000000 -0.000000 1.214960
v -0.289121 0.289121 1.427471
v 0.000000 0.289121 1.427471
v -0.289121 0.000000 1.427471
v 0.000000 -0.000000 1.427471
v 0.289121 -0.000000 1.615065
v 0.289121 -0.289121 1.615065
v 0.000000 -0.289121 1.615065
v 0.000000 -0.000000 1.615065
vt 0.181951 0.852999
vt 0.181951 0.790368
vt 0.266190 0.790368
vt 0.467318 0.467318
vt 0.467318 0.233724
vt 0.700913 0.233724
vt 0.233723 0.233724
vt 0.233723 0.000129
vt 0.000129 0.233724
vt 0.233724 0.467318
vt 0.467318 0.700913
vt 0.233724 0.700913
vt 0.418058 0.350521
vt 0.350521 0.418058
vt 0.350521 0.282984
vt 0.282984 0.350521
vt 0.350521 0.350521
vt 0.496642 0.774268
vt 0.564205 0.774042
vt 0.564510 0.864914
vt 0.780184 0.579999
vt 0.780411 0.647562
vt 0.689539 0.647867
vt 0.906891 0.863768
vt 0.781136 0.864189
vt 0.780832 0.773317
vt 0.350430 0.790368
vt 0.350430 0.728450
vt 0.434669 0.728450
vt 0.288198 0.956190
vt 0.202334 0.956190
vt 0.202334 0.870326
vt 0.350430 0.852999
vt 0.434669 0.790368
vt 0.138495 0.870326
vt 0.974453 0.863541
vt 0.906586 0.772896
vt 0.097712 0.852999
vt 0.097712 0.790368
vt 0.266190 0.852999
vt 0.351309 0.956190
vt 0.351309 0.870326
vt 0.437173 0.870326
vt 0.181951 0.728450
vt 0.266190 0.728450
vt 0.288198 0.870326
vt 0.690264 0.864493
vt 0.689960 0.773621
vt 0.690685 0.990248
vt 0.700913 0.467318
vt 0.467318 0.000129
vt 0.000129 0.467319
vt 0.418058 0.418058
vt 0.418058 0.282984
vt 0.282984 0.418058
vt 0.282984 0.282984
vt 0.496947 0.865141
vt 0.689312 0.580304
vt 0.434669 0.852999
vt 0.138495 0.956190
vt 0.974149 0.772670
vt 0.437173 0.956190
vt 0.781557 0.989943
vn -1.000000 0.000000 0.000000
vn 0.000000 1.000000 0.000000
vn 1.000000 -0.000000 0.000000
vn -0.000000 -1.000000 -0.000000
vn 0.000000 0.000000 1.000000
usemtl Material
s off
f 14/1/1 18/2/1 23/3/1
f 9/4/2 10/5/2 2/6/2
f 10/5/3 12/7/3 3/8/3
f 3/9/4 12/7/4 11/10/4
f 1/11/1 4/12/1 11/10/1
f 13/13/5 10/5/5 9/4/5
f 14/14/5 9/4/5 11/10/5
f 15/15/5 12/7/5 10/5/5
f 16/16/5 11/10/5 12/7/5
f 13/13/5 17/17/5 15/15/5
f 7/18/4 21/19/4 22/20/4
f 15/21/3 20/22/3 21/23/3
f 25/24/2 33/25/2 30/26/2
f 24/27/3 27/28/3 29/29/3
f 18/30/5 19/31/5 22/32/5
f 13/33/3 24/27/3 25/34/3
f 16/35/4 22/32/4 19/31/4
f 17/36/2 25/24/2 20/37/2
f 8/38/1 19/39/1 18/2/1
f 5/40/2 23/3/2 24/27/2
f 28/41/5 29/42/5 27/43/5
f 18/2/1 28/44/1 26/45/1
f 25/46/4 29/42/4 28/41/4
f 23/3/2 26/45/2 27/28/2
f 33/25/5 32/47/5 31/48/5
f 22/49/1 32/47/1 33/25/1
f 21/19/4 31/48/4 32/47/4
f 20/22/3 30/26/3 31/48/3
f 5/40/1 14/1/1 23/3/1
f 1/50/2 9/4/2 2/6/2
f 2/51/3 10/5/3 3/8/3
f 4/52/4 3/9/4 11/10/4
f 9/4/1 1/11/1 11/10/1
f 9/4/5 5/53/5 13/13/5
f 13/13/5 6/54/5 10/5/5
f 11/10/5 8/55/5 14/14/5
f 14/14/5 5/53/5 9/4/5
f 10/5/5 6/54/5 15/15/5
f 15/15/5 7/56/5 12/7/5
f 12/7/5 7/56/5 16/16/5
f 16/16/5 8/55/5 11/10/5
f 6/54/5 13/13/5 15/15/5
f 16/57/4 7/18/4 22/20/4
f 7/58/3 15/21/3 21/23/3
f 20/37/2 25/24/2 30/26/2
f 25/34/3 24/27/3 29/29/3
f 25/46/5 18/30/5 22/32/5
f 17/59/3 13/33/3 25/34/3
f 8/60/4 16/35/4 19/31/4
f 15/61/2 17/36/2 20/37/2
f 14/1/1 8/38/1 18/2/1
f 13/33/2 5/40/2 24/27/2
f 26/62/5 28/41/5 27/43/5
f 23/3/1 18/2/1 26/45/1
f 18/30/4 25/46/4 28/41/4
f 24/27/2 23/3/2 27/28/2
f 30/26/5 33/25/5 31/48/5
f 25/63/1 22/49/1 33/25/1
f 22/20/4 21/19/4 32/47/4
f 21/23/3 20/22/3 31/48/3
