# Blender v2.76 (sub 0) OBJ File: 'Wall_1x3.blend'
# www.blender.org
mtllib Wall_1x3.mtl
o Cube
v -0.681221 -0.738266 3.104189
v -0.003407 0.684063 2.622704
v -0.003407 0.684063 2.050114
v 0.712330 0.684063 2.622704
v 0.712330 0.684063 2.050114
v -0.062472 0.944611 2.035228
v -0.062472 1.758981 2.750964
v -0.778209 0.944611 2.035228
v -0.778209 1.758981 2.750964
v -0.062472 2.474717 2.035228
v -0.062472 2.474717 2.750964
v -0.778209 2.474717 2.035228
v -0.778209 2.474717 2.750964
v 0.034515 -1.454002 2.030585
v 0.034515 -1.454002 3.104189
v -0.681221 -1.454002 2.030585
v -0.681221 -1.454002 3.104189
v -0.003407 -0.031674 2.622704
v -0.003407 -0.031674 2.050114
v 0.712330 -0.031674 2.622704
v 0.712330 -0.031674 2.050114
v -1.000000 3.000000 2.042345
v -1.000000 3.000000 0.042345
v 1.000000 3.000000 2.042345
v 1.000000 3.000000 0.042345
v -1.000000 -3.000000 2.042345
v -1.000000 -3.000000 0.042345
v 1.000000 -3.000000 2.042345
v 0.034515 -0.738266 2.030585
v 0.034515 -0.738266 3.104189
v -0.681221 -0.738266 2.030585
v 1.000000 -3.000000 0.042345
v 1.377445 -2.206667 1.358051
v 1.377445 -2.206667 2.379538
v 0.355958 -2.206667 1.358051
v 0.355958 -2.206667 2.379538
v 1.377445 -1.185180 1.358051
v 1.377445 -1.185180 2.379538
v 0.355958 -1.185180 1.358051
v 0.355958 -1.185180 2.379538
v -1.311952 -0.538434 0.802454
v -1.311952 -0.538434 1.823941
v -0.954432 -0.538434 0.802454
v -0.954432 -0.538434 1.823941
v -1.311952 1.300242 0.802454
v -1.311952 1.300242 1.823941
v -0.954432 1.300242 0.802454
v -0.954432 1.300242 1.823941
v 1.145807 0.385381 0.816552
v 1.145807 0.385381 1.558859
v 0.997346 0.385381 0.816552
v 0.997346 0.385381 1.558859
v 1.145807 1.869994 0.816552
v 1.145807 1.869994 1.558859
v 0.997346 1.869994 0.816552
v 0.997346 1.869994 1.558859
vt 0.026070 0.453137
vt 0.000212 0.000212
vt 0.478996 0.000212
vt 0.929683 0.362560
vt 0.999788 0.362560
vt 0.999788 0.450191
vt 0.900473 0.362560
vt 0.929683 0.450191
vt 0.900473 0.292456
vt 0.929683 0.292456
vt 0.610866 0.453112
vt 0.479420 0.453112
vt 0.479420 0.423902
vt 0.700817 0.701824
vt 0.700817 0.795546
vt 0.642429 0.773402
vt 0.263205 0.648006
vt 0.247092 0.666291
vt 0.223693 0.651588
vt 0.788448 0.701824
vt 0.815760 0.691466
vt 0.846835 0.773402
vt 0.700817 0.672614
vt 0.700817 0.584983
vt 0.788448 0.584983
vt 0.698497 0.423902
vt 0.829944 0.423902
vt 0.829944 0.453113
vt 0.237143 0.625106
vt 0.062215 0.841825
vt 0.900473 0.450191
vt 0.830368 0.450191
vt 0.830368 0.362560
vt 0.453137 0.453137
vt 0.428964 0.841825
vt 0.929683 0.520296
vt 0.900473 0.520296
vt 0.610866 0.423902
vt 0.610866 0.292456
vt 0.698497 0.292456
vt 0.698497 0.453112
vt 0.698497 0.584559
vt 0.610866 0.584559
vt 0.788448 0.672614
vt 0.788448 0.795546
vt 0.729551 0.292031
vt 0.604485 0.292031
vt 0.604485 0.166966
vt 0.854616 0.125278
vt 0.979682 0.125278
vt 0.979682 0.166966
vt 0.729551 0.125278
vt 0.604485 0.125278
vt 0.604485 0.000212
vt 0.729551 0.166966
vt 0.479420 0.166966
vt 0.479420 0.125277
vt 0.854616 0.166966
vt 0.598232 0.628756
vt 0.642005 0.628756
vt 0.642005 0.753821
vt 0.598232 0.922660
vt 0.523193 0.922660
vt 0.523193 0.797594
vt 0.479420 0.628756
vt 0.523193 0.628756
vt 0.523193 0.753821
vt 0.598232 0.753821
vt 0.523193 0.584983
vt 0.598232 0.584983
vt 0.598232 0.797594
vt 0.847260 0.694044
vt 0.847260 0.603160
vt 0.865436 0.603160
vt 0.926026 0.712221
vt 0.926026 0.803105
vt 0.865436 0.803105
vt 0.926026 0.694044
vt 0.926026 0.603160
vt 0.944203 0.603160
vt 0.865436 0.694044
vt 0.865436 0.584983
vt 0.926026 0.584983
vt 0.865436 0.712221
vt 0.673505 0.691466
vt 0.729551 0.000212
vt 0.479420 0.753821
vt 0.944203 0.694044
vn 1.000000 0.000000 0.000000
vn 0.000000 -1.000000 0.000000
vn 0.000000 0.000000 1.000000
vn -1.000000 0.000000 0.000000
vn 0.000000 1.000000 0.000000
vn 0.000000 0.000000 -1.000000
vn 0.000000 -0.660200 0.751100
usemtl Material
s off
f 28/1/1 32/2/1 25/3/1
f 18/4/2 19/5/2 21/6/2
f 2/7/3 18/4/3 20/8/3
f 2/7/4 3/9/4 19/10/4
f 15/11/1 14/12/1 29/13/1
f 7/14/1 6/15/1 10/16/1
f 22/17/4 23/18/4 27/19/4
f 9/20/4 13/21/4 12/22/4
f 11/23/5 10/24/5 12/25/5
f 1/26/4 31/27/4 16/28/4
f 26/29/2 27/19/2 32/30/2
f 4/31/5 5/32/5 3/33/5
f 24/34/5 25/35/5 23/18/5
f 20/8/1 21/36/1 5/37/1
f 27/19/6 23/18/6 25/35/6
f 30/38/5 29/39/5 31/40/5
f 1/26/3 17/41/3 15/11/3
f 22/17/3 26/29/3 28/1/3
f 17/41/2 16/42/2 14/43/2
f 13/44/3 9/20/3 7/14/3
f 9/20/7 8/45/7 6/15/7
f 36/46/2 35/47/2 33/48/2
f 40/49/4 39/50/4 35/51/4
f 38/52/5 37/53/5 39/54/5
f 34/55/1 33/48/1 37/53/1
f 35/56/6 39/57/6 37/53/6
f 40/49/3 36/58/3 34/55/3
f 41/59/2 43/60/2 44/61/2
f 43/62/1 47/63/1 48/64/1
f 47/65/5 45/66/5 46/67/5
f 45/66/4 41/59/4 42/68/4
f 45/66/6 47/69/6 43/70/6
f 42/68/3 44/71/3 48/64/3
f 52/72/2 51/73/2 49/74/2
f 56/75/4 55/76/4 51/77/4
f 54/78/5 53/79/5 55/80/5
f 50/81/1 49/74/1 53/79/1
f 51/82/6 55/83/6 53/79/6
f 56/75/3 52/84/3 50/81/3
f 24/34/1 28/1/1 25/3/1
f 20/8/2 18/4/2 21/6/2
f 4/31/3 2/7/3 20/8/3
f 18/4/4 2/7/4 19/10/4
f 30/38/1 15/11/1 29/13/1
f 11/85/1 7/14/1 10/16/1
f 26/29/4 22/17/4 27/19/4
f 8/45/4 9/20/4 12/22/4
f 13/44/5 11/23/5 12/25/5
f 17/41/4 1/26/4 16/28/4
f 28/1/2 26/29/2 32/30/2
f 2/7/5 4/31/5 3/33/5
f 22/17/5 24/34/5 23/18/5
f 4/31/1 20/8/1 5/37/1
f 32/30/6 27/19/6 25/35/6
f 1/26/5 30/38/5 31/40/5
f 30/38/3 1/26/3 15/11/3
f 24/34/3 22/17/3 28/1/3
f 15/11/2 17/41/2 14/43/2
f 11/23/3 13/44/3 7/14/3
f 7/14/7 9/20/7 6/15/7
f 34/55/2 36/46/2 33/48/2
f 36/58/4 40/49/4 35/51/4
f 40/86/5 38/52/5 39/54/5
f 38/52/1 34/55/1 37/53/1
f 33/48/6 35/56/6 37/53/6
f 38/52/3 40/49/3 34/55/3
f 42/68/2 41/59/2 44/61/2
f 44/71/1 43/62/1 48/64/1
f 48/87/5 47/65/5 46/67/5
f 46/67/4 45/66/4 42/68/4
f 41/59/6 45/66/6 43/70/6
f 46/67/3 42/68/3 48/64/3
f 50/81/2 52/72/2 49/74/2
f 52/84/4 56/75/4 51/77/4
f 56/88/5 54/78/5 55/80/5
f 54/78/1 50/81/1 53/79/1
f 49/74/6 51/82/6 53/79/6
f 54/78/3 56/75/3 50/81/3
