# Blender v2.76 (sub 0) OBJ File: 'Weakspot.blend'
# www.blender.org
mtllib Weakspot.mtl
o Cube
v 0.022112 0.029759 -0.797426
v 0.022112 0.193650 -0.632507
v 0.503776 0.029759 -0.640924
v 0.406839 0.193650 -0.507502
v 0.801462 0.029759 -0.231196
v 0.644614 0.193650 -0.180233
v 0.801462 0.029759 0.275257
v 0.644614 0.193650 0.224294
v 0.503776 0.029759 0.684985
v 0.406839 0.193650 0.551563
v 0.022112 0.029759 0.841488
v 0.022112 0.193650 0.676568
v -0.459553 0.029759 0.684985
v -0.362616 0.193650 0.551563
v -0.757238 0.029759 0.275257
v -0.600391 0.193650 0.224294
v -0.757238 0.029759 -0.231196
v -0.600391 0.193650 -0.180233
v -0.459553 0.029759 -0.640924
v -0.362616 0.193650 -0.507502
v 0.003142 2.618049 -0.162659
v 0.003142 3.014559 -0.067573
v 0.003142 3.014559 0.063501
v 0.380245 2.740577 -0.067573
v 0.380245 2.740577 0.063501
v 0.236205 2.297266 -0.067573
v 0.236205 2.297266 0.063501
v -0.229920 2.297266 -0.067573
v -0.229920 2.297266 0.063501
v -0.378130 2.738696 -0.023400
v -0.373961 2.740578 0.063501
v 0.003142 2.618049 0.158587
v -0.684470 2.379718 0.001611
v -0.395140 3.188482 0.001611
v 0.459540 3.208349 0.001611
v 0.699496 2.391070 0.001611
v 0.024982 1.907475 0.001611
vt 0.921186 0.688077
vt 0.864699 0.687116
vt 0.837529 0.599766
vt 0.764120 0.546551
vt 0.782927 0.493440
vt 0.673173 0.547396
vt 0.656782 0.493322
vt 0.599889 0.602032
vt 0.554691 0.567895
vt 0.572452 0.689563
vt 0.515779 0.688373
vt 0.601352 0.776623
vt 0.554765 0.808787
vt 0.675528 0.830038
vt 0.656786 0.883307
vt 0.766491 0.829388
vt 0.782872 0.883307
vt 0.839036 0.774907
vt 0.124142 0.178781
vt 0.268319 0.075350
vt 0.267411 0.226287
vt 0.177958 0.347864
vt 0.411241 0.180508
vt 0.355395 0.348931
vt 0.238148 0.937743
vt 0.061310 0.830908
vt 0.246426 0.776894
vt 0.400057 0.834419
vt 0.153151 0.645355
vt 0.346678 0.645692
vt 0.115409 0.000142
vt 0.398036 0.999857
vt 0.235957 0.986166
vt 0.446005 0.852093
vt 0.074418 0.985024
vt 0.000142 0.845465
vt 0.000142 0.305688
vt 0.000143 0.696716
vt 0.270784 0.493037
vt 0.123266 0.606917
vt 0.377637 0.606874
vt 0.515494 0.701281
vt 0.433478 0.000142
vt 0.254785 0.493322
vt 0.541185 0.308137
vt 0.884120 0.568326
vt 0.884234 0.808484
vn 0.223300 0.691400 -0.687100
vn 0.584500 0.691400 -0.424700
vn 0.722500 0.691400 0.000000
vn 0.584500 0.691400 0.424700
vn 0.223300 0.691400 0.687100
vn -0.223300 0.691400 0.687100
vn -0.584500 0.691400 0.424700
vn -0.722500 0.691400 0.000000
vn 0.000000 1.000000 0.000000
vn -0.223300 0.691400 -0.687100
vn -0.584500 0.691400 -0.424700
vn 0.000000 -0.284200 0.958800
vn -0.270300 -0.087800 0.958800
vn 0.167000 0.229900 0.958800
vn -0.167000 0.229900 0.958800
vn 0.270300 -0.087800 0.958800
vn -0.349600 -0.023600 -0.936600
vn 0.000000 -0.284200 -0.958800
vn 0.167000 0.229900 -0.958800
vn -0.270900 0.224500 -0.936100
vn 0.270300 -0.087800 -0.958800
vn 0.000000 -0.156800 0.987600
vn 0.000000 -0.174800 -0.984600
vn -0.836900 -0.547300 0.000000
vn 0.879200 -0.476400 0.000000
vn -0.141100 0.051600 -0.988600
vn -0.759700 0.649900 0.022400
vn -0.178500 -0.983900 0.000000
vn -0.143000 -0.046500 0.988600
vn -0.998000 -0.040500 0.048800
vn -0.095800 0.131800 0.986600
vn -0.150000 0.049200 -0.987500
vn 0.400200 0.916400 0.000000
vn 0.738300 0.674400 0.000000
vn 0.141400 -0.045900 0.988900
vn 0.157600 -0.051200 -0.986200
vn 0.198400 -0.980100 0.000000
vn -0.390800 0.920500 0.000000
vn 0.094400 0.130000 -0.987000
vn 0.985900 -0.167100 0.000000
vn 0.084700 0.116600 0.989600
usemtl Material
s off
f 1/1/1 2/2/1 4/3/1
f 4/3/2 6/4/2 5/5/2
f 6/4/3 8/6/3 7/7/3
f 8/6/4 10/8/4 9/9/4
f 10/8/5 12/10/5 11/11/5
f 12/10/6 14/12/6 13/13/6
f 14/12/7 16/14/7 15/15/7
f 16/14/8 18/16/8 17/17/8
f 18/16/9 10/8/9 2/2/9
f 20/18/10 2/2/10 1/1/10
f 17/17/11 18/16/11 20/18/11
f 29/19/12 27/20/12 32/21/12
f 31/22/13 29/19/13 32/21/13
f 25/23/14 23/24/14 32/21/14
f 23/24/15 31/22/15 32/21/15
f 27/20/16 25/23/16 32/21/16
f 28/25/17 30/26/17 21/27/17
f 26/28/18 28/25/18 21/27/18
f 22/29/19 24/30/19 21/27/19
f 30/26/20 22/29/20 21/27/20
f 24/30/21 26/28/21 21/27/21
f 27/20/22 29/19/22 37/31/22
f 28/25/23 26/28/23 37/32/23
f 29/33/24 28/25/24 37/32/24
f 26/28/25 27/34/25 37/32/25
f 30/26/26 28/25/26 33/35/26
f 31/36/27 30/26/27 33/35/27
f 28/25/28 29/33/28 33/35/28
f 29/19/29 31/22/29 33/37/29
f 30/26/30 31/36/30 34/38/30
f 31/22/31 23/24/31 34/39/31
f 22/29/32 30/26/32 34/38/32
f 23/40/33 22/29/33 34/38/33
f 24/30/34 25/41/34 36/42/34
f 25/23/35 27/20/35 36/43/35
f 26/28/36 24/30/36 36/42/36
f 27/34/37 26/28/37 36/42/37
f 22/29/38 23/40/38 35/44/38
f 24/30/39 22/29/39 35/44/39
f 25/41/40 24/30/40 35/44/40
f 23/24/41 25/23/41 35/45/41
f 3/46/1 1/1/1 4/3/1
f 3/46/2 4/3/2 5/5/2
f 5/5/3 6/4/3 7/7/3
f 7/7/4 8/6/4 9/9/4
f 9/9/5 10/8/5 11/11/5
f 11/11/6 12/10/6 13/13/6
f 13/13/7 14/12/7 15/15/7
f 15/15/8 16/14/8 17/17/8
f 6/4/9 4/3/9 2/2/9
f 2/2/9 20/18/9 18/16/9
f 18/16/9 16/14/9 14/12/9
f 14/12/9 12/10/9 18/16/9
f 10/8/9 8/6/9 6/4/9
f 6/4/9 2/2/9 10/8/9
f 18/16/9 12/10/9 10/8/9
f 19/47/10 20/18/10 1/1/10
f 19/47/11 17/17/11 20/18/11
