# Blender v2.76 (sub 0) OBJ File: 'Pyramid.blend'
# www.blender.org
mtllib Pyramid.mtl
o Cube
v -3.589436 3.589436 0.217689
v 3.589436 3.589436 0.217689
v 3.589435 -3.589436 0.217689
v -3.589437 -3.589434 0.217689
v 0.000001 -0.000000 3.654936
v -1.794718 -1.794717 1.936312
v 1.794718 -1.794718 1.936312
v 1.196477 -3.589435 0.217689
v -1.196480 -3.589435 0.217689
v 0.331526 -2.039232 1.702165
v -0.331527 -2.039232 1.702165
v 0.598239 -1.794718 1.936312
v 0.766755 -3.601479 0.233979
v -0.766757 -3.601479 0.233979
v -0.598240 -1.794718 1.936312
v 0.769376 -2.820356 0.968072
v -0.769378 -2.820355 0.968072
v 0.437205 -2.145956 0.406121
v -0.437206 -2.145956 0.406122
v 0.189036 -1.666996 1.530823
v 0.438699 -1.906476 0.968472
v -0.189037 -1.666996 1.530823
v -0.438701 -1.906476 0.968472
v 0.388136 -4.078942 0.233979
v -0.388138 -4.078941 0.233979
v 0.118152 -4.223783 0.233979
v -0.118154 -4.223782 0.233979
vt 0.001386 0.572397
vt 0.257616 0.501439
vt 0.270235 0.626050
vt 0.809418 0.880076
vt 0.449939 0.441979
vt 0.809416 0.002986
vt 0.269343 0.257572
vt 0.261340 0.379690
vt 0.043160 0.883095
vt 0.009282 0.305261
vt 0.866361 0.139815
vt 0.866367 0.000131
vt 0.999869 0.030154
vt 0.262551 0.901445
vt 0.366993 0.886752
vt 0.308052 0.952801
vt 0.223639 0.474316
vt 0.225404 0.405577
vt 0.117337 0.354796
vt 0.007269 0.349440
vt 0.112184 0.523948
vt 0.000131 0.527423
vt 0.921028 0.162817
vt 0.921028 0.197255
vt 0.865353 0.219996
vt 0.865353 0.140076
vt 0.809679 0.219860
vt 0.097712 0.886751
vt 0.156653 0.952801
vt 0.104388 0.971984
vt 0.202155 0.901445
vt 0.215134 0.938771
vt 0.464575 0.883356
vt 0.360318 0.971984
vt 0.249572 0.938771
vt 0.822871 0.105325
vt 0.822874 0.034616
vt 0.809679 0.080732
vt 0.011465 0.828873
vt 0.041895 0.000131
vt 0.022864 0.058091
vt 0.999866 0.109802
vt 0.809679 0.140212
vt 0.000131 0.883356
vt 0.809680 0.059208
vn -0.000000 -0.691600 0.722300
vn 0.000000 0.691600 0.722300
vn 0.691600 -0.000000 0.722300
vn -0.691600 0.000000 0.722300
vn 0.000000 -0.117400 0.993100
vn 0.922300 -0.333600 -0.195100
vn 0.046800 -0.684200 0.727800
vn 0.007800 -0.687100 0.726500
vn -0.046800 -0.684200 0.727800
vn 0.059500 -0.680000 0.730800
vn -0.007800 -0.687100 0.726500
vn -0.059500 -0.680000 0.730800
vn 0.000000 -0.920000 0.391800
vn -0.930300 -0.336700 0.145800
vn -0.878300 -0.431200 -0.206300
vn 0.934300 -0.242400 0.261300
vn 0.000000 -0.418100 -0.908400
vn 0.000000 0.000000 1.000000
vn 0.000000 -0.117500 0.993100
vn 0.878300 -0.431200 -0.206300
vn -0.934300 -0.242400 0.261300
vn -0.922300 -0.333600 -0.195100
vn 0.930300 -0.336700 0.145800
usemtl Material
s off
f 9/1/1 15/2/1 6/3/1
f 1/4/2 5/5/2 2/6/2
f 2/6/3 5/5/3 7/7/3
f 5/5/1 15/2/1 12/8/1
f 1/4/4 4/9/4 6/3/4
f 7/7/1 12/8/1 8/10/1
f 14/11/5 13/12/5 18/13/5
f 11/14/6 17/15/6 23/16/6
f 11/17/1 10/18/1 12/8/1
f 16/19/7 13/20/7 8/10/7
f 17/21/8 11/17/8 15/2/8
f 14/22/9 17/21/9 9/1/9
f 16/19/10 8/10/10 12/8/10
f 10/18/11 16/19/11 12/8/11
f 9/1/12 17/21/12 15/2/12
f 20/23/13 22/24/13 23/25/13
f 21/26/13 23/25/13 19/27/13
f 16/28/14 21/29/14 18/30/14
f 10/31/15 20/32/15 21/29/15
f 17/15/16 14/33/16 19/34/16
f 11/14/17 22/35/17 20/32/17
f 13/12/18 14/11/18 25/36/18
f 24/37/18 25/36/18 27/38/18
f 4/39/1 9/1/1 6/3/1
f 3/40/3 2/6/3 7/7/3
f 12/8/1 7/7/1 5/5/1
f 5/5/1 6/3/1 15/2/1
f 5/5/4 1/4/4 6/3/4
f 3/41/1 7/7/1 8/10/1
f 19/42/19 14/11/19 18/13/19
f 22/35/20 11/14/20 23/16/20
f 15/2/1 11/17/1 12/8/1
f 21/26/13 20/23/13 23/25/13
f 18/43/13 21/26/13 19/27/13
f 13/44/21 16/28/21 18/30/21
f 16/28/22 10/31/22 21/29/22
f 23/16/23 17/15/23 19/34/23
f 10/31/17 11/14/17 20/32/17
f 24/37/18 13/12/18 25/36/18
f 26/45/18 24/37/18 27/38/18
